<svg width="860" height="861" viewBox="0 0 860 861" fill="none" xmlns="http://www.w3.org/2000/svg">
<g opacity="0.15">
<path d="M432.272 769.538C245.351 769.538 93.2766 617.266 93.2766 430.291H186.897C186.897 478.866 201.289 526.35 228.254 566.739C255.219 607.127 293.545 638.607 338.386 657.196C383.227 675.785 432.569 680.648 480.172 671.171C527.775 661.695 571.501 638.304 605.82 603.956C640.14 569.609 663.513 525.847 672.981 478.205C682.45 430.563 677.591 381.181 659.017 336.304C640.443 291.426 608.989 253.069 568.634 226.082C528.278 199.095 480.833 184.691 432.297 184.691V91.1172C619.218 91.1172 771.292 243.389 771.292 430.389C771.292 617.389 619.194 769.538 432.272 769.538Z" fill="#FCE93D"/>
<path d="M433.082 676.235C367.848 676.235 305.286 650.3 259.159 604.135C213.032 557.97 187.117 495.357 187.117 430.07C187.117 364.783 213.032 302.17 259.159 256.005C305.286 209.84 367.848 183.905 433.082 183.905V277.602C392.678 277.602 353.928 293.665 325.358 322.259C296.788 350.852 280.738 389.633 280.738 430.07C280.738 470.507 296.788 509.288 325.358 537.882C353.928 566.475 392.678 582.539 433.082 582.539V676.235Z" fill="#0000FF"/>
<path d="M429.72 860.141V766.518C615.046 766.518 765.918 615.621 765.918 430.046C765.918 244.47 615.144 93.5735 429.72 93.5735C244.296 93.5735 93.5222 244.47 93.5222 430.046H0C0 192.919 192.787 0 429.72 0C666.654 0 859.44 192.919 859.44 430.046C859.44 667.172 666.654 860.141 429.72 860.141Z" fill="#FD4B01"/>
</g>
</svg>
