<svg width="509" height="506" viewBox="0 0 509 506" fill="none" xmlns="http://www.w3.org/2000/svg">
<path d="M294.317 43.5025C344.917 53.0972 390.366 80.5303 422.32 120.767C454.275 161.004 470.592 211.345 468.277 262.551L254.507 252.732L294.317 43.5025Z" fill="#E9E9E9"/>
<path d="M468.36 256.476C468.36 301.07 454.854 344.577 429.684 381.062C404.515 417.546 368.909 445.23 327.725 460.335C286.541 475.441 241.785 477.232 199.565 465.465C157.344 453.698 119.716 428.946 91.8145 394.586C63.9133 360.226 47.0982 317.932 43.6639 273.476C40.2296 229.02 50.3434 184.567 72.6251 146.184C94.9068 107.8 128.271 77.3555 168.165 59.0047C208.059 40.6538 252.539 35.2904 295.535 43.6464L255.684 256.476H468.36Z" fill="#FB9A40"/>
<ellipse cx="255.264" cy="255.722" rx="178.601" ry="181.158" fill="#8E5572"/>
<path d="M398.195 143C398.487 141.005 399.057 139.693 399.906 139.062C400.755 138.427 401.479 137.885 402.078 137.438C402.677 136.99 403.211 136.508 403.68 135.992C404.154 135.477 404.391 134.904 404.391 134.273C404.391 133.643 404.167 133.107 403.719 132.664C403.276 132.221 402.74 132 402.109 132C401.49 132 400.956 132.221 400.508 132.664C400.128 133.044 399.891 133.701 399.797 134.633L398.18 134.047C398.346 132.964 398.734 132.115 399.344 131.5C400.109 130.729 401.031 130.344 402.109 130.344C403.198 130.344 404.122 130.727 404.883 131.492C405.648 132.258 406.031 133.185 406.031 134.273C406.031 135.346 405.661 136.281 404.922 137.078C404.453 137.583 403.906 138.07 403.281 138.539C402.661 139.003 401.971 139.521 401.211 140.094C400.544 140.589 400.172 141.016 400.094 141.375H406.031V143H398.195ZM408.414 143C408.706 141.005 409.276 139.693 410.125 139.062C410.974 138.427 411.698 137.885 412.297 137.438C412.896 136.99 413.43 136.508 413.898 135.992C414.372 135.477 414.609 134.904 414.609 134.273C414.609 133.643 414.385 133.107 413.938 132.664C413.495 132.221 412.958 132 412.328 132C411.708 132 411.174 132.221 410.727 132.664C410.346 133.044 410.109 133.701 410.016 134.633L408.398 134.047C408.565 132.964 408.953 132.115 409.562 131.5C410.328 130.729 411.25 130.344 412.328 130.344C413.417 130.344 414.341 130.727 415.102 131.492C415.867 132.258 416.25 133.185 416.25 134.273C416.25 135.346 415.88 136.281 415.141 137.078C414.672 137.583 414.125 138.07 413.5 138.539C412.88 139.003 412.19 139.521 411.43 140.094C410.763 140.589 410.391 141.016 410.312 141.375H416.25V143H408.414ZM426.625 132.922L419.453 143.164L418.125 142.242L425.289 132.008L426.625 132.922ZM420.211 133.273C420.805 133.273 421.31 133.484 421.727 133.906C422.148 134.323 422.359 134.828 422.359 135.422C422.359 136.016 422.148 136.523 421.727 136.945C421.31 137.362 420.805 137.57 420.211 137.57C419.617 137.57 419.109 137.362 418.688 136.945C418.271 136.523 418.062 136.016 418.062 135.422C418.062 134.828 418.271 134.323 418.688 133.906C419.109 133.484 419.617 133.273 420.211 133.273ZM420.211 134.875C420.06 134.875 419.93 134.93 419.82 135.039C419.716 135.143 419.664 135.271 419.664 135.422C419.664 135.578 419.716 135.711 419.82 135.82C419.93 135.924 420.06 135.977 420.211 135.977C420.362 135.977 420.492 135.924 420.602 135.82C420.711 135.711 420.766 135.578 420.766 135.422C420.766 135.271 420.711 135.143 420.602 135.039C420.492 134.93 420.362 134.875 420.211 134.875ZM424.531 137.594C425.13 137.594 425.638 137.805 426.055 138.227C426.477 138.643 426.688 139.148 426.688 139.742C426.688 140.341 426.477 140.852 426.055 141.273C425.638 141.69 425.13 141.898 424.531 141.898C423.938 141.898 423.43 141.69 423.008 141.273C422.591 140.852 422.383 140.341 422.383 139.742C422.383 139.148 422.591 138.643 423.008 138.227C423.43 137.805 423.938 137.594 424.531 137.594ZM424.531 139.195C424.38 139.195 424.25 139.25 424.141 139.359C424.036 139.464 423.984 139.591 423.984 139.742C423.984 139.898 424.036 140.031 424.141 140.141C424.25 140.245 424.38 140.297 424.531 140.297C424.682 140.297 424.812 140.245 424.922 140.141C425.031 140.031 425.086 139.898 425.086 139.742C425.086 139.591 425.031 139.464 424.922 139.359C424.812 139.25 424.682 139.195 424.531 139.195Z" fill="black"/>
<path d="M253.107 446.938C253.066 448.848 252.316 450.62 250.857 452.255C249.404 453.884 248.279 455.264 247.482 456.395C246.686 457.525 246.258 459.061 246.199 461H244.345C244.415 458.604 244.901 456.775 245.804 455.516C246.706 454.25 247.781 452.92 249.029 451.525C250.277 450.125 250.948 449.202 251.042 448.757H244.362V446.938H253.107ZM260.147 459.312C261.073 459.312 261.785 459.063 262.283 458.565C262.787 458.067 263.039 457.464 263.039 456.755C263.039 456.04 262.79 455.416 262.292 454.883C261.8 454.344 261.085 453.978 260.147 453.784C259.204 453.978 258.486 454.344 257.994 454.883C257.502 455.416 257.256 456.04 257.256 456.755C257.256 457.464 257.505 458.067 258.003 458.565C258.501 459.063 259.216 459.312 260.147 459.312ZM260.147 461.176C258.706 461.176 257.555 460.745 256.693 459.884C255.832 459.017 255.401 457.974 255.401 456.755C255.401 455.255 256.225 453.904 257.871 452.703C257.08 451.854 256.685 450.972 256.685 450.058C256.685 449.161 257.004 448.388 257.643 447.737C258.287 447.087 259.072 446.762 259.998 446.762H260.288C261.214 446.762 261.999 447.087 262.644 447.737C263.288 448.388 263.61 449.161 263.61 450.058C263.61 450.972 263.183 451.845 262.327 452.677C264.038 453.896 264.894 455.255 264.894 456.755C264.894 457.974 264.463 459.017 263.602 459.884C262.74 460.745 261.589 461.176 260.147 461.176ZM260.104 448.625C260.062 448.619 260.027 448.616 259.998 448.616C259.6 448.616 259.26 448.757 258.979 449.038C258.697 449.313 258.557 449.653 258.557 450.058C258.557 450.468 258.703 450.831 258.996 451.147C259.295 451.464 259.564 451.669 259.805 451.763C259.934 451.81 260.048 451.842 260.147 451.859C260.247 451.842 260.361 451.81 260.49 451.763C260.725 451.669 260.991 451.464 261.29 451.147C261.589 450.831 261.738 450.468 261.738 450.058C261.738 449.653 261.598 449.313 261.316 449.038C261.035 448.757 260.692 448.616 260.288 448.616C260.265 448.616 260.232 448.619 260.191 448.625H260.104ZM276.17 449.662L268.102 461.185L266.607 460.147L274.667 448.634L276.17 449.662ZM268.954 450.058C269.622 450.058 270.19 450.295 270.659 450.77C271.134 451.238 271.371 451.807 271.371 452.475C271.371 453.143 271.134 453.714 270.659 454.188C270.19 454.657 269.622 454.892 268.954 454.892C268.286 454.892 267.715 454.657 267.24 454.188C266.771 453.714 266.537 453.143 266.537 452.475C266.537 451.807 266.771 451.238 267.24 450.77C267.715 450.295 268.286 450.058 268.954 450.058ZM268.954 451.859C268.784 451.859 268.638 451.921 268.515 452.044C268.397 452.161 268.339 452.305 268.339 452.475C268.339 452.65 268.397 452.8 268.515 452.923C268.638 453.04 268.784 453.099 268.954 453.099C269.124 453.099 269.271 453.04 269.394 452.923C269.517 452.8 269.578 452.65 269.578 452.475C269.578 452.305 269.517 452.161 269.394 452.044C269.271 451.921 269.124 451.859 268.954 451.859ZM273.814 454.918C274.488 454.918 275.06 455.155 275.528 455.63C276.003 456.099 276.24 456.667 276.24 457.335C276.24 458.009 276.003 458.583 275.528 459.058C275.06 459.526 274.488 459.761 273.814 459.761C273.146 459.761 272.575 459.526 272.101 459.058C271.632 458.583 271.397 458.009 271.397 457.335C271.397 456.667 271.632 456.099 272.101 455.63C272.575 455.155 273.146 454.918 273.814 454.918ZM273.814 456.72C273.645 456.72 273.498 456.781 273.375 456.904C273.258 457.021 273.199 457.165 273.199 457.335C273.199 457.511 273.258 457.66 273.375 457.783C273.498 457.9 273.645 457.959 273.814 457.959C273.984 457.959 274.131 457.9 274.254 457.783C274.377 457.66 274.438 457.511 274.438 457.335C274.438 457.165 274.377 457.021 274.254 456.904C274.131 456.781 273.984 456.72 273.814 456.72Z" fill="white"/>
</svg>
