<svg width="195" height="198" viewBox="0 0 195 198" fill="none" xmlns="http://www.w3.org/2000/svg">
<path d="M195 84.9089L146.752 99L195 113.085L144.755 112.943L187.101 140.127L138.935 125.763L171.946 163.832L129.754 136.41L150.758 182.282L117.961 144.029L125.252 193.986L104.507 147.995L97.5 198L90.4927 147.995L69.7484 193.986L77.0393 144.029L44.2478 182.282L65.2462 136.41L23.0545 163.832L56.0646 125.763L7.8995 140.127L50.2448 112.943L0 113.085L48.2478 99L0 84.9089L50.2448 85.0514L7.8995 57.8727L56.0646 72.237L23.0545 34.1678L65.2462 61.59L44.2478 15.7182L77.0393 53.9714L69.7484 4.00822L90.4927 50.0047L97.5 0L104.507 50.0047L125.252 4.00822L117.961 53.9714L150.758 15.7182L129.754 61.59L171.946 34.1678L138.935 72.237L187.101 57.8727L144.755 85.0514L195 84.9089Z" fill="#FF9FC2"/>
</svg>
