<svg width="196" height="347" viewBox="0 0 196 347" fill="none" xmlns="http://www.w3.org/2000/svg">
<path d="M112.499 346.804C158.615 346.804 195.999 307.692 195.999 259.446C195.999 211.199 158.615 172.088 112.499 172.088C66.3832 172.088 28.999 211.199 28.999 259.446C28.999 307.692 66.3832 346.804 112.499 346.804Z" fill="#F1F58F"/>
<g opacity="0.3" clip-path="url(#clip0_207_41)">
<path d="M77.9516 7.67642C78.0259 9.9487 79.2703 20.3465 78.516 24.9342C77.7618 29.522 71.8523 38.2623 72.2231 42.5198C72.594 46.7774 81.1297 52.0316 81.3324 57.2701C81.5351 62.5086 73.0185 77.1057 73.7627 82.3056C74.507 87.5056 87.0686 89.1848 86.9851 96.7633C86.9017 104.342 73.1021 130.74 73.1288 139.864C73.1554 148.988 87.6416 159.172 87.1879 166.061C86.7342 172.949 70.246 186.777 69.6829 192.183C69.1199 197.589 81.1697 205.153 82.9115 207.12" stroke="#B0AB94" stroke-width="3" stroke-linecap="round"/>
</g>
<defs>
<clipPath id="clip0_207_41">
<rect width="213.877" height="153" fill="white" transform="translate(152.987) rotate(89.2651)"/>
</clipPath>
</defs>
</svg>
