<svg width="1440" height="161" viewBox="0 0 1440 161" fill="none" xmlns="http://www.w3.org/2000/svg">
<g opacity="0.75">
<path d="M1073.96 147H1076.16C1103.29 147 1125.75 125.92 1127.47 98.8446L1129.37 68.9974C1130.02 58.7038 1138.56 50.6895 1148.87 50.6895V50.6895C1159.19 50.6895 1167.73 58.7038 1168.38 68.9974L1170.28 98.8446C1171.99 125.92 1194.46 147 1221.58 147H1222.92C1250.05 147 1272.51 125.92 1274.23 98.8446L1276.12 68.9974C1276.78 58.7038 1285.32 50.6895 1295.63 50.6895V50.6895C1305.95 50.6895 1314.49 58.7038 1315.14 68.9974L1317.04 98.9413C1318.76 125.962 1341.17 147 1368.25 147V147C1395.32 147 1417.74 125.962 1419.45 98.9414L1421.45 67.4718C1422.05 58.0359 1429.88 50.6895 1439.33 50.6895V50.6895" stroke="#FFDCA7" stroke-width="26.5475"/>
<path d="M1073.96 134.77V134.77C1098.45 134.77 1118.3 114.922 1118.3 90.437V69.0347C1118.3 52.1487 1131.99 38.46 1148.87 38.46V38.46C1165.76 38.46 1179.45 52.1487 1179.45 69.0347V91.9657C1179.45 115.606 1198.61 134.77 1222.25 134.77V134.77C1245.89 134.77 1265.06 115.606 1265.06 91.9657V69.0347C1265.06 52.1487 1278.75 38.46 1295.63 38.46V38.46C1312.52 38.46 1326.21 52.1487 1326.21 69.0347V92.7301C1326.21 115.948 1345.03 134.77 1368.25 134.77V134.77C1391.46 134.77 1410.29 115.948 1410.29 92.7301V67.5059C1410.29 51.4643 1423.29 38.46 1439.33 38.46V38.46" stroke="#E28123" stroke-width="26.5475"/>
<path d="M1073.96 122.541V122.541C1091.7 122.541 1106.07 108.168 1106.07 90.4373V69.035C1106.07 45.3947 1125.23 26.2305 1148.87 26.2305V26.2305C1172.51 26.2305 1191.68 45.3947 1191.68 69.035V91.9661C1191.68 108.852 1205.37 122.541 1222.25 122.541V122.541C1239.14 122.541 1252.83 108.852 1252.83 91.9661V69.035C1252.83 45.3947 1271.99 26.2305 1295.63 26.2305V26.2305C1319.27 26.2305 1338.44 45.3947 1338.44 69.035V92.7304C1338.44 109.194 1351.78 122.541 1368.25 122.541V122.541C1384.71 122.541 1398.06 109.194 1398.06 92.7304V67.5063C1398.06 44.7103 1416.54 26.2305 1439.33 26.2305V26.2305" stroke="#BF4D11" stroke-width="26.5475"/>
<path d="M1073.96 110.31V110.31C1085.14 110.31 1094.39 101.628 1095.1 90.4767L1096.9 62.1552C1098.61 35.08 1121.08 14 1148.21 14H1149.54C1176.67 14 1199.13 35.08 1200.85 62.1551L1202.74 92.0023C1203.4 102.296 1211.94 110.31 1222.25 110.31V110.31C1232.57 110.31 1241.11 102.296 1241.76 92.0023L1243.65 62.1552C1245.37 35.08 1267.83 14 1294.96 14H1296.3C1323.43 14 1345.89 35.08 1347.61 62.1551L1349.55 92.7652C1350.18 102.63 1358.36 110.31 1368.25 110.31V110.31C1378.13 110.31 1386.31 102.63 1386.94 92.7652L1388.94 61.2956C1390.63 34.7037 1412.69 14 1439.33 14V14" stroke="#5B3715" stroke-width="26.5475"/>
</g>
<g opacity="0.75">
<path d="M494.965 147H497.161C524.291 147 546.752 125.92 548.471 98.8446L550.366 68.9974C551.019 58.7038 559.559 50.6895 569.873 50.6895V50.6895C580.187 50.6895 588.727 58.7038 589.38 68.9974L591.275 98.8446C592.994 125.92 615.455 147 642.585 147H643.92C671.049 147 693.51 125.92 695.229 98.8446L697.124 68.9974C697.778 58.7038 706.317 50.6895 716.631 50.6895V50.6895C726.946 50.6895 735.485 58.7038 736.139 68.9974L738.04 98.9413C739.755 125.962 762.171 147 789.246 147V147C816.321 147 838.737 125.962 840.453 98.9414L842.451 67.4718C843.05 58.0359 850.878 50.6895 860.332 50.6895V50.6895" stroke="#FFDCA7" stroke-width="26.5475"/>
<path d="M494.965 134.77V134.77C519.449 134.77 539.298 114.922 539.298 90.437V69.0347C539.298 52.1487 552.987 38.46 569.873 38.46V38.46C586.759 38.46 600.448 52.1487 600.448 69.0347V91.9657C600.448 115.606 619.612 134.77 643.252 134.77V134.77C666.892 134.77 686.057 115.606 686.057 91.9657V69.0347C686.057 52.1487 699.745 38.46 716.631 38.46V38.46C733.517 38.46 747.206 52.1487 747.206 69.0347V92.7301C747.206 115.948 766.028 134.77 789.246 134.77V134.77C812.464 134.77 831.287 115.948 831.287 92.7301V67.5059C831.287 51.4643 844.291 38.46 860.332 38.46V38.46" stroke="#E28123" stroke-width="26.5475"/>
<path d="M494.965 122.541V122.541C512.695 122.541 527.068 108.168 527.068 90.4373V69.035C527.068 45.3947 546.233 26.2305 569.873 26.2305V26.2305C593.513 26.2305 612.677 45.3947 612.677 69.035V91.9661C612.677 108.852 626.366 122.541 643.252 122.541V122.541C660.138 122.541 673.827 108.852 673.827 91.9661V69.035C673.827 45.3947 692.991 26.2305 716.631 26.2305V26.2305C740.272 26.2305 759.436 45.3947 759.436 69.035V92.7304C759.436 109.194 772.783 122.541 789.246 122.541V122.541C805.71 122.541 819.057 109.194 819.057 92.7304V67.5063C819.057 44.7103 837.536 26.2305 860.332 26.2305V26.2305" stroke="#BF4D11" stroke-width="26.5475"/>
<path d="M494.965 110.31V110.31C506.139 110.31 515.39 101.628 516.098 90.4767L517.896 62.1552C519.615 35.08 542.076 14 569.205 14H570.54C597.67 14 620.131 35.08 621.85 62.1551L623.745 92.0023C624.398 102.296 632.938 110.31 643.252 110.31V110.31C653.566 110.31 662.106 102.296 662.759 92.0023L664.654 62.1552C666.373 35.08 688.834 14 715.964 14H717.299C744.429 14 766.889 35.08 768.608 62.1551L770.552 92.7652C771.178 102.63 779.362 110.31 789.246 110.31V110.31C799.131 110.31 807.314 102.63 807.941 92.7652L809.939 61.2956C811.627 34.7037 833.687 14 860.332 14V14" stroke="#5B3715" stroke-width="26.5475"/>
</g>
<g opacity="0.75">
<path d="M-84.0352 147H-81.839C-54.7093 147 -32.2485 125.92 -30.5294 98.8446L-28.6344 68.9974C-27.9808 58.7038 -19.4415 50.6895 -9.12715 50.6895V50.6895C1.1872 50.6895 9.72652 58.7038 10.3801 68.9974L12.2751 98.8446C13.9942 125.92 36.4551 147 63.5847 147H64.9196C92.0492 147 114.51 125.92 116.229 98.8446L118.124 68.9974C118.778 58.7038 127.317 50.6895 137.631 50.6895V50.6895C147.946 50.6895 156.485 58.7038 157.139 68.9974L159.04 98.9413C160.755 125.962 183.171 147 210.246 147V147C237.321 147 259.737 125.962 261.453 98.9414L263.451 67.4718C264.05 58.0359 271.878 50.6895 281.332 50.6895V50.6895" stroke="#FFDCA7" stroke-width="26.5475"/>
<path d="M-84.0352 134.77V134.77C-59.5506 134.77 -39.7018 114.922 -39.7018 90.437V69.0347C-39.7018 52.1487 -26.0131 38.46 -9.12715 38.46V38.46C7.7588 38.46 21.4476 52.1487 21.4476 69.0347V91.9657C21.4476 115.606 40.6118 134.77 64.2521 134.77V134.77C87.8924 134.77 107.057 115.606 107.057 91.9657V69.0347C107.057 52.1487 120.745 38.46 137.631 38.46V38.46C154.517 38.46 168.206 52.1487 168.206 69.0347V92.7301C168.206 115.948 187.028 134.77 210.246 134.77V134.77C233.464 134.77 252.287 115.948 252.287 92.7301V67.5059C252.287 51.4643 265.291 38.46 281.332 38.46V38.46" stroke="#E28123" stroke-width="26.5475"/>
<path d="M-84.0352 122.541V122.541C-66.3049 122.541 -51.9317 108.168 -51.9317 90.4373V69.035C-51.9317 45.3947 -32.7675 26.2305 -9.12715 26.2305V26.2305C14.5132 26.2305 33.6774 45.3947 33.6774 69.035V91.9661C33.6774 108.852 47.3662 122.541 64.2521 122.541V122.541C81.1381 122.541 94.8268 108.852 94.8268 91.9661V69.035C94.8268 45.3947 113.991 26.2305 137.631 26.2305V26.2305C161.272 26.2305 180.436 45.3947 180.436 69.035V92.7304C180.436 109.194 193.783 122.541 210.246 122.541V122.541C226.71 122.541 240.057 109.194 240.057 92.7304V67.5063C240.057 44.7103 258.536 26.2305 281.332 26.2305V26.2305" stroke="#BF4D11" stroke-width="26.5475"/>
<path d="M-84.0352 110.31V110.31C-72.8613 110.31 -63.6104 101.628 -62.9023 90.4767L-61.1041 62.1552C-59.3851 35.08 -36.9242 14 -9.79455 14H-8.45971C18.67 14 41.1308 35.08 42.8498 62.1551L44.7449 92.0023C45.3985 102.296 53.9378 110.31 64.2521 110.31V110.31C74.5665 110.31 83.1058 102.296 83.7594 92.0023L85.6544 62.1552C87.3735 35.08 109.834 14 136.964 14H138.299C165.429 14 187.889 35.08 189.608 62.1551L191.552 92.7652C192.178 102.63 200.362 110.31 210.246 110.31V110.31C220.131 110.31 228.314 102.63 228.941 92.7652L230.939 61.2956C232.627 34.7037 254.687 14 281.332 14V14" stroke="#5B3715" stroke-width="26.5475"/>
</g>
<g opacity="0.75">
<path d="M783 147H785.196C812.326 147 834.787 125.92 836.506 98.8446L838.401 68.9974C839.054 58.7038 847.594 50.6895 857.908 50.6895V50.6895C868.222 50.6895 876.762 58.7038 877.415 68.9974L879.31 98.8446C881.029 125.92 903.49 147 930.62 147H931.955C959.084 147 981.545 125.92 983.264 98.8446L985.159 68.9974C985.813 58.7038 994.352 50.6895 1004.67 50.6895V50.6895C1014.98 50.6895 1023.52 58.7038 1024.17 68.9974L1026.07 98.9413C1027.79 125.962 1050.21 147 1077.28 147V147C1104.36 147 1126.77 125.962 1128.49 98.9414L1130.49 67.4718C1131.09 58.0359 1138.91 50.6895 1148.37 50.6895V50.6895" stroke="#FFDCA7" stroke-width="26.5475"/>
<path d="M783 134.77V134.77C807.485 134.77 827.333 114.922 827.333 90.437V69.0347C827.333 52.1487 841.022 38.46 857.908 38.46V38.46C874.794 38.46 888.483 52.1487 888.483 69.0347V91.9657C888.483 115.606 907.647 134.77 931.287 134.77V134.77C954.928 134.77 974.092 115.606 974.092 91.9657V69.0347C974.092 52.1487 987.781 38.46 1004.67 38.46V38.46C1021.55 38.46 1035.24 52.1487 1035.24 69.0347V92.7301C1035.24 115.948 1054.06 134.77 1077.28 134.77V134.77C1100.5 134.77 1119.32 115.948 1119.32 92.7301V67.5059C1119.32 51.4643 1132.33 38.46 1148.37 38.46V38.46" stroke="#E28123" stroke-width="26.5475"/>
<path d="M783 122.541V122.541C800.73 122.541 815.103 108.168 815.103 90.4373V69.035C815.103 45.3947 834.268 26.2305 857.908 26.2305V26.2305C881.548 26.2305 900.713 45.3947 900.713 69.035V91.9661C900.713 108.852 914.401 122.541 931.287 122.541V122.541C948.173 122.541 961.862 108.852 961.862 91.9661V69.035C961.862 45.3947 981.026 26.2305 1004.67 26.2305V26.2305C1028.31 26.2305 1047.47 45.3947 1047.47 69.035V92.7304C1047.47 109.194 1060.82 122.541 1077.28 122.541V122.541C1093.75 122.541 1107.09 109.194 1107.09 92.7304V67.5063C1107.09 44.7103 1125.57 26.2305 1148.37 26.2305V26.2305" stroke="#BF4D11" stroke-width="26.5475"/>
<path d="M783 110.31V110.31C794.174 110.31 803.425 101.628 804.133 90.4767L805.931 62.1552C807.65 35.08 830.111 14 857.241 14H858.575C885.705 14 908.166 35.08 909.885 62.1551L911.78 92.0023C912.434 102.296 920.973 110.31 931.287 110.31V110.31C941.602 110.31 950.141 102.296 950.795 92.0023L952.69 62.1552C954.409 35.08 976.869 14 1004 14H1005.33C1032.46 14 1054.92 35.08 1056.64 62.1551L1058.59 92.7652C1059.21 102.63 1067.4 110.31 1077.28 110.31V110.31C1087.17 110.31 1095.35 102.63 1095.98 92.7652L1097.97 61.2956C1099.66 34.7037 1121.72 14 1148.37 14V14" stroke="#5B3715" stroke-width="26.5475"/>
</g>
<g opacity="0.75">
<path d="M204 147H206.196C233.326 147 255.787 125.92 257.506 98.8446L259.401 68.9974C260.054 58.7038 268.594 50.6895 278.908 50.6895V50.6895C289.222 50.6895 297.762 58.7038 298.415 68.9974L300.31 98.8446C302.029 125.92 324.49 147 351.62 147H352.955C380.084 147 402.545 125.92 404.264 98.8446L406.159 68.9974C406.813 58.7038 415.352 50.6895 425.667 50.6895V50.6895C435.981 50.6895 444.52 58.7038 445.174 68.9974L447.075 98.9413C448.791 125.962 471.206 147 498.281 147V147C525.357 147 547.772 125.962 549.488 98.9414L551.486 67.4718C552.085 58.0359 559.913 50.6895 569.368 50.6895V50.6895" stroke="#FFDCA7" stroke-width="26.5475"/>
<path d="M204 134.77V134.77C228.485 134.77 248.333 114.922 248.333 90.437V69.0347C248.333 52.1487 262.022 38.46 278.908 38.46V38.46C295.794 38.46 309.483 52.1487 309.483 69.0347V91.9657C309.483 115.606 328.647 134.77 352.287 134.77V134.77C375.928 134.77 395.092 115.606 395.092 91.9657V69.0347C395.092 52.1487 408.781 38.46 425.667 38.46V38.46C442.553 38.46 456.241 52.1487 456.241 69.0347V92.7301C456.241 115.948 475.063 134.77 498.281 134.77V134.77C521.5 134.77 540.322 115.948 540.322 92.7301V67.5059C540.322 51.4643 553.326 38.46 569.368 38.46V38.46" stroke="#E28123" stroke-width="26.5475"/>
<path d="M204 122.541V122.541C221.73 122.541 236.103 108.168 236.103 90.4373V69.035C236.103 45.3947 255.268 26.2305 278.908 26.2305V26.2305C302.548 26.2305 321.713 45.3947 321.713 69.035V91.9661C321.713 108.852 335.401 122.541 352.287 122.541V122.541C369.173 122.541 382.862 108.852 382.862 91.9661V69.035C382.862 45.3947 402.026 26.2305 425.667 26.2305V26.2305C449.307 26.2305 468.471 45.3947 468.471 69.035V92.7304C468.471 109.194 481.818 122.541 498.281 122.541V122.541C514.745 122.541 528.092 109.194 528.092 92.7304V67.5063C528.092 44.7103 546.572 26.2305 569.368 26.2305V26.2305" stroke="#BF4D11" stroke-width="26.5475"/>
<path d="M204 110.31V110.31C215.174 110.31 224.425 101.628 225.133 90.4767L226.931 62.1552C228.65 35.08 251.111 14 278.241 14H279.575C306.705 14 329.166 35.08 330.885 62.1551L332.78 92.0023C333.434 102.296 341.973 110.31 352.287 110.31V110.31C362.602 110.31 371.141 102.296 371.795 92.0023L373.69 62.1552C375.409 35.08 397.869 14 424.999 14H426.334C453.464 14 475.924 35.08 477.644 62.1551L479.587 92.7652C480.213 102.63 488.397 110.31 498.281 110.31V110.31C508.166 110.31 516.35 102.63 516.976 92.7652L518.974 61.2956C520.662 34.7037 542.722 14 569.368 14V14" stroke="#5B3715" stroke-width="26.5475"/>
</g>
</svg>
