<svg width="417" height="474" viewBox="0 0 417 474" fill="none" xmlns="http://www.w3.org/2000/svg">
<path d="M258 0V258H0V200.131C0 173.854 5.17615 147.835 15.2325 123.558C25.2889 99.282 40.0285 77.224 58.6103 58.6436C77.192 40.0632 99.2522 25.3244 123.53 15.2687C147.809 5.21309 173.83 0.037553 200.108 0.037553L257.981 0.037553L258 0Z" fill="#11A858"/>
<path d="M341 129V387H83V329.131C83 302.854 88.1761 276.835 98.2325 252.558C108.289 228.282 123.029 206.224 141.61 187.644C160.192 169.063 182.252 154.324 206.53 144.269C230.809 134.213 256.83 129.038 283.108 129.038H340.981L341 129Z" fill="#C779D0"/>
<path d="M314.1 473.2C370.488 473.2 416.2 427.488 416.2 371.1C416.2 314.712 370.488 269 314.1 269C257.712 269 212 314.712 212 371.1C212 427.488 257.712 473.2 314.1 473.2Z" fill="#FEC700"/>
</svg>
