<svg width="626" height="629" viewBox="0 0 626 629" fill="none" xmlns="http://www.w3.org/2000/svg">
<g opacity="0.5">
<path d="M313 623.434C483.104 623.434 621 485.029 621 314.298C621 143.566 483.104 5.16113 313 5.16113C142.896 5.16113 5 143.566 5 314.298C5 485.029 142.896 623.434 313 623.434Z" stroke="#E47976" stroke-width="10" stroke-miterlimit="10"/>
<path d="M313 448.408C387.695 448.408 448.247 388.365 448.247 314.297C448.247 240.23 387.695 180.187 313 180.187C238.305 180.187 177.753 240.23 177.753 314.297C177.753 388.365 238.305 448.408 313 448.408Z" stroke="#E47976" stroke-width="10" stroke-miterlimit="10"/>
<path d="M313 537.058C437.91 537.058 539.17 435.799 539.17 310.888C539.17 185.978 437.91 84.7188 313 84.7188C188.09 84.7188 86.8303 185.978 86.8303 310.888C86.8303 435.799 188.09 537.058 313 537.058Z" stroke="#E47976" stroke-width="10" stroke-miterlimit="10"/>
<path d="M314.137 5.16113V623.434" stroke="#E47976" stroke-width="10" stroke-miterlimit="10"/>
<path d="M621 314.297H5" stroke="#E47976" stroke-width="10" stroke-miterlimit="10"/>
<path d="M532.35 96.084L95.9224 532.512" stroke="#E47976" stroke-width="10" stroke-miterlimit="10"/>
<path d="M532.35 532.512L95.9224 96.084" stroke="#E47976" stroke-width="10" stroke-miterlimit="10"/>
<path d="M591.45 177.914L34.5499 448.409" stroke="#E47976" stroke-width="10" stroke-miterlimit="10"/>
<path d="M448.247 593.884L177.753 34.7109" stroke="#E47976" stroke-width="10" stroke-miterlimit="10"/>
<path d="M605.089 414.313L20.9115 214.283" stroke="#E47976" stroke-width="10" stroke-miterlimit="10"/>
<path d="M214.122 607.523L414.151 21.0732" stroke="#E47976" stroke-width="10" stroke-miterlimit="10"/>
</g>
</svg>
