<svg width="230" height="158" viewBox="0 0 230 158" fill="none" xmlns="http://www.w3.org/2000/svg">
<rect width="230" height="158" fill="white"/>
<path d="M66.1203 107H89.1603C108.44 107 115.8 94.84 115.8 79.72C115.8 64.2 107.88 54.12 89.1603 54.12H66.1203V55.32H73.2403V105.8H66.1203V107ZM89.3203 55.32C101.32 55.32 107.24 63.4 107.24 80.6C107.24 97.08 101.32 105.8 89.3203 105.8H81.0803V55.32H89.3203ZM150.238 107H168.078V105.8H164.158L142.558 53.8H141.358L123.678 101.08C122.398 104.6 120.958 105.8 118.478 105.8H116.878V107H131.678V105.8H129.278C125.598 105.8 123.918 103.96 124.958 101.08L129.918 87.72H148.318L155.838 105.8H150.238V107ZM138.558 64.52L147.758 86.52H130.398L138.558 64.52Z" fill="#646382"/>
</svg>
