<svg width="117" height="39" viewBox="0 0 117 39" fill="none" xmlns="http://www.w3.org/2000/svg">
<path d="M107 0H10C4.47715 0 0 4.47715 0 10V29C0 34.5228 4.47715 39 10 39H107C112.523 39 117 34.5228 117 29V10C117 4.47715 112.523 0 107 0Z" fill="#0C090D"/>
<path d="M10.3335 24.9599H14.8413C18.6135 24.9599 20.0536 22.5887 20.0536 19.6403C20.0536 16.6139 18.5039 14.6483 14.8413 14.6483H10.3335V14.8823H11.7265V24.7259H10.3335V24.9599ZM14.8726 14.8823C17.2205 14.8823 18.3787 16.4579 18.3787 19.8119C18.3787 23.0255 17.2205 24.7259 14.8726 24.7259H13.2605V14.8823H14.8726ZM21.2118 18.1739H22.3075V24.7259H21.2118V24.9599H24.9371V24.7259H23.6849V20.7479C23.6849 20.2643 23.8727 19.5779 24.2171 19.0163C24.5144 18.5327 24.9214 18.1583 25.3597 18.1583C25.8292 18.1583 26.0797 18.5639 26.0797 19.3439C26.0797 19.7807 26.0014 20.3423 25.5475 20.2643V20.3891C25.751 20.4827 25.9075 20.4827 26.0797 20.4827C26.7057 20.4827 27.191 20.0147 27.191 19.2503C27.191 18.3767 26.5336 17.8307 25.704 17.8307C24.5927 17.8307 23.9666 18.7823 23.6849 19.5935H23.6536V17.9399H21.2118V18.1739ZM27.9119 23.3219C27.9119 24.6167 29.0232 25.0691 30.025 25.0691C31.1832 25.0691 31.9032 24.3983 32.2163 23.7899H32.2476C32.2946 24.5855 32.7798 25.0691 33.625 25.0691C34.3606 25.0691 34.8772 24.6011 34.8772 23.6651H34.6424C34.6424 24.2267 34.4389 24.7415 33.9067 24.7415C33.578 24.7415 33.4841 24.4919 33.4841 24.0395V19.9679C33.4841 18.6107 32.7172 17.8307 30.8232 17.8307C29.1798 17.8307 28.2876 18.4079 28.2876 19.2659C28.2876 19.8899 28.7728 20.2799 29.4772 20.2799C29.8059 20.2799 30.0876 20.1863 30.0876 20.1863V20.0615C29.5711 20.1707 29.3519 19.7339 29.3519 19.2191C29.3519 18.3923 29.8685 18.0335 30.8232 18.0335C31.8563 18.0335 32.1067 18.5327 32.1067 19.4531V21.0911H31.9502C30.0563 21.0911 27.9119 21.6371 27.9119 23.3219ZM29.3989 23.3531C29.3989 22.4951 29.6806 21.9647 30.1972 21.6683C30.6041 21.4343 31.1519 21.3251 31.825 21.3251H32.1067V23.3219C32.1067 23.6807 31.7624 24.1331 31.3241 24.4451C31.0111 24.6635 30.6511 24.8039 30.3067 24.8039C29.7276 24.8039 29.3989 24.3827 29.3989 23.3531ZM37.5768 22.4795V20.6699C37.5768 19.3439 38.3594 18.0959 39.6272 18.0959C40.7542 18.0959 41.2863 18.9383 41.2863 21.3095C41.2863 23.7431 40.7698 24.8039 39.502 24.8039C38.1559 24.8039 37.5768 23.6183 37.5768 22.4795ZM35.2289 28.5167H38.5472V28.2827H37.5768V23.8055H37.6081C37.8898 24.4607 38.5159 25.0691 39.6429 25.0691C41.5211 25.0691 42.7576 23.6963 42.7576 21.3407C42.7576 19.1723 41.8029 17.8307 39.8776 17.8307C38.6098 17.8307 37.9055 18.5015 37.5768 19.4375H37.5455V17.9399H35.1037V18.1739H36.1994V28.2827H35.2289V28.5167ZM44.1018 21.4655C44.1018 24.0239 45.3539 25.0691 47.2792 25.0691C47.7487 25.0691 48.0618 25.0067 48.4061 24.8819C49.2826 24.5543 49.8774 23.8523 49.8774 22.9475H49.627C49.627 24.1019 48.547 24.8351 47.42 24.8351C46.1835 24.8351 45.5574 24.1487 45.5574 21.4967V21.2627H50.0339V20.6387C50.0339 18.7043 49.0322 17.8307 47.2635 17.8307C45.3852 17.8307 44.1018 18.8135 44.1018 21.4655ZM45.5731 21.0287C45.62 19.0631 46.0896 18.0335 47.2635 18.0335C48.3748 18.0335 48.6722 18.9383 48.6722 20.4047V21.0287H45.5731ZM51.003 18.1739H52.0987V24.7259H51.003V24.9599H54.7282V24.7259H53.476V20.7479C53.476 20.2643 53.6639 19.5779 54.0082 19.0163C54.3056 18.5327 54.7126 18.1583 55.1508 18.1583C55.6204 18.1583 55.8708 18.5639 55.8708 19.3439C55.8708 19.7807 55.7926 20.3423 55.3387 20.2643V20.3891C55.5421 20.4827 55.6987 20.4827 55.8708 20.4827C56.4969 20.4827 56.9821 20.0147 56.9821 19.2503C56.9821 18.3767 56.3247 17.8307 55.4952 17.8307C54.3839 17.8307 53.7578 18.7823 53.476 19.5935H53.4447V17.9399H51.003V18.1739ZM66.197 24.9599H69.6874V24.7259H68.9204L64.6944 14.5859H64.4596L61.0004 23.8055C60.75 24.4919 60.4683 24.7259 59.983 24.7259H59.67V24.9599H62.5657V24.7259H62.0961C61.3761 24.7259 61.0474 24.3671 61.2509 23.8055L62.2213 21.2003H65.8213L67.2926 24.7259H66.197V24.9599ZM63.9117 16.6763L65.7117 20.9663H62.3152L63.9117 16.6763ZM75.878 17.5811C75.878 18.0335 75.7372 18.2519 75.3928 18.5015C74.9076 18.0647 74.1876 17.8307 73.3111 17.8307C71.4328 17.8307 70.4624 18.9071 70.4624 20.2643C70.4624 20.9663 70.7128 21.5435 71.198 21.9491C70.6189 22.3859 70.0241 22.9475 70.0241 23.7899C70.0241 25.2563 71.6206 25.3811 73.3737 25.5059C74.9232 25.6151 76.2693 25.7243 76.2693 26.7851C76.2693 27.8771 74.8606 28.3919 73.3267 28.3919C71.8711 28.3919 71.1667 27.9863 71.1667 27.1127C71.1667 26.4419 71.4172 26.0831 71.965 26.1767V26.0519C71.965 26.0519 71.7302 25.9739 71.4798 25.9739C70.838 25.9739 70.1337 26.3327 70.1337 27.0347C70.1337 28.0175 71.5893 28.6259 73.3267 28.6259C75.0954 28.6259 76.7702 27.9863 76.7702 26.2391C76.7702 24.6167 75.3145 24.3515 73.5458 24.2111C71.8711 24.0863 70.6032 24.1175 70.6032 23.2283C70.6032 22.7603 70.9632 22.4015 71.4015 22.0895C71.8554 22.3859 72.4659 22.5575 73.2485 22.5575C75.0485 22.5575 76.1128 21.6371 76.1128 20.1863C76.1128 19.5623 75.9093 19.0475 75.5493 18.6575C76.2224 18.2519 76.8172 18.0335 76.8172 17.4407C76.8172 17.0351 76.5511 16.5827 75.7058 16.5827C75.3458 16.5827 75.1424 16.6607 75.1424 16.6607V16.7855C75.6745 16.7699 75.878 17.0351 75.878 17.5811ZM73.2641 22.3391C72.1059 22.3391 71.8554 21.4655 71.8554 20.2331C71.8554 18.9539 72.1215 18.0491 73.2798 18.0491C74.438 18.0491 74.7198 18.9539 74.7198 20.2019C74.7198 21.4811 74.4224 22.3391 73.2641 22.3391ZM77.5767 21.4655C77.5767 24.0239 78.8288 25.0691 80.7541 25.0691C81.2236 25.0691 81.5367 25.0067 81.881 24.8819C82.7575 24.5543 83.3523 23.8523 83.3523 22.9475H83.1019C83.1019 24.1019 82.0219 24.8351 80.8949 24.8351C79.6584 24.8351 79.0323 24.1487 79.0323 21.4967V21.2627H83.5089V20.6387C83.5089 18.7043 82.5071 17.8307 80.7384 17.8307C78.86 17.8307 77.5767 18.8135 77.5767 21.4655ZM79.048 21.0287C79.0949 19.0631 79.5645 18.0335 80.7384 18.0335C81.8497 18.0335 82.1471 18.9383 82.1471 20.4047V21.0287H79.048ZM84.4779 24.9599H87.937V24.7259H86.951V20.7635C86.951 20.3267 87.1075 19.5935 87.5144 19.0163C87.8744 18.5015 88.4692 18.1115 89.2362 18.1115C90.0814 18.1115 90.3475 18.5171 90.3475 19.6871V24.7259H89.3614V24.9599H92.8205V24.7259H91.7249V19.9679C91.7249 18.4859 91.0205 17.8307 89.471 17.8307C87.4205 17.8307 86.951 19.6091 86.951 19.6091H86.9197V17.9399H84.4779V18.1739H85.5736V24.7259H84.4779V24.9599ZM93.6567 21.5123C93.6567 24.0083 94.9872 25.0691 96.6776 25.0691C97.4759 25.0691 98.0706 24.8351 98.4776 24.4607C98.9159 24.0707 99.1507 23.5091 99.1507 22.9319H98.9002C98.9002 23.5091 98.6654 23.9771 98.3054 24.3047C97.8672 24.7103 97.3506 24.8351 96.8341 24.8351C95.5976 24.8351 95.1124 23.9459 95.1124 21.4655C95.1124 18.9383 95.5976 18.0335 96.8341 18.0335C97.695 18.0335 98.1802 18.5795 98.1802 19.2347C98.1802 19.7495 97.9924 20.2487 97.4915 20.1395V20.2643C97.695 20.3267 97.9454 20.3579 98.1176 20.3579C98.9628 20.3579 99.2133 19.7027 99.2133 19.3439C99.2133 18.4547 98.1802 17.8307 96.8341 17.8307C94.9402 17.8307 93.6567 19.0787 93.6567 21.5123ZM106.034 18.8915C106.19 18.4547 106.597 18.1739 107.004 18.1739H107.239V17.9399H104.75V18.1739H105.063C105.752 18.1739 105.94 18.4859 105.705 19.1099L104.187 23.2595L101.964 18.1739H103.044V17.9399H99.6165V18.1739H100.446L103.592 25.1003L103.42 26.3639C103.342 26.8943 103.154 27.4715 102.919 27.7991C102.622 28.2047 102.215 28.3919 101.761 28.3919C101.088 28.3919 100.916 27.9551 100.916 27.4247C100.916 26.9255 101.088 26.6135 101.401 26.5667V26.4419C100.336 26.4419 99.9295 26.8943 99.9295 27.4559C99.9295 28.3139 100.916 28.6259 101.714 28.6259C103.123 28.6259 103.498 27.4247 103.67 26.2703L103.905 24.6947L106.034 18.8915Z" fill="white"/>
<rect x="0.5" y="0.5" width="116" height="38" rx="2.5" stroke="white"/>
</svg>
