<svg width="49" height="66" viewBox="0 0 49 66" fill="none" xmlns="http://www.w3.org/2000/svg">
<path d="M26.488 66C26.2701 66 26.0521 66 25.851 66C8.65309 65.5691 -1.57178 46.7735 7.21156 32.1547L26.5047 0L45.7979 32.1547C54.5645 46.7735 44.3396 65.5691 27.1584 66C26.9238 65.9834 26.7059 66 26.488 66Z" fill="#8C5222"/>
<path d="M14.4922 50C14.3518 50 14.2114 50 14.0818 50C2.99866 49.7192 -3.5907 37.4736 2.06967 27.9493L14.503 7L26.9364 27.9493C32.586 37.4736 25.9966 49.7192 14.9243 50C14.7731 49.9892 14.6327 50 14.4922 50Z" fill="#FFBD58" fill-opacity="0.54"/>
</svg>
