<svg width="397" height="404" viewBox="0 0 397 404" fill="none" xmlns="http://www.w3.org/2000/svg">
<path d="M392.253 202C392.253 182.594 389.447 163.294 383.926 144.721L198.274 202H392.253Z" fill="#413D57"/>
<path d="M4.30003 201.881C4.32809 154.519 21.0516 108.742 51.4254 72.8859C81.7992 37.03 123.803 13.4798 169.788 6.52373C215.774 -0.432387 262.682 9.66818 301.972 34.9862C341.261 60.3043 370.319 99.1559 383.853 144.466L198.278 202L4.30003 201.881Z" fill="#E0BB3B"/>
<path d="M392.253 202C392.253 227.952 387.235 253.65 377.487 277.626C367.739 301.602 353.45 323.387 335.438 341.738C317.425 360.089 296.041 374.645 272.507 384.577C248.972 394.508 223.748 399.619 198.274 399.619C172.801 399.619 147.577 394.508 124.042 384.577C100.508 374.645 79.1238 360.089 61.1112 341.738C43.0987 323.387 28.8104 301.602 19.0621 277.626C9.31377 253.649 4.29638 227.952 4.29639 202L198.274 202H392.253Z" fill="#C6F2EA"/>
<ellipse cx="198.956" cy="202.186" rx="147.863" ry="150.138" fill="#8C9AF6"/>
<path d="M181.1 21.375H182.868V30.7598H184.245V32.7812H182.868V37H180.846V32.7812H174.45L181.1 21.375ZM180.846 25.9355L177.966 30.7598H180.846V25.9355ZM190.339 25.5938C190.703 25.5156 191.084 25.4766 191.481 25.4766C192.21 25.4766 192.91 25.5938 193.581 25.8281C195.085 26.3424 196.205 27.293 196.94 28.6797C197.402 29.5391 197.634 30.4245 197.634 31.3359C197.634 31.9023 197.546 32.4688 197.37 33.0352C196.908 34.5456 195.983 35.6751 194.596 36.4238C193.75 36.873 192.874 37.0977 191.969 37.0977C191.397 37.0977 190.817 37.0065 190.231 36.8242C189.02 36.4531 187.972 35.6654 187.087 34.4609L188.512 32.8789C189.235 33.9466 190.01 34.6042 190.837 34.8516C191.214 34.9688 191.582 35.0273 191.94 35.0273C192.513 35.0273 193.073 34.8841 193.62 34.5977C194.512 34.1224 195.104 33.3997 195.397 32.4297C195.514 32.0586 195.573 31.6908 195.573 31.3262C195.573 30.7598 195.427 30.1999 195.134 29.6465C194.652 28.748 193.923 28.1296 192.946 27.791C192.523 27.6413 192.054 27.5664 191.54 27.5664C190.843 27.5664 189.951 27.7389 188.864 28.084L187.643 27.0195L189.401 22.166V21.375H195.124V23.3965H191.11L190.339 25.5938ZM210.26 24.4023L201.296 37.2051L199.635 36.0527L208.591 23.2598L210.26 24.4023ZM202.243 24.8418C202.985 24.8418 203.617 25.1055 204.137 25.6328C204.665 26.1536 204.928 26.7852 204.928 27.5273C204.928 28.2695 204.665 28.9043 204.137 29.4316C203.617 29.9525 202.985 30.2129 202.243 30.2129C201.501 30.2129 200.866 29.9525 200.339 29.4316C199.818 28.9043 199.557 28.2695 199.557 27.5273C199.557 26.7852 199.818 26.1536 200.339 25.6328C200.866 25.1055 201.501 24.8418 202.243 24.8418ZM202.243 26.8438C202.054 26.8438 201.891 26.9121 201.755 27.0488C201.624 27.179 201.559 27.3385 201.559 27.5273C201.559 27.7227 201.624 27.8887 201.755 28.0254C201.891 28.1556 202.054 28.2207 202.243 28.2207C202.432 28.2207 202.594 28.1556 202.731 28.0254C202.868 27.8887 202.936 27.7227 202.936 27.5273C202.936 27.3385 202.868 27.179 202.731 27.0488C202.594 26.9121 202.432 26.8438 202.243 26.8438ZM207.643 30.2422C208.392 30.2422 209.027 30.5059 209.548 31.0332C210.075 31.554 210.339 32.1855 210.339 32.9277C210.339 33.6764 210.075 34.3145 209.548 34.8418C209.027 35.3626 208.392 35.623 207.643 35.623C206.901 35.623 206.266 35.3626 205.739 34.8418C205.218 34.3145 204.958 33.6764 204.958 32.9277C204.958 32.1855 205.218 31.554 205.739 31.0332C206.266 30.5059 206.901 30.2422 207.643 30.2422ZM207.643 32.2441C207.455 32.2441 207.292 32.3125 207.155 32.4492C207.025 32.5794 206.96 32.7389 206.96 32.9277C206.96 33.123 207.025 33.2891 207.155 33.4258C207.292 33.556 207.455 33.6211 207.643 33.6211C207.832 33.6211 207.995 33.556 208.132 33.4258C208.268 33.2891 208.337 33.123 208.337 32.9277C208.337 32.7389 208.268 32.5794 208.132 32.4492C207.995 32.3125 207.832 32.2441 207.643 32.2441Z" fill="black"/>
<path d="M180.101 370.594C180.466 370.516 180.847 370.477 181.244 370.477C181.973 370.477 182.673 370.594 183.343 370.828C184.847 371.342 185.967 372.293 186.703 373.68C187.165 374.539 187.396 375.424 187.396 376.336C187.396 376.902 187.308 377.469 187.132 378.035C186.67 379.546 185.746 380.675 184.359 381.424C183.513 381.873 182.637 382.098 181.732 382.098C181.159 382.098 180.58 382.007 179.994 381.824C178.783 381.453 177.735 380.665 176.849 379.461L178.275 377.879C178.998 378.947 179.772 379.604 180.599 379.852C180.977 379.969 181.345 380.027 181.703 380.027C182.276 380.027 182.835 379.884 183.382 379.598C184.274 379.122 184.867 378.4 185.16 377.43C185.277 377.059 185.335 376.691 185.335 376.326C185.335 375.76 185.189 375.2 184.896 374.646C184.414 373.748 183.685 373.13 182.708 372.791C182.285 372.641 181.817 372.566 181.302 372.566C180.606 372.566 179.714 372.739 178.626 373.084L177.406 372.02L179.164 367.166V366.375H184.886V368.396H180.873L180.101 370.594ZM198.314 371.922C198.314 370.965 197.972 370.148 197.289 369.471C196.611 368.794 195.791 368.455 194.828 368.455C193.871 368.455 193.05 368.794 192.367 369.471C191.69 370.148 191.351 370.965 191.351 371.922V376.697C191.351 377.661 191.69 378.481 192.367 379.158C193.05 379.835 193.871 380.174 194.828 380.174C195.791 380.174 196.611 379.835 197.289 379.158C197.972 378.481 198.314 377.661 198.314 376.697V371.922ZM200.384 376.697C200.384 378.227 199.841 379.536 198.753 380.623C197.673 381.704 196.364 382.244 194.828 382.244C193.298 382.244 191.989 381.704 190.902 380.623C189.821 379.536 189.281 378.227 189.281 376.697V371.922C189.281 370.392 189.821 369.087 190.902 368.006C191.989 366.919 193.298 366.375 194.828 366.375C196.364 366.375 197.673 366.919 198.753 368.006C199.841 369.087 200.384 370.392 200.384 371.922V376.697ZM212.621 369.402L203.656 382.205L201.996 381.053L210.951 368.26L212.621 369.402ZM204.603 369.842C205.345 369.842 205.977 370.105 206.498 370.633C207.025 371.154 207.289 371.785 207.289 372.527C207.289 373.27 207.025 373.904 206.498 374.432C205.977 374.952 205.345 375.213 204.603 375.213C203.861 375.213 203.226 374.952 202.699 374.432C202.178 373.904 201.917 373.27 201.917 372.527C201.917 371.785 202.178 371.154 202.699 370.633C203.226 370.105 203.861 369.842 204.603 369.842ZM204.603 371.844C204.414 371.844 204.251 371.912 204.115 372.049C203.985 372.179 203.919 372.339 203.919 372.527C203.919 372.723 203.985 372.889 204.115 373.025C204.251 373.156 204.414 373.221 204.603 373.221C204.792 373.221 204.955 373.156 205.091 373.025C205.228 372.889 205.296 372.723 205.296 372.527C205.296 372.339 205.228 372.179 205.091 372.049C204.955 371.912 204.792 371.844 204.603 371.844ZM210.003 375.242C210.752 375.242 211.387 375.506 211.908 376.033C212.435 376.554 212.699 377.186 212.699 377.928C212.699 378.676 212.435 379.314 211.908 379.842C211.387 380.363 210.752 380.623 210.003 380.623C209.261 380.623 208.626 380.363 208.099 379.842C207.578 379.314 207.318 378.676 207.318 377.928C207.318 377.186 207.578 376.554 208.099 376.033C208.626 375.506 209.261 375.242 210.003 375.242ZM210.003 377.244C209.815 377.244 209.652 377.312 209.515 377.449C209.385 377.579 209.32 377.739 209.32 377.928C209.32 378.123 209.385 378.289 209.515 378.426C209.652 378.556 209.815 378.621 210.003 378.621C210.192 378.621 210.355 378.556 210.492 378.426C210.628 378.289 210.697 378.123 210.697 377.928C210.697 377.739 210.628 377.579 210.492 377.449C210.355 377.312 210.192 377.244 210.003 377.244Z" fill="black"/>
<path d="M358.749 171.594C359.113 171.516 359.494 171.477 359.891 171.477C360.621 171.477 361.32 171.594 361.991 171.828C363.495 172.342 364.615 173.293 365.35 174.68C365.813 175.539 366.044 176.424 366.044 177.336C366.044 177.902 365.956 178.469 365.78 179.035C365.318 180.546 364.393 181.675 363.007 182.424C362.16 182.873 361.285 183.098 360.38 183.098C359.807 183.098 359.227 183.007 358.641 182.824C357.43 182.453 356.382 181.665 355.497 180.461L356.923 178.879C357.645 179.947 358.42 180.604 359.247 180.852C359.624 180.969 359.992 181.027 360.35 181.027C360.923 181.027 361.483 180.884 362.03 180.598C362.922 180.122 363.514 179.4 363.807 178.43C363.925 178.059 363.983 177.691 363.983 177.326C363.983 176.76 363.837 176.2 363.544 175.646C363.062 174.748 362.333 174.13 361.356 173.791C360.933 173.641 360.464 173.566 359.95 173.566C359.253 173.566 358.361 173.739 357.274 174.084L356.053 173.02L357.811 168.166V167.375H363.534V169.396H359.52L358.749 171.594ZM378.671 170.402L369.706 183.205L368.046 182.053L377.001 169.26L378.671 170.402ZM370.653 170.842C371.395 170.842 372.027 171.105 372.548 171.633C373.075 172.154 373.339 172.785 373.339 173.527C373.339 174.27 373.075 174.904 372.548 175.432C372.027 175.952 371.395 176.213 370.653 176.213C369.911 176.213 369.276 175.952 368.749 175.432C368.228 174.904 367.968 174.27 367.968 173.527C367.968 172.785 368.228 172.154 368.749 171.633C369.276 171.105 369.911 170.842 370.653 170.842ZM370.653 172.844C370.464 172.844 370.302 172.912 370.165 173.049C370.035 173.179 369.969 173.339 369.969 173.527C369.969 173.723 370.035 173.889 370.165 174.025C370.302 174.156 370.464 174.221 370.653 174.221C370.842 174.221 371.005 174.156 371.141 174.025C371.278 173.889 371.346 173.723 371.346 173.527C371.346 173.339 371.278 173.179 371.141 173.049C371.005 172.912 370.842 172.844 370.653 172.844ZM376.053 176.242C376.802 176.242 377.437 176.506 377.958 177.033C378.485 177.554 378.749 178.186 378.749 178.928C378.749 179.676 378.485 180.314 377.958 180.842C377.437 181.363 376.802 181.623 376.053 181.623C375.311 181.623 374.677 181.363 374.149 180.842C373.628 180.314 373.368 179.676 373.368 178.928C373.368 178.186 373.628 177.554 374.149 177.033C374.677 176.506 375.311 176.242 376.053 176.242ZM376.053 178.244C375.865 178.244 375.702 178.312 375.565 178.449C375.435 178.579 375.37 178.739 375.37 178.928C375.37 179.123 375.435 179.289 375.565 179.426C375.702 179.556 375.865 179.621 376.053 179.621C376.242 179.621 376.405 179.556 376.542 179.426C376.678 179.289 376.747 179.123 376.747 178.928C376.747 178.739 376.678 178.579 376.542 178.449C376.405 178.312 376.242 178.244 376.053 178.244Z" fill="white"/>
</svg>
