<svg width="41" height="43" viewBox="0 0 41 43" fill="none" xmlns="http://www.w3.org/2000/svg">
<path d="M37.0667 23.5638L28.6191 23.7074L35.9308 28.0551L27.7582 25.8516L33.6544 32.0636L26.3644 27.6788L30.4109 35.2922L24.5437 29.0505L26.4391 37.5057L22.4312 29.87L22.0333 38.5332L20.1788 30.0705L17.5213 38.3054L17.9602 29.6422L13.2361 36.8347L15.9346 28.6147L9.49584 34.2301L14.2537 27.0623L6.57791 30.687L13.0432 25.1038L4.69934 26.4681L12.3945 22.883L4 21.8852L12.3511 20.563L4.53053 17.2775L12.9202 18.3174L6.25235 12.9892L14.056 16.3144L9.03765 9.33476L15.679 14.7001L12.679 6.58898L17.6636 13.5933L16.9088 4.9524L19.8677 13.0783L21.4087 4.54883L22.1249 13.1922L25.8507 5.40797L24.2663 13.9276L29.8996 7.46298L26.1377 15.2299L33.2613 10.5653L27.5942 17.0027L35.68 14.4847L28.5347 19.1121L36.9822 18.9265L28.8844 21.4024L37.0667 23.5638Z" fill="#E9E1CA" stroke="#8F454B" stroke-miterlimit="10"/>
</svg>
