<svg width="446" height="991" viewBox="0 0 446 991" fill="none" xmlns="http://www.w3.org/2000/svg">
<path d="M86.4978 495.818L85.9089 509.217C85.3935 513.659 84.6573 518.076 84.0438 522.518C83.4303 526.959 81.9825 531.229 80.9763 535.597C79.9702 539.965 78.1297 544.113 76.7064 548.358C68.217 570.582 54.418 590.391 36.5134 606.056C18.6089 621.722 -2.85712 632.767 -26.0118 638.23C-49.1664 643.693 -73.306 643.406 -96.3243 637.395C-119.343 631.384 -140.54 619.831 -158.068 603.745C-172.912 590.057 -184.753 573.436 -192.841 554.935C-200.937 536.278 -205.113 516.156 -205.111 495.818L-204.252 480.652C-203.614 475.744 -202.73 470.615 -201.945 465.634C-201.16 460.652 -199.344 455.818 -198.043 450.91C-196.743 446.002 -194.485 441.413 -192.669 436.701C-184.557 418.222 -172.709 401.62 -157.871 387.94C-143.185 374.575 -125.972 364.287 -107.245 357.682C-71.4553 345.396 -32.2982 347.444 2.01483 363.397C36.3278 379.351 63.1313 407.97 76.8046 443.253C78.2279 447.523 79.8231 451.719 81.0991 456.014C82.3752 460.308 83.2341 464.75 84.1666 469.119C85.0992 473.487 85.5164 477.953 86.0317 482.394L86.4978 495.818ZM82.8905 495.818C82.9065 469.565 75.1241 443.898 60.5304 422.074C45.9367 400.251 25.1894 383.254 0.920837 373.24C-23.3477 363.226 -50.0441 360.646 -75.7811 365.828C-101.518 371.01 -125.136 383.72 -143.638 402.345C-162.072 420.878 -174.612 444.45 -179.682 470.093C-184.752 495.736 -182.124 522.306 -172.13 546.46C-162.136 570.613 -145.222 591.271 -123.515 605.836C-101.809 620.4 -76.2802 628.219 -50.1408 628.309C-14.9299 628.368 18.8631 614.442 43.8092 589.592C68.7553 564.743 82.8125 531.004 82.8905 495.793V495.818Z" fill="#DEAF45"/>
<path d="M104.289 495.819C104.497 516.147 100.703 536.317 93.1237 555.181C89.3434 564.631 84.7535 573.736 79.4056 582.396C73.9568 591.066 67.6779 599.186 60.6573 606.641C46.1431 622.341 28.6669 635.015 9.23506 643.933C-10.1968 652.852 -31.2007 657.839 -52.5676 658.607C-73.9345 659.376 -95.2423 655.911 -115.265 648.412C-135.287 640.913 -153.629 629.527 -169.234 614.911C-177.254 607.295 -184.519 598.921 -190.927 589.905C-197.41 580.862 -202.882 571.135 -207.246 560.899C-216.162 540.377 -220.763 518.242 -220.763 495.868C-220.763 473.493 -216.162 451.358 -207.246 430.837C-198.315 410.472 -185.38 392.112 -169.209 376.849C-153.588 362.274 -135.246 350.925 -115.233 343.45C-95.2192 335.975 -73.9275 332.522 -52.5775 333.288C-31.2274 334.054 -10.2384 339.024 9.18802 347.914C28.6144 356.803 46.0966 369.438 60.6328 385.094C67.651 392.536 73.9223 400.649 79.3568 409.315C84.7132 417.974 89.311 427.079 93.0991 436.53C100.681 455.368 104.483 475.513 104.289 495.819ZM99.6757 495.819C99.7404 458.659 85.982 422.804 61.0761 395.227C36.1702 367.649 1.89735 350.321 -35.0765 346.612C-72.0504 342.903 -109.082 353.078 -138.97 375.159C-168.857 397.24 -189.463 429.648 -196.781 466.08C-204.098 502.511 -197.604 540.363 -178.561 572.272C-159.518 604.181 -129.287 627.866 -93.7488 638.722C-58.2103 649.578 -19.9046 646.827 13.7183 631.005C47.3412 615.184 73.8777 587.422 88.1666 553.12C95.7251 534.959 99.6357 515.489 99.6757 495.819Z" fill="#DEAF45"/>
<path d="M122.007 495.819C122.187 518.468 117.909 540.931 109.418 561.929C101.033 583.097 88.6615 602.458 72.976 618.96C52.6342 640.591 27.2278 656.818 -0.951935 666.176C-29.1316 675.535 -59.1978 677.731 -88.4383 672.566C-117.679 667.402 -145.174 655.039 -168.443 636.594C-191.712 618.149 -210.023 594.201 -221.725 566.911C-231.39 544.46 -236.375 520.274 -236.375 495.831C-236.375 471.388 -231.39 447.202 -221.725 424.751C-212.048 402.461 -198.004 382.335 -180.424 365.56C-163.322 349.379 -143.198 336.728 -121.203 328.329C-99.2079 319.931 -75.7729 315.951 -52.2385 316.617C-28.704 317.282 -5.53159 322.58 15.9538 332.208C37.4391 341.835 56.8158 355.604 72.976 372.726C80.8231 380.963 87.8578 389.937 93.9824 399.524C100.012 409.117 105.177 419.226 109.418 429.732C117.909 450.722 122.187 473.177 122.007 495.819ZM116.535 495.819C116.58 454.489 101.252 414.62 73.5332 383.964C45.814 353.309 7.68428 334.058 -33.4411 329.955C-74.5664 325.853 -115.748 337.192 -148.977 361.767C-182.206 386.343 -205.107 422.399 -213.227 462.922C-221.348 503.446 -214.107 545.542 -192.912 581.023C-171.718 616.504 -138.085 642.835 -98.5542 654.895C-59.0233 666.954 -16.4199 663.881 20.9708 646.272C58.3615 628.664 87.8668 597.779 103.749 559.623C112.165 539.402 116.509 517.72 116.535 495.819Z" fill="#DEAF45"/>
<path d="M139.651 495.818C139.807 520.772 135.045 545.513 125.639 568.628C116.337 591.898 102.63 613.154 85.2707 631.229C62.9151 654.664 35.0906 672.181 4.29437 682.208C-26.5019 692.235 -59.3059 694.458 -91.1735 688.678C-123.041 682.898 -152.975 669.296 -178.288 649.092C-203.601 628.888 -223.502 602.715 -236.203 572.922C-246.599 548.55 -251.958 522.327 -251.958 495.83C-251.958 469.333 -246.599 443.11 -236.203 418.738C-225.778 394.496 -210.619 372.579 -191.614 354.271C-163.433 327.353 -127.878 309.432 -89.4768 302.789C-51.0759 296.146 -11.5669 301.083 24.019 316.97C35.5542 322.163 46.5518 328.475 56.8535 335.817C67.0582 343.128 76.5852 351.341 85.3198 360.357C102.673 378.432 116.386 399.677 125.713 422.934C135.101 446.077 139.837 470.843 139.651 495.818ZM133.467 495.818C133.494 450.328 116.602 406.454 86.0753 372.728C55.5488 339.002 13.5699 317.834 -31.6975 313.341C-76.965 308.848 -122.285 321.352 -158.846 348.42C-195.406 375.487 -220.593 415.185 -229.508 459.793C-238.423 504.4 -230.43 550.73 -207.082 589.771C-183.734 628.812 -146.701 657.774 -103.184 671.026C-59.6675 684.278 -12.7774 680.871 28.3674 661.469C69.5121 642.067 101.97 608.057 119.43 566.051C128.693 543.792 133.487 519.928 133.541 495.818H133.467Z" fill="#DEAF45"/>
<path d="M157.198 495.818C157.289 551.32 135.637 604.65 96.8801 644.379C58.1234 684.108 5.34637 707.076 -50.1409 708.359C-92.7227 709.429 -134.642 697.663 -170.446 674.59C-206.251 651.516 -234.285 618.204 -250.903 578.984C-262.052 552.679 -267.798 524.401 -267.798 495.83C-267.798 467.26 -262.052 438.981 -250.903 412.676C-234.226 373.508 -206.181 340.244 -170.394 317.188C-134.607 294.132 -92.7246 282.345 -50.1655 283.35C5.2724 284.745 57.973 307.738 96.7039 347.427C135.435 387.116 157.133 440.363 157.173 495.818H157.198ZM150.474 495.818C150.481 446.127 132.008 398.208 98.646 361.381C65.2844 324.554 19.4189 301.45 -30.0314 296.562C-79.4818 291.674 -128.983 305.352 -168.909 334.935C-208.834 364.518 -236.331 407.892 -246.053 456.623C-255.774 505.355 -247.025 555.96 -221.506 598.598C-195.988 641.237 -155.524 672.861 -107.983 687.322C-60.4427 701.782 -9.22293 698.046 35.7158 676.839C80.6545 655.631 116.1 618.469 135.161 572.579C145.252 548.244 150.456 522.162 150.474 495.818Z" fill="#DEAF45"/>
<path d="M174.695 495.819C174.741 548.72 156.482 600.007 123.015 640.976C89.5482 681.945 42.9363 710.072 -8.90976 720.583C-60.7558 731.094 -114.642 723.341 -161.422 698.64C-208.202 673.939 -244.994 633.813 -265.553 585.071C-283.507 542.579 -288.227 495.658 -279.094 450.442C-269.961 405.225 -247.402 363.815 -214.363 331.622C-182.065 300.206 -141.225 279.005 -96.9464 270.669C-52.6678 262.332 -6.91443 267.23 34.5966 284.749C76.1077 302.268 111.535 331.632 136.452 369.172C161.369 406.712 174.671 450.762 174.695 495.819ZM167.578 495.819C167.587 441.856 147.527 389.818 111.298 349.824C75.0682 309.831 25.2597 284.741 -28.442 279.434C-82.1437 274.127 -135.9 288.982 -179.256 321.11C-222.613 353.239 -252.471 400.344 -263.024 453.265C-273.577 506.186 -264.071 561.141 -236.354 607.442C-208.637 653.744 -164.691 688.082 -113.061 703.779C-61.4312 719.476 -5.80878 715.41 42.9897 692.373C91.7882 669.335 130.274 628.972 150.964 579.132C161.902 552.716 167.547 524.41 167.578 495.819Z" fill="#DEAF45"/>
<path d="M192.093 495.819C192.275 527.703 186.166 559.309 174.114 588.828C162.062 618.347 144.305 645.198 121.86 667.844C99.4225 690.75 72.7537 709.085 43.332 721.832C-1.45816 741.041 -50.9456 746.51 -98.8493 737.544C-146.753 728.579 -190.913 705.583 -225.725 671.476C-248.985 648.534 -267.454 621.2 -280.06 591.059C-292.667 560.919 -299.158 528.575 -299.158 495.904C-299.158 463.234 -292.667 430.89 -280.06 400.749C-267.454 370.609 -248.985 343.275 -225.725 320.333C-190.893 286.233 -146.717 263.247 -98.8026 254.291C-50.8877 245.335 -1.39212 250.811 43.4057 270.026C72.8109 282.748 99.477 301.039 121.934 323.891C144.376 346.534 162.131 373.382 174.183 402.896C186.234 432.411 192.346 464.012 192.167 495.892L192.093 495.819ZM184.731 495.819C184.709 437.656 163.058 381.58 123.987 338.494C84.9163 295.409 31.2185 268.393 -26.6648 262.7C-84.5482 257.007 -142.48 273.044 -189.196 307.692C-235.912 342.341 -268.073 393.124 -279.426 450.168C-290.779 507.212 -280.512 566.44 -250.621 616.334C-220.731 666.228 -173.353 703.224 -117.701 720.127C-62.0482 737.029 -2.09842 732.631 50.4915 707.788C103.081 682.944 144.553 639.431 166.842 585.709C178.641 557.208 184.72 526.665 184.731 495.819Z" fill="#DEAF45"/>
<path d="M209.419 495.819C209.554 529.949 202.961 563.771 190.018 595.352C177.074 626.932 158.033 655.652 133.983 679.869C97.6503 716.797 51.197 742.141 0.480621 752.705C-50.2357 763.27 -102.944 758.581 -151 739.232C-183.172 726.319 -212.453 707.132 -237.136 682.79C-261.867 658.329 -281.502 629.206 -294.902 597.106C-308.302 565.006 -315.202 530.567 -315.202 495.783C-315.202 460.998 -308.302 426.559 -294.902 394.459C-281.502 362.359 -261.867 333.236 -237.136 308.775C-200.323 272.337 -153.541 247.619 -102.695 237.74C-51.8484 227.862 0.78479 233.265 48.5634 253.269C96.342 273.273 137.125 306.981 165.766 350.14C194.407 393.298 209.622 443.973 209.492 495.77L209.419 495.819ZM202.057 495.819C202.025 433.387 178.776 373.197 136.831 326.954C94.8859 280.711 37.2425 251.72 -24.891 245.617C-87.0244 239.514 -149.207 256.737 -199.348 293.935C-249.488 331.134 -284.003 385.65 -296.181 446.883C-308.359 508.116 -297.33 571.69 -265.239 625.243C-233.147 678.796 -182.286 718.501 -122.545 736.636C-62.805 754.772 1.54498 750.043 57.9921 723.368C114.439 696.693 158.949 649.98 182.867 592.311C195.5 561.71 201.995 528.925 201.983 495.819H202.057Z" fill="#DEAF45"/>
<path d="M226.793 495.819C226.904 532.215 219.841 568.275 206.009 601.939C192.177 635.604 171.846 666.213 146.179 692.016C107.433 731.214 57.948 758.06 3.96432 769.171C-50.0193 780.281 -106.084 775.157 -157.16 754.446C-191.28 740.631 -222.318 720.178 -248.473 694.274C-274.846 668.463 -295.837 637.678 -310.233 603.701C-324.629 569.724 -332.144 533.229 -332.342 496.328C-332.539 459.427 -325.417 422.853 -311.387 388.723C-297.356 354.594 -276.696 323.585 -250.602 297.493C-224.508 271.4 -193.498 250.743 -159.367 236.714C-125.237 222.686 -88.6628 215.566 -51.762 215.766C-14.8613 215.966 21.6333 223.483 55.6098 237.881C89.5862 252.279 120.37 273.272 146.179 299.646C171.848 325.444 192.18 356.048 206.012 389.709C219.844 423.37 226.906 459.427 226.793 495.819ZM219.431 495.819C219.43 429.012 194.58 364.593 149.716 315.092C104.852 265.59 43.18 234.544 -23.3052 227.992C-89.7905 221.441 -156.336 239.851 -210 279.643C-263.664 319.435 -300.609 377.764 -313.651 443.286C-326.693 508.808 -314.899 576.839 -280.563 634.147C-246.227 691.455 -191.803 733.944 -127.877 753.351C-63.9502 772.757 4.90918 767.693 65.3092 739.144C125.709 710.595 173.332 660.602 198.916 598.887C212.449 566.21 219.42 531.188 219.431 495.819Z" fill="#DEAF45"/>
<path d="M243.824 495.818C243.88 554.193 226.638 611.275 194.274 659.856C161.91 708.438 115.877 746.34 61.9863 768.777C8.09592 791.214 -51.2343 797.179 -108.512 785.919C-165.791 774.659 -218.448 746.679 -259.835 705.512C-290.928 674.662 -314.778 637.288 -329.662 596.094C-344.546 554.899 -350.092 510.913 -345.899 467.313C-341.706 423.713 -327.879 381.589 -305.417 343.986C-282.955 306.383 -252.419 274.24 -216.017 249.881C-179.615 225.521 -138.255 209.553 -94.9274 203.131C-51.5998 196.709 -7.38666 199.993 34.5166 212.746C76.4198 225.499 114.966 247.403 147.37 276.874C179.774 306.344 205.225 342.646 221.885 383.155C236.509 418.909 243.963 457.189 243.824 495.818ZM236.707 495.818C236.667 424.74 210.193 356.217 162.435 303.574C114.677 250.932 49.0469 217.932 -21.6917 210.992C-92.4304 204.052 -163.222 223.669 -220.3 266.027C-277.378 308.385 -316.663 370.457 -330.516 440.172C-344.369 509.887 -331.799 582.263 -295.251 643.225C-258.703 704.187 -200.789 749.378 -132.771 770.009C-64.7526 790.641 8.50757 785.239 72.7639 754.854C137.02 724.469 187.68 671.273 214.891 605.61C229.254 570.789 236.633 533.485 236.609 495.818H236.707Z" fill="#DEAF45"/>
<path d="M260.928 495.819C260.703 573.012 231.775 647.362 179.77 704.409C127.766 761.456 56.403 797.121 -20.4398 804.469C-97.2825 811.817 -174.112 790.322 -235.985 744.165C-297.858 698.008 -340.352 630.488 -355.203 554.736C-370.054 478.985 -356.199 400.418 -316.334 334.315C-276.469 268.213 -213.444 219.3 -139.515 197.089C-65.5854 174.879 13.962 180.96 83.6566 214.148C153.351 247.336 208.211 305.259 237.566 376.653C253.087 414.461 261.025 454.95 260.928 495.819ZM254.205 495.819C254.192 420.332 226.103 347.547 175.402 291.62C124.7 235.694 55.0101 200.624 -20.1147 193.232C-95.2396 185.839 -170.429 206.653 -231.059 251.623C-291.689 296.594 -333.426 362.508 -348.152 436.545C-362.878 510.583 -349.542 587.451 -310.735 652.2C-271.929 716.949 -210.427 764.951 -138.192 786.869C-65.956 808.787 11.8499 803.055 80.0937 770.787C148.337 738.52 202.14 682.023 231.039 612.286C246.334 575.362 254.206 535.786 254.205 495.819Z" fill="#DEAF45"/>
<path d="M240.98 646.279C203.451 718.463 140.417 774.109 64.1357 802.396C-12.1455 830.683 -96.2206 829.588 -171.739 799.325C-247.258 769.062 -308.823 711.794 -344.46 638.658C-380.097 565.521 -387.26 481.745 -364.555 403.62C-341.851 325.496 -290.901 258.607 -221.616 215.964C-152.33 173.32 -69.6614 157.969 10.3145 172.896C90.2903 187.824 161.856 231.962 211.094 296.727C260.332 361.493 283.723 442.256 276.718 523.31C272.979 566.246 260.836 608.028 240.98 646.279ZM235.487 643.439C272.139 572.557 281.118 490.577 260.679 413.442C240.24 336.307 191.844 269.53 124.902 226.098C57.9597 182.666 -22.7428 165.683 -101.512 178.452C-180.281 191.221 -251.485 232.828 -301.279 295.184C-351.072 357.539 -375.895 436.185 -370.919 515.827C-365.944 595.469 -331.526 670.414 -274.359 726.087C-217.192 781.761 -141.363 814.183 -61.6171 817.05C18.1286 819.916 96.0898 793.021 157.106 741.595C189.415 714.33 216.047 680.979 235.487 643.439Z" fill="#DEAF45"/>
<path d="M198.329 734.595C138.938 796.212 58.7519 833.537 -26.6335 839.311C-112.019 845.085 -196.5 818.896 -263.647 765.837C-330.793 712.777 -375.806 636.64 -389.93 552.234C-404.054 467.827 -386.28 381.184 -340.065 309.155C-293.849 237.126 -222.496 184.861 -139.883 162.523C-57.2689 140.185 30.6998 149.373 106.915 188.298C183.131 227.223 242.145 293.103 272.481 373.127C302.817 453.15 302.305 541.596 271.046 621.263C254.475 663.444 229.767 701.953 198.329 734.595ZM194.384 730.803C252.678 670.094 286.31 589.875 288.739 505.745C291.168 421.615 262.222 339.588 207.528 275.617C152.834 211.646 76.3026 170.302 -7.18269 159.627C-90.668 148.952 -175.139 169.708 -244.17 217.859C-313.201 266.01 -361.856 338.114 -380.674 420.148C-399.492 502.182 -387.127 588.283 -345.985 661.707C-304.842 735.131 -237.862 790.628 -158.071 817.407C-78.2792 844.186 8.61972 840.332 85.727 806.594C126.563 788.695 163.482 762.944 194.384 730.803Z" fill="#DEAF45"/>
<path d="M260.523 680.818C214.498 757.797 141.49 814.907 55.6946 841.043C-30.1007 867.179 -122.55 860.473 -203.675 822.229C-284.801 783.985 -348.804 716.936 -383.237 634.122C-417.671 551.307 -420.074 458.646 -389.979 374.158C-359.885 289.669 -299.445 219.393 -220.411 176.995C-141.377 134.597 -49.3997 123.107 37.6352 144.761C124.67 166.414 200.541 219.663 250.494 294.152C300.447 368.641 320.912 459.046 307.908 547.787C300.998 594.811 284.897 640.015 260.523 680.818ZM256.56 678.456C301.884 602.362 317.288 512.131 299.775 425.311C282.263 338.49 233.086 261.286 161.808 208.712C90.5308 156.138 2.24735 131.953 -85.8729 140.859C-173.993 149.766 -255.651 191.128 -314.967 256.901C-374.283 322.674 -407.017 408.157 -406.802 496.726C-406.588 585.295 -373.441 670.619 -313.807 736.104C-254.173 801.589 -172.316 842.555 -84.1532 851.035C4.00913 859.514 92.1742 834.902 163.196 781.984C200.803 753.927 232.526 718.751 256.56 678.456Z" fill="#DEAF45"/>
<path d="M299.086 641.773C262.786 728.324 195.594 798.282 110.577 838.041C25.5587 877.8 -71.2076 884.519 -160.904 856.891C-250.601 829.263 -326.817 769.264 -374.731 688.56C-422.644 607.856 -438.83 512.217 -420.141 420.241C-401.452 328.265 -349.224 246.527 -273.614 190.922C-198.003 135.318 -104.415 109.821 -11.0487 119.39C82.3176 128.96 168.788 172.911 231.546 242.698C294.305 312.485 328.866 403.118 328.509 496.972C328.298 546.702 318.3 595.904 299.086 641.773ZM295.759 640.38C331.613 554.591 334.279 458.534 303.238 370.888C272.198 283.242 209.67 210.274 127.814 166.173C45.958 122.073 -49.3743 109.992 -139.643 132.281C-229.912 154.57 -308.665 209.634 -360.586 286.767C-412.508 363.899 -433.886 457.586 -420.564 549.606C-407.242 641.627 -360.172 725.404 -288.508 784.645C-216.843 843.885 -125.708 874.355 -32.8238 870.129C60.06 865.903 148.052 827.282 214.04 761.778C248.992 727.073 276.775 685.83 295.804 640.399L295.759 640.38Z" fill="#DEAF45"/>
<path d="M-50.1407 889.955C167.535 889.955 343.996 713.494 343.996 495.819C343.996 278.143 167.535 101.682 -50.1407 101.682C-267.816 101.682 -444.278 278.143 -444.278 495.819C-444.278 713.494 -267.816 889.955 -50.1407 889.955Z" stroke="#DEAF45" stroke-miterlimit="10"/>
</svg>
