<svg width="24" height="24" viewBox="0 0 24 24" fill="none" xmlns="http://www.w3.org/2000/svg">
<path d="M20.0002 0H3.99995C2.93906 0 1.92172 0.421371 1.17154 1.17154C0.421372 1.92171 0 2.93906 0 3.99994V20.0002C0 21.0611 0.421372 22.0785 1.17154 22.8286C1.92172 23.5788 2.93906 24.0002 3.99995 24.0002H20.0002C21.0611 24.0002 22.0785 23.5788 22.8286 22.8286C23.5788 22.0785 24.0002 21.0611 24.0002 20.0002V3.99994C24.0002 2.93906 23.5788 1.92171 22.8286 1.17154C22.0785 0.421371 21.0611 0 20.0002 0V0ZM22.0003 20.0001H22.0001C22.0001 20.5305 21.7895 21.0393 21.4144 21.4143C21.0394 21.7894 20.5306 22 20.0002 22H3.99995C3.46959 22 2.96083 21.7894 2.58583 21.4143C2.21067 21.0393 2.00006 20.5305 2.00006 20.0001V3.99986C2.00006 3.4695 2.21067 2.96074 2.58583 2.58574C2.96083 2.21058 3.46959 1.99997 3.99995 1.99997H20.0002C20.5306 1.99997 21.0394 2.21058 21.4144 2.58574C21.7895 2.96074 22.0001 3.4695 22.0001 3.99986L22.0003 20.0001Z" fill="white"/>
<path d="M12 6C10.4088 6 8.88266 6.63214 7.75732 7.75731C6.63214 8.88265 6 10.4087 6 12C6 13.5912 6.63214 15.1173 7.75732 16.2427C8.88266 17.3678 10.4088 18 12 18C13.5913 18 15.1174 17.3678 16.2427 16.2427C17.3679 15.1173 18 13.5912 18 12C18 10.4087 17.3679 8.88265 16.2427 7.75731C15.1174 6.63214 13.5913 6 12 6ZM12 15.9998C10.9391 15.9998 9.92178 15.5785 9.1716 14.8283C8.42143 14.0781 8.00006 13.0608 8.00006 11.9999C8.00006 10.939 8.42143 9.92168 9.1716 9.17151C9.92178 8.42134 10.9391 7.99997 12 7.99997C13.0609 7.99997 14.0782 8.42134 14.8284 9.17151C15.5786 9.92168 16 10.939 16 11.9999C16 13.0608 15.5786 14.0781 14.8284 14.8283C14.0782 15.5785 13.0609 15.9998 12 15.9998Z" fill="white"/>
<path d="M20.0001 5.5C20.0001 6.32851 19.3284 7 18.5 7C17.6715 7 17 6.32851 17 5.5C17 4.67166 17.6715 4 18.5 4C19.3284 4 20.0001 4.67166 20.0001 5.5Z" fill="white"/>
</svg>
