<svg width="135" height="25" viewBox="0 0 135 25" fill="none" xmlns="http://www.w3.org/2000/svg">
<path d="M10.4497 14.9663H8.9027C9.13622 15.7759 9.25297 16.4988 9.25297 17.1639V25H0V1H9.25297V7.04337C9.25297 8.14217 9.10703 9.15422 8.81514 10.1084H10.4497L16.6086 1H26.5622L19.7611 10.3976C19.0605 11.4675 18.1849 12.1614 17.1632 12.5084V12.653C17.6011 12.7976 18.0973 13.0867 18.7103 13.5783C19.3232 14.041 19.7903 14.5325 20.1114 15.0241L27 25H16.6962L10.4497 14.9663Z" fill="#2455C5"/>
<path d="M39.2716 1V17.7651C39.2716 18.1429 39.4471 18.4625 39.7688 18.6949C40.0905 18.9274 40.5292 19.0436 41.085 19.0436H51L50.9708 25C50.9708 25 43.3663 25 36.6978 25C34.5919 25 33.2173 24.7966 31.9304 23.7797C30.6435 22.7337 30 21.3971 30 19.7119V1H39.2716Z" fill="#2455C5"/>
<path d="M71.6777 19.8308H63.3223L61.7783 25H52L59.9316 2.95976C60.1436 2.39171 60.5371 1.90887 61.1123 1.53964C61.6875 1.17041 62.3838 1 63.1406 1H71.8594C72.6162 1 73.3125 1.17041 73.8877 1.53964C74.4629 1.90887 74.8867 2.36332 75.0684 2.95976L83 25H73.2217L71.6777 19.8308ZM70.1338 14.5479C70.1338 14.5479 68.1963 7.39053 68.1055 6.65207H66.9248C66.7432 7.73136 64.8965 14.5479 64.8965 14.5479H70.1338Z" fill="#2455C5"/>
<path d="M107.939 6.74039H99.3851V25H89.7692V6.74039L85.9167 6.65384C85.9167 6.65384 82.6103 6.65385 81.1239 5.03847C79.9105 3.74039 80.0015 1 80.0015 1H108V6.74039H107.939Z" fill="#2455C5"/>
<path d="M133.434 21.2257C134.498 22.6663 135 25 135 25H110V19.6122L122.884 6.38775H114.108C114.108 6.38775 113.221 6.503 112.069 5.66747C109.704 3.96759 110.443 1 110.443 1H133.286V6.38775L120.402 19.6122H129.592C129.592 19.5834 132.252 19.6122 133.434 21.2257Z" fill="#2455C5"/>
</svg>
