<svg width="730" height="752" viewBox="0 0 730 752" fill="none" xmlns="http://www.w3.org/2000/svg">
<path d="M212 212V0L0 0V212H212Z" fill="#8AC6D2"/>
<path d="M730 494V752H472V694.131C472 667.854 477.176 641.835 487.233 617.558C497.289 593.282 512.029 571.224 530.61 552.644C549.192 534.063 571.252 519.324 595.53 509.269C619.809 499.213 645.83 494.038 672.108 494.038H729.981L730 494Z" fill="#11A858"/>
<path d="M200.676 752L729.361 202.785L728.646 202.065H730V0H529.399V1.36396L528.685 0.644113L0.357313 549.518H0V751.583H200.262L200.676 752Z" fill="#FFC700"/>
</svg>
