<svg width="277" height="276" viewBox="0 0 277 276" fill="none" xmlns="http://www.w3.org/2000/svg">
<path d="M-17 72V2H74.2561C104.17 2 128.423 17.6383 128.423 37C128.423 56.3245 152.668 72 182.59 72H275V2" stroke="#FFEC42" stroke-width="3" stroke-miterlimit="10"/>
<path d="M-17 84V15H74.2561C104.17 15 128.423 30.4516 128.423 49.5C128.423 68.5851 152.668 84 182.59 84H275V15" stroke="#FFEC42" stroke-width="3" stroke-miterlimit="10"/>
<path d="M-17 97V28H74.2561C104.17 28 128.423 43.4149 128.423 62.5C128.423 81.5851 152.668 97 182.59 97H275V28" stroke="#FFEC42" stroke-width="3" stroke-miterlimit="10"/>
<path d="M-17 110V40H74.2561C104.17 40 128.423 55.6383 128.423 75C128.423 94.3617 152.668 110 182.59 110H275V40" stroke="#FFEC42" stroke-width="3" stroke-miterlimit="10"/>
<path d="M-17 122V53H74.2561C104.17 53 128.423 68.4149 128.423 87.5C128.423 106.585 152.668 122 182.59 122H275V53" stroke="#FFEC42" stroke-width="3" stroke-miterlimit="10"/>
<path d="M-17 135V66H74.2561C104.17 66 128.423 81.4149 128.423 100.5C128.423 119.585 152.668 135 182.59 135H275V66" stroke="#FFEC42" stroke-width="3" stroke-miterlimit="10"/>
<path d="M-17 148V78H74.2561C104.17 78 128.423 93.6383 128.423 113C128.423 132.362 152.668 148 182.59 148H275V78" stroke="#FFEC42" stroke-width="3" stroke-miterlimit="10"/>
<path d="M-17 160V91H74.2561C104.17 91 128.423 106.452 128.423 125.5C128.423 144.585 152.668 160 182.59 160H275V91" stroke="#FFEC42" stroke-width="3" stroke-miterlimit="10"/>
<path d="M-17 173V103H74.2561C104.17 103 128.423 118.638 128.423 138C128.423 157.362 152.668 173 182.59 173H275V103" stroke="#FFEC42" stroke-width="3" stroke-miterlimit="10"/>
<path d="M-17 185V116H74.2561C104.17 116 128.423 131.452 128.423 150.5C128.423 169.585 152.668 185 182.59 185H275V116" stroke="#FFEC42" stroke-width="3" stroke-miterlimit="10"/>
<path d="M-17 198V129H74.2561C104.17 129 128.423 144.415 128.423 163.5C128.423 182.585 152.668 198 182.59 198H275V129" stroke="#FFEC42" stroke-width="3" stroke-miterlimit="10"/>
<path d="M-17 211V141H74.2561C104.17 141 128.423 156.638 128.423 176C128.423 195.362 152.668 211 182.59 211H275V141" stroke="#FFEC42" stroke-width="3" stroke-miterlimit="10"/>
<path d="M-17 223V154H74.2561C104.17 154 128.423 169.415 128.423 188.5C128.423 207.585 152.668 223 182.59 223H275V154" stroke="#FFEC42" stroke-width="3" stroke-miterlimit="10"/>
<path d="M-17 236V166H74.2561C104.17 166 128.423 181.638 128.423 201C128.423 220.362 152.668 236 182.59 236H275V166" stroke="#FFEC42" stroke-width="3" stroke-miterlimit="10"/>
<path d="M-17 248V179H74.2561C104.17 179 128.423 194.415 128.423 213.5C128.423 232.585 152.668 248 182.59 248H275V179" stroke="#FFEC42" stroke-width="3" stroke-miterlimit="10"/>
<path d="M-17 261V192H74.2561C104.17 192 128.423 207.415 128.423 226.5C128.423 245.585 152.668 261 182.59 261H275V192" stroke="#FFEC42" stroke-width="3" stroke-miterlimit="10"/>
<path d="M-17 274V204H74.2561C104.17 204 128.423 219.638 128.423 239C128.423 258.362 152.668 274 182.59 274H275V204" stroke="#FFEC42" stroke-width="3" stroke-miterlimit="10"/>
<path d="M54.6432 268C67.2328 268 77.4387 258.598 77.4387 247C77.4387 235.402 67.2328 226 54.6432 226C42.0536 226 31.8477 235.402 31.8477 247C31.8477 258.598 42.0536 268 54.6432 268Z" fill="#FFB4A0"/>
<path d="M207.156 52C219.446 52 229.409 42.8218 229.409 31.5C229.409 20.1782 219.446 11 207.156 11C194.866 11 184.903 20.1782 184.903 31.5C184.903 42.8218 194.866 52 207.156 52Z" fill="#FFB4A0"/>
</svg>
