<svg width="1416" height="601" viewBox="0 0 1416 601" fill="none" xmlns="http://www.w3.org/2000/svg">
<path d="M1415.1 5.49609H1408.1V0H1407V5.49609H1400V6.28125H1407V11.7773H1408.1V6.28125H1415.1V5.49609Z" fill="#AB659C" fill-opacity="0.35"/>
<path d="M1415.1 44.7617H1408.1V39.2656H1407V44.7617H1400V45.5469H1407V51.043H1408.1V45.5469H1415.1V44.7617Z" fill="#AB659C" fill-opacity="0.35"/>
<path d="M1415.1 84.0254H1408.1V78.5293H1407V84.0254H1400V84.8105H1407V90.3066H1408.1V84.8105H1415.1V84.0254Z" fill="#AB659C" fill-opacity="0.35"/>
<path d="M1415.1 123.29H1408.1V117.793H1407V123.29H1400V124.075H1407V129.572H1408.1V124.075H1415.1V123.29Z" fill="#AB659C" fill-opacity="0.35"/>
<path d="M1415.1 162.555H1408.1V157.059H1407V162.555H1400V163.34H1407V168.836H1408.1V163.34H1415.1V162.555Z" fill="#AB659C" fill-opacity="0.35"/>
<path d="M1415.1 201.818H1408.1V196.322H1407V201.818H1400V202.604H1407V208.1H1408.1V202.604H1415.1V201.818Z" fill="#AB659C" fill-opacity="0.35"/>
<path d="M1415.1 241.084H1408.1V235.588H1407V241.084H1400V241.869H1407V247.365H1408.1V241.869H1415.1V241.084Z" fill="#AB659C" fill-opacity="0.35"/>
<path d="M1415.1 280.348H1408.1V274.852H1407V280.348H1400V281.133H1407V286.629H1408.1V281.133H1415.1V280.348Z" fill="#AB659C" fill-opacity="0.35"/>
<path d="M1415.1 319.613H1408.1V314.117H1407V319.613H1400V320.398H1407V325.895H1408.1V320.398H1415.1V319.613Z" fill="#AB659C" fill-opacity="0.35"/>
<path d="M1415.1 358.876H1408.1V353.379H1407V358.876H1400V359.661H1407V365.158H1408.1V359.661H1415.1V358.876Z" fill="#AB659C" fill-opacity="0.35"/>
<path d="M1415.1 398.143H1408.1V392.646H1407V398.143H1400V398.928H1407V404.424H1408.1V398.928H1415.1V398.143Z" fill="#AB659C" fill-opacity="0.35"/>
<path d="M1415.1 437.406H1408.1V431.91H1407V437.406H1400V438.191H1407V443.688H1408.1V438.191H1415.1V437.406Z" fill="#AB659C" fill-opacity="0.35"/>
<path d="M1415.1 476.67H1408.1V471.172H1407V476.67H1400V477.455H1407V482.953H1408.1V477.455H1415.1V476.67Z" fill="#AB659C" fill-opacity="0.35"/>
<path d="M1415.1 515.935H1408.1V510.438H1407V515.935H1400V516.72H1407V522.217H1408.1V516.72H1415.1V515.935Z" fill="#AB659C" fill-opacity="0.35"/>
<path d="M1415.1 555.198H1408.1V549.701H1407V555.198H1400V555.983H1407V561.48H1408.1V555.983H1415.1V555.198Z" fill="#AB659C" fill-opacity="0.35"/>
<path d="M1415.1 594.464H1408.1V588.967H1407V594.464H1400V595.249H1407V600.746H1408.1V595.249H1415.1V594.464Z" fill="#AB659C" fill-opacity="0.35"/>
<path d="M1365.1 5.49609H1358.1V0H1357V5.49609H1350V6.28125H1357V11.7773H1358.1V6.28125H1365.1V5.49609Z" fill="#AB659C" fill-opacity="0.35"/>
<path d="M1365.1 44.7617H1358.1V39.2656H1357V44.7617H1350V45.5469H1357V51.043H1358.1V45.5469H1365.1V44.7617Z" fill="#AB659C" fill-opacity="0.35"/>
<path d="M1365.1 84.0254H1358.1V78.5293H1357V84.0254H1350V84.8105H1357V90.3066H1358.1V84.8105H1365.1V84.0254Z" fill="#AB659C" fill-opacity="0.35"/>
<path d="M1365.1 123.29H1358.1V117.793H1357V123.29H1350V124.075H1357V129.572H1358.1V124.075H1365.1V123.29Z" fill="#AB659C" fill-opacity="0.35"/>
<path d="M1365.1 162.555H1358.1V157.059H1357V162.555H1350V163.34H1357V168.836H1358.1V163.34H1365.1V162.555Z" fill="#AB659C" fill-opacity="0.35"/>
<path d="M1365.1 201.818H1358.1V196.322H1357V201.818H1350V202.604H1357V208.1H1358.1V202.604H1365.1V201.818Z" fill="#AB659C" fill-opacity="0.35"/>
<path d="M1365.1 241.084H1358.1V235.588H1357V241.084H1350V241.869H1357V247.365H1358.1V241.869H1365.1V241.084Z" fill="#AB659C" fill-opacity="0.35"/>
<path d="M1365.1 280.348H1358.1V274.852H1357V280.348H1350V281.133H1357V286.629H1358.1V281.133H1365.1V280.348Z" fill="#AB659C" fill-opacity="0.35"/>
<path d="M1365.1 319.613H1358.1V314.117H1357V319.613H1350V320.398H1357V325.895H1358.1V320.398H1365.1V319.613Z" fill="#AB659C" fill-opacity="0.35"/>
<path d="M1365.1 358.876H1358.1V353.379H1357V358.876H1350V359.661H1357V365.158H1358.1V359.661H1365.1V358.876Z" fill="#AB659C" fill-opacity="0.35"/>
<path d="M1365.1 398.143H1358.1V392.646H1357V398.143H1350V398.928H1357V404.424H1358.1V398.928H1365.1V398.143Z" fill="#AB659C" fill-opacity="0.35"/>
<path d="M1365.1 437.406H1358.1V431.91H1357V437.406H1350V438.191H1357V443.688H1358.1V438.191H1365.1V437.406Z" fill="#AB659C" fill-opacity="0.35"/>
<path d="M1365.1 476.67H1358.1V471.172H1357V476.67H1350V477.455H1357V482.953H1358.1V477.455H1365.1V476.67Z" fill="#AB659C" fill-opacity="0.35"/>
<path d="M1365.1 515.935H1358.1V510.438H1357V515.935H1350V516.72H1357V522.217H1358.1V516.72H1365.1V515.935Z" fill="#AB659C" fill-opacity="0.35"/>
<path d="M1365.1 555.198H1358.1V549.701H1357V555.198H1350V555.983H1357V561.48H1358.1V555.983H1365.1V555.198Z" fill="#AB659C" fill-opacity="0.35"/>
<path d="M1365.1 594.464H1358.1V588.967H1357V594.464H1350V595.249H1357V600.746H1358.1V595.249H1365.1V594.464Z" fill="#AB659C" fill-opacity="0.35"/>
<path d="M1315.1 5.49609H1308.1V0H1307V5.49609H1300V6.28125H1307V11.7773H1308.1V6.28125H1315.1V5.49609Z" fill="#AB659C" fill-opacity="0.35"/>
<path d="M1315.1 44.7617H1308.1V39.2656H1307V44.7617H1300V45.5469H1307V51.043H1308.1V45.5469H1315.1V44.7617Z" fill="#AB659C" fill-opacity="0.35"/>
<path d="M1315.1 84.0254H1308.1V78.5293H1307V84.0254H1300V84.8105H1307V90.3066H1308.1V84.8105H1315.1V84.0254Z" fill="#AB659C" fill-opacity="0.35"/>
<path d="M1315.1 123.29H1308.1V117.793H1307V123.29H1300V124.075H1307V129.572H1308.1V124.075H1315.1V123.29Z" fill="#AB659C" fill-opacity="0.35"/>
<path d="M1315.1 162.555H1308.1V157.059H1307V162.555H1300V163.34H1307V168.836H1308.1V163.34H1315.1V162.555Z" fill="#AB659C" fill-opacity="0.35"/>
<path d="M1315.1 201.818H1308.1V196.322H1307V201.818H1300V202.604H1307V208.1H1308.1V202.604H1315.1V201.818Z" fill="#AB659C" fill-opacity="0.35"/>
<path d="M1315.1 241.084H1308.1V235.588H1307V241.084H1300V241.869H1307V247.365H1308.1V241.869H1315.1V241.084Z" fill="#AB659C" fill-opacity="0.35"/>
<path d="M1315.1 280.348H1308.1V274.852H1307V280.348H1300V281.133H1307V286.629H1308.1V281.133H1315.1V280.348Z" fill="#AB659C" fill-opacity="0.35"/>
<path d="M1315.1 319.613H1308.1V314.117H1307V319.613H1300V320.398H1307V325.895H1308.1V320.398H1315.1V319.613Z" fill="#AB659C" fill-opacity="0.35"/>
<path d="M1315.1 358.876H1308.1V353.379H1307V358.876H1300V359.661H1307V365.158H1308.1V359.661H1315.1V358.876Z" fill="#AB659C" fill-opacity="0.35"/>
<path d="M1315.1 398.143H1308.1V392.646H1307V398.143H1300V398.928H1307V404.424H1308.1V398.928H1315.1V398.143Z" fill="#AB659C" fill-opacity="0.35"/>
<path d="M1315.1 437.406H1308.1V431.91H1307V437.406H1300V438.191H1307V443.688H1308.1V438.191H1315.1V437.406Z" fill="#AB659C" fill-opacity="0.35"/>
<path d="M1315.1 476.67H1308.1V471.172H1307V476.67H1300V477.455H1307V482.953H1308.1V477.455H1315.1V476.67Z" fill="#AB659C" fill-opacity="0.35"/>
<path d="M1315.1 515.935H1308.1V510.438H1307V515.935H1300V516.72H1307V522.217H1308.1V516.72H1315.1V515.935Z" fill="#AB659C" fill-opacity="0.35"/>
<path d="M1315.1 555.198H1308.1V549.701H1307V555.198H1300V555.983H1307V561.48H1308.1V555.983H1315.1V555.198Z" fill="#AB659C" fill-opacity="0.35"/>
<path d="M1315.1 594.464H1308.1V588.967H1307V594.464H1300V595.249H1307V600.746H1308.1V595.249H1315.1V594.464Z" fill="#AB659C" fill-opacity="0.35"/>
<path d="M1265.1 5.49609H1258.1V0H1257V5.49609H1250V6.28125H1257V11.7773H1258.1V6.28125H1265.1V5.49609Z" fill="#AB659C" fill-opacity="0.35"/>
<path d="M1265.1 44.7617H1258.1V39.2656H1257V44.7617H1250V45.5469H1257V51.043H1258.1V45.5469H1265.1V44.7617Z" fill="#AB659C" fill-opacity="0.35"/>
<path d="M1265.1 84.0254H1258.1V78.5293H1257V84.0254H1250V84.8105H1257V90.3066H1258.1V84.8105H1265.1V84.0254Z" fill="#AB659C" fill-opacity="0.35"/>
<path d="M1265.1 123.29H1258.1V117.793H1257V123.29H1250V124.075H1257V129.572H1258.1V124.075H1265.1V123.29Z" fill="#AB659C" fill-opacity="0.35"/>
<path d="M1265.1 162.555H1258.1V157.059H1257V162.555H1250V163.34H1257V168.836H1258.1V163.34H1265.1V162.555Z" fill="#AB659C" fill-opacity="0.35"/>
<path d="M1265.1 201.818H1258.1V196.322H1257V201.818H1250V202.604H1257V208.1H1258.1V202.604H1265.1V201.818Z" fill="#AB659C" fill-opacity="0.35"/>
<path d="M1265.1 241.084H1258.1V235.588H1257V241.084H1250V241.869H1257V247.365H1258.1V241.869H1265.1V241.084Z" fill="#AB659C" fill-opacity="0.35"/>
<path d="M1265.1 280.348H1258.1V274.852H1257V280.348H1250V281.133H1257V286.629H1258.1V281.133H1265.1V280.348Z" fill="#AB659C" fill-opacity="0.35"/>
<path d="M1265.1 319.613H1258.1V314.117H1257V319.613H1250V320.398H1257V325.895H1258.1V320.398H1265.1V319.613Z" fill="#AB659C" fill-opacity="0.35"/>
<path d="M1265.1 358.876H1258.1V353.379H1257V358.876H1250V359.661H1257V365.158H1258.1V359.661H1265.1V358.876Z" fill="#AB659C" fill-opacity="0.35"/>
<path d="M1265.1 398.143H1258.1V392.646H1257V398.143H1250V398.928H1257V404.424H1258.1V398.928H1265.1V398.143Z" fill="#AB659C" fill-opacity="0.35"/>
<path d="M1265.1 437.406H1258.1V431.91H1257V437.406H1250V438.191H1257V443.688H1258.1V438.191H1265.1V437.406Z" fill="#AB659C" fill-opacity="0.35"/>
<path d="M1265.1 476.67H1258.1V471.172H1257V476.67H1250V477.455H1257V482.953H1258.1V477.455H1265.1V476.67Z" fill="#AB659C" fill-opacity="0.35"/>
<path d="M1265.1 515.935H1258.1V510.438H1257V515.935H1250V516.72H1257V522.217H1258.1V516.72H1265.1V515.935Z" fill="#AB659C" fill-opacity="0.35"/>
<path d="M1265.1 555.198H1258.1V549.701H1257V555.198H1250V555.983H1257V561.48H1258.1V555.983H1265.1V555.198Z" fill="#AB659C" fill-opacity="0.35"/>
<path d="M1265.1 594.464H1258.1V588.967H1257V594.464H1250V595.249H1257V600.746H1258.1V595.249H1265.1V594.464Z" fill="#AB659C" fill-opacity="0.35"/>
<path d="M1215.1 5.49609H1208.1V0H1207V5.49609H1200V6.28125H1207V11.7773H1208.1V6.28125H1215.1V5.49609Z" fill="#AB659C" fill-opacity="0.35"/>
<path d="M1215.1 44.7617H1208.1V39.2656H1207V44.7617H1200V45.5469H1207V51.043H1208.1V45.5469H1215.1V44.7617Z" fill="#AB659C" fill-opacity="0.35"/>
<path d="M1215.1 84.0254H1208.1V78.5293H1207V84.0254H1200V84.8105H1207V90.3066H1208.1V84.8105H1215.1V84.0254Z" fill="#AB659C" fill-opacity="0.35"/>
<path d="M1215.1 123.29H1208.1V117.793H1207V123.29H1200V124.075H1207V129.572H1208.1V124.075H1215.1V123.29Z" fill="#AB659C" fill-opacity="0.35"/>
<path d="M1215.1 162.555H1208.1V157.059H1207V162.555H1200V163.34H1207V168.836H1208.1V163.34H1215.1V162.555Z" fill="#AB659C" fill-opacity="0.35"/>
<path d="M1215.1 201.818H1208.1V196.322H1207V201.818H1200V202.604H1207V208.1H1208.1V202.604H1215.1V201.818Z" fill="#AB659C" fill-opacity="0.35"/>
<path d="M1215.1 241.084H1208.1V235.588H1207V241.084H1200V241.869H1207V247.365H1208.1V241.869H1215.1V241.084Z" fill="#AB659C" fill-opacity="0.35"/>
<path d="M1215.1 280.348H1208.1V274.852H1207V280.348H1200V281.133H1207V286.629H1208.1V281.133H1215.1V280.348Z" fill="#AB659C" fill-opacity="0.35"/>
<path d="M1215.1 319.613H1208.1V314.117H1207V319.613H1200V320.398H1207V325.895H1208.1V320.398H1215.1V319.613Z" fill="#AB659C" fill-opacity="0.35"/>
<path d="M1215.1 358.876H1208.1V353.379H1207V358.876H1200V359.661H1207V365.158H1208.1V359.661H1215.1V358.876Z" fill="#AB659C" fill-opacity="0.35"/>
<path d="M1215.1 398.143H1208.1V392.646H1207V398.143H1200V398.928H1207V404.424H1208.1V398.928H1215.1V398.143Z" fill="#AB659C" fill-opacity="0.35"/>
<path d="M1215.1 437.406H1208.1V431.91H1207V437.406H1200V438.191H1207V443.688H1208.1V438.191H1215.1V437.406Z" fill="#AB659C" fill-opacity="0.35"/>
<path d="M1215.1 476.67H1208.1V471.172H1207V476.67H1200V477.455H1207V482.953H1208.1V477.455H1215.1V476.67Z" fill="#AB659C" fill-opacity="0.35"/>
<path d="M1215.1 515.935H1208.1V510.438H1207V515.935H1200V516.72H1207V522.217H1208.1V516.72H1215.1V515.935Z" fill="#AB659C" fill-opacity="0.35"/>
<path d="M1215.1 555.198H1208.1V549.701H1207V555.198H1200V555.983H1207V561.48H1208.1V555.983H1215.1V555.198Z" fill="#AB659C" fill-opacity="0.35"/>
<path d="M1215.1 594.464H1208.1V588.967H1207V594.464H1200V595.249H1207V600.746H1208.1V595.249H1215.1V594.464Z" fill="#AB659C" fill-opacity="0.35"/>
<path d="M1165.1 5.49609H1158.1V0H1157V5.49609H1150V6.28125H1157V11.7773H1158.1V6.28125H1165.1V5.49609Z" fill="#AB659C" fill-opacity="0.35"/>
<path d="M1165.1 44.7617H1158.1V39.2656H1157V44.7617H1150V45.5469H1157V51.043H1158.1V45.5469H1165.1V44.7617Z" fill="#AB659C" fill-opacity="0.35"/>
<path d="M1165.1 84.0254H1158.1V78.5293H1157V84.0254H1150V84.8105H1157V90.3066H1158.1V84.8105H1165.1V84.0254Z" fill="#AB659C" fill-opacity="0.35"/>
<path d="M1165.1 123.29H1158.1V117.793H1157V123.29H1150V124.075H1157V129.572H1158.1V124.075H1165.1V123.29Z" fill="#AB659C" fill-opacity="0.35"/>
<path d="M1165.1 162.555H1158.1V157.059H1157V162.555H1150V163.34H1157V168.836H1158.1V163.34H1165.1V162.555Z" fill="#AB659C" fill-opacity="0.35"/>
<path d="M1165.1 201.818H1158.1V196.322H1157V201.818H1150V202.604H1157V208.1H1158.1V202.604H1165.1V201.818Z" fill="#AB659C" fill-opacity="0.35"/>
<path d="M1165.1 241.084H1158.1V235.588H1157V241.084H1150V241.869H1157V247.365H1158.1V241.869H1165.1V241.084Z" fill="#AB659C" fill-opacity="0.35"/>
<path d="M1165.1 280.348H1158.1V274.852H1157V280.348H1150V281.133H1157V286.629H1158.1V281.133H1165.1V280.348Z" fill="#AB659C" fill-opacity="0.35"/>
<path d="M1165.1 319.613H1158.1V314.117H1157V319.613H1150V320.398H1157V325.895H1158.1V320.398H1165.1V319.613Z" fill="#AB659C" fill-opacity="0.35"/>
<path d="M1165.1 358.876H1158.1V353.379H1157V358.876H1150V359.661H1157V365.158H1158.1V359.661H1165.1V358.876Z" fill="#AB659C" fill-opacity="0.35"/>
<path d="M1165.1 398.143H1158.1V392.646H1157V398.143H1150V398.928H1157V404.424H1158.1V398.928H1165.1V398.143Z" fill="#AB659C" fill-opacity="0.35"/>
<path d="M1165.1 437.406H1158.1V431.91H1157V437.406H1150V438.191H1157V443.688H1158.1V438.191H1165.1V437.406Z" fill="#AB659C" fill-opacity="0.35"/>
<path d="M1165.1 476.67H1158.1V471.172H1157V476.67H1150V477.455H1157V482.953H1158.1V477.455H1165.1V476.67Z" fill="#AB659C" fill-opacity="0.35"/>
<path d="M1165.1 515.935H1158.1V510.438H1157V515.935H1150V516.72H1157V522.217H1158.1V516.72H1165.1V515.935Z" fill="#AB659C" fill-opacity="0.35"/>
<path d="M1165.1 555.198H1158.1V549.701H1157V555.198H1150V555.983H1157V561.48H1158.1V555.983H1165.1V555.198Z" fill="#AB659C" fill-opacity="0.35"/>
<path d="M1165.1 594.464H1158.1V588.967H1157V594.464H1150V595.249H1157V600.746H1158.1V595.249H1165.1V594.464Z" fill="#AB659C" fill-opacity="0.35"/>
<path d="M1115.1 5.49609H1108.1V0H1107V5.49609H1100V6.28125H1107V11.7773H1108.1V6.28125H1115.1V5.49609Z" fill="#AB659C" fill-opacity="0.35"/>
<path d="M1115.1 44.7617H1108.1V39.2656H1107V44.7617H1100V45.5469H1107V51.043H1108.1V45.5469H1115.1V44.7617Z" fill="#AB659C" fill-opacity="0.35"/>
<path d="M1115.1 84.0254H1108.1V78.5293H1107V84.0254H1100V84.8105H1107V90.3066H1108.1V84.8105H1115.1V84.0254Z" fill="#AB659C" fill-opacity="0.35"/>
<path d="M1115.1 123.29H1108.1V117.793H1107V123.29H1100V124.075H1107V129.572H1108.1V124.075H1115.1V123.29Z" fill="#AB659C" fill-opacity="0.35"/>
<path d="M1115.1 162.555H1108.1V157.059H1107V162.555H1100V163.34H1107V168.836H1108.1V163.34H1115.1V162.555Z" fill="#AB659C" fill-opacity="0.35"/>
<path d="M1115.1 201.818H1108.1V196.322H1107V201.818H1100V202.604H1107V208.1H1108.1V202.604H1115.1V201.818Z" fill="#AB659C" fill-opacity="0.35"/>
<path d="M1115.1 241.084H1108.1V235.588H1107V241.084H1100V241.869H1107V247.365H1108.1V241.869H1115.1V241.084Z" fill="#AB659C" fill-opacity="0.35"/>
<path d="M1115.1 280.348H1108.1V274.852H1107V280.348H1100V281.133H1107V286.629H1108.1V281.133H1115.1V280.348Z" fill="#AB659C" fill-opacity="0.35"/>
<path d="M1115.1 319.613H1108.1V314.117H1107V319.613H1100V320.398H1107V325.895H1108.1V320.398H1115.1V319.613Z" fill="#AB659C" fill-opacity="0.35"/>
<path d="M1115.1 358.876H1108.1V353.379H1107V358.876H1100V359.661H1107V365.158H1108.1V359.661H1115.1V358.876Z" fill="#AB659C" fill-opacity="0.35"/>
<path d="M1115.1 398.143H1108.1V392.646H1107V398.143H1100V398.928H1107V404.424H1108.1V398.928H1115.1V398.143Z" fill="#AB659C" fill-opacity="0.35"/>
<path d="M1115.1 437.406H1108.1V431.91H1107V437.406H1100V438.191H1107V443.688H1108.1V438.191H1115.1V437.406Z" fill="#AB659C" fill-opacity="0.35"/>
<path d="M1115.1 476.67H1108.1V471.172H1107V476.67H1100V477.455H1107V482.953H1108.1V477.455H1115.1V476.67Z" fill="#AB659C" fill-opacity="0.35"/>
<path d="M1115.1 515.935H1108.1V510.438H1107V515.935H1100V516.72H1107V522.217H1108.1V516.72H1115.1V515.935Z" fill="#AB659C" fill-opacity="0.35"/>
<path d="M1115.1 555.198H1108.1V549.701H1107V555.198H1100V555.983H1107V561.48H1108.1V555.983H1115.1V555.198Z" fill="#AB659C" fill-opacity="0.35"/>
<path d="M1115.1 594.464H1108.1V588.967H1107V594.464H1100V595.249H1107V600.746H1108.1V595.249H1115.1V594.464Z" fill="#AB659C" fill-opacity="0.35"/>
<path d="M1065.1 5.49609H1058.1V0H1057V5.49609H1050V6.28125H1057V11.7773H1058.1V6.28125H1065.1V5.49609Z" fill="#AB659C" fill-opacity="0.35"/>
<path d="M1065.1 44.7617H1058.1V39.2656H1057V44.7617H1050V45.5469H1057V51.043H1058.1V45.5469H1065.1V44.7617Z" fill="#AB659C" fill-opacity="0.35"/>
<path d="M1065.1 84.0254H1058.1V78.5293H1057V84.0254H1050V84.8105H1057V90.3066H1058.1V84.8105H1065.1V84.0254Z" fill="#AB659C" fill-opacity="0.35"/>
<path d="M1065.1 123.29H1058.1V117.793H1057V123.29H1050V124.075H1057V129.572H1058.1V124.075H1065.1V123.29Z" fill="#AB659C" fill-opacity="0.35"/>
<path d="M1065.1 162.555H1058.1V157.059H1057V162.555H1050V163.34H1057V168.836H1058.1V163.34H1065.1V162.555Z" fill="#AB659C" fill-opacity="0.35"/>
<path d="M1065.1 201.818H1058.1V196.322H1057V201.818H1050V202.604H1057V208.1H1058.1V202.604H1065.1V201.818Z" fill="#AB659C" fill-opacity="0.35"/>
<path d="M1065.1 241.084H1058.1V235.588H1057V241.084H1050V241.869H1057V247.365H1058.1V241.869H1065.1V241.084Z" fill="#AB659C" fill-opacity="0.35"/>
<path d="M1065.1 280.348H1058.1V274.852H1057V280.348H1050V281.133H1057V286.629H1058.1V281.133H1065.1V280.348Z" fill="#AB659C" fill-opacity="0.35"/>
<path d="M1065.1 319.613H1058.1V314.117H1057V319.613H1050V320.398H1057V325.895H1058.1V320.398H1065.1V319.613Z" fill="#AB659C" fill-opacity="0.35"/>
<path d="M1065.1 358.876H1058.1V353.379H1057V358.876H1050V359.661H1057V365.158H1058.1V359.661H1065.1V358.876Z" fill="#AB659C" fill-opacity="0.35"/>
<path d="M1065.1 398.143H1058.1V392.646H1057V398.143H1050V398.928H1057V404.424H1058.1V398.928H1065.1V398.143Z" fill="#AB659C" fill-opacity="0.35"/>
<path d="M1065.1 437.406H1058.1V431.91H1057V437.406H1050V438.191H1057V443.688H1058.1V438.191H1065.1V437.406Z" fill="#AB659C" fill-opacity="0.35"/>
<path d="M1065.1 476.67H1058.1V471.172H1057V476.67H1050V477.455H1057V482.953H1058.1V477.455H1065.1V476.67Z" fill="#AB659C" fill-opacity="0.35"/>
<path d="M1065.1 515.935H1058.1V510.438H1057V515.935H1050V516.72H1057V522.217H1058.1V516.72H1065.1V515.935Z" fill="#AB659C" fill-opacity="0.35"/>
<path d="M1065.1 555.198H1058.1V549.701H1057V555.198H1050V555.983H1057V561.48H1058.1V555.983H1065.1V555.198Z" fill="#AB659C" fill-opacity="0.35"/>
<path d="M1065.1 594.464H1058.1V588.967H1057V594.464H1050V595.249H1057V600.746H1058.1V595.249H1065.1V594.464Z" fill="#AB659C" fill-opacity="0.35"/>
<path d="M1015.1 5.49609H1008.1V0H1007V5.49609H1000V6.28125H1007V11.7773H1008.1V6.28125H1015.1V5.49609Z" fill="#AB659C" fill-opacity="0.35"/>
<path d="M1015.1 44.7617H1008.1V39.2656H1007V44.7617H1000V45.5469H1007V51.043H1008.1V45.5469H1015.1V44.7617Z" fill="#AB659C" fill-opacity="0.35"/>
<path d="M1015.1 84.0254H1008.1V78.5293H1007V84.0254H1000V84.8105H1007V90.3066H1008.1V84.8105H1015.1V84.0254Z" fill="#AB659C" fill-opacity="0.35"/>
<path d="M1015.1 123.29H1008.1V117.793H1007V123.29H1000V124.075H1007V129.572H1008.1V124.075H1015.1V123.29Z" fill="#AB659C" fill-opacity="0.35"/>
<path d="M1015.1 162.555H1008.1V157.059H1007V162.555H1000V163.34H1007V168.836H1008.1V163.34H1015.1V162.555Z" fill="#AB659C" fill-opacity="0.35"/>
<path d="M1015.1 201.818H1008.1V196.322H1007V201.818H1000V202.604H1007V208.1H1008.1V202.604H1015.1V201.818Z" fill="#AB659C" fill-opacity="0.35"/>
<path d="M1015.1 241.084H1008.1V235.588H1007V241.084H1000V241.869H1007V247.365H1008.1V241.869H1015.1V241.084Z" fill="#AB659C" fill-opacity="0.35"/>
<path d="M1015.1 280.348H1008.1V274.852H1007V280.348H1000V281.133H1007V286.629H1008.1V281.133H1015.1V280.348Z" fill="#AB659C" fill-opacity="0.35"/>
<path d="M1015.1 319.613H1008.1V314.117H1007V319.613H1000V320.398H1007V325.895H1008.1V320.398H1015.1V319.613Z" fill="#AB659C" fill-opacity="0.35"/>
<path d="M1015.1 358.876H1008.1V353.379H1007V358.876H1000V359.661H1007V365.158H1008.1V359.661H1015.1V358.876Z" fill="#AB659C" fill-opacity="0.35"/>
<path d="M1015.1 398.143H1008.1V392.646H1007V398.143H1000V398.928H1007V404.424H1008.1V398.928H1015.1V398.143Z" fill="#AB659C" fill-opacity="0.35"/>
<path d="M1015.1 437.406H1008.1V431.91H1007V437.406H1000V438.191H1007V443.688H1008.1V438.191H1015.1V437.406Z" fill="#AB659C" fill-opacity="0.35"/>
<path d="M1015.1 476.67H1008.1V471.172H1007V476.67H1000V477.455H1007V482.953H1008.1V477.455H1015.1V476.67Z" fill="#AB659C" fill-opacity="0.35"/>
<path d="M1015.1 515.935H1008.1V510.438H1007V515.935H1000V516.72H1007V522.217H1008.1V516.72H1015.1V515.935Z" fill="#AB659C" fill-opacity="0.35"/>
<path d="M1015.1 555.198H1008.1V549.701H1007V555.198H1000V555.983H1007V561.48H1008.1V555.983H1015.1V555.198Z" fill="#AB659C" fill-opacity="0.35"/>
<path d="M1015.1 594.464H1008.1V588.967H1007V594.464H1000V595.249H1007V600.746H1008.1V595.249H1015.1V594.464Z" fill="#AB659C" fill-opacity="0.35"/>
<path d="M965.1 5.49609H958.1V0H957V5.49609H950V6.28125H957V11.7773H958.1V6.28125H965.1V5.49609Z" fill="#AB659C" fill-opacity="0.35"/>
<path d="M965.1 44.7617H958.1V39.2656H957V44.7617H950V45.5469H957V51.043H958.1V45.5469H965.1V44.7617Z" fill="#AB659C" fill-opacity="0.35"/>
<path d="M965.1 84.0254H958.1V78.5293H957V84.0254H950V84.8105H957V90.3066H958.1V84.8105H965.1V84.0254Z" fill="#AB659C" fill-opacity="0.35"/>
<path d="M965.1 123.29H958.1V117.793H957V123.29H950V124.075H957V129.572H958.1V124.075H965.1V123.29Z" fill="#AB659C" fill-opacity="0.35"/>
<path d="M965.1 162.555H958.1V157.059H957V162.555H950V163.34H957V168.836H958.1V163.34H965.1V162.555Z" fill="#AB659C" fill-opacity="0.35"/>
<path d="M965.1 201.818H958.1V196.322H957V201.818H950V202.604H957V208.1H958.1V202.604H965.1V201.818Z" fill="#AB659C" fill-opacity="0.35"/>
<path d="M965.1 241.084H958.1V235.588H957V241.084H950V241.869H957V247.365H958.1V241.869H965.1V241.084Z" fill="#AB659C" fill-opacity="0.35"/>
<path d="M965.1 280.348H958.1V274.852H957V280.348H950V281.133H957V286.629H958.1V281.133H965.1V280.348Z" fill="#AB659C" fill-opacity="0.35"/>
<path d="M965.1 319.613H958.1V314.117H957V319.613H950V320.398H957V325.895H958.1V320.398H965.1V319.613Z" fill="#AB659C" fill-opacity="0.35"/>
<path d="M965.1 358.876H958.1V353.379H957V358.876H950V359.661H957V365.158H958.1V359.661H965.1V358.876Z" fill="#AB659C" fill-opacity="0.35"/>
<path d="M965.1 398.143H958.1V392.646H957V398.143H950V398.928H957V404.424H958.1V398.928H965.1V398.143Z" fill="#AB659C" fill-opacity="0.35"/>
<path d="M965.1 437.406H958.1V431.91H957V437.406H950V438.191H957V443.688H958.1V438.191H965.1V437.406Z" fill="#AB659C" fill-opacity="0.35"/>
<path d="M965.1 476.67H958.1V471.172H957V476.67H950V477.455H957V482.953H958.1V477.455H965.1V476.67Z" fill="#AB659C" fill-opacity="0.35"/>
<path d="M965.1 515.935H958.1V510.438H957V515.935H950V516.72H957V522.217H958.1V516.72H965.1V515.935Z" fill="#AB659C" fill-opacity="0.35"/>
<path d="M965.1 555.198H958.1V549.701H957V555.198H950V555.983H957V561.48H958.1V555.983H965.1V555.198Z" fill="#AB659C" fill-opacity="0.35"/>
<path d="M965.1 594.464H958.1V588.967H957V594.464H950V595.249H957V600.746H958.1V595.249H965.1V594.464Z" fill="#AB659C" fill-opacity="0.35"/>
<path d="M915.1 5.49609H908.1V0H907V5.49609H900V6.28125H907V11.7773H908.1V6.28125H915.1V5.49609Z" fill="#AB659C" fill-opacity="0.35"/>
<path d="M915.1 44.7617H908.1V39.2656H907V44.7617H900V45.5469H907V51.043H908.1V45.5469H915.1V44.7617Z" fill="#AB659C" fill-opacity="0.35"/>
<path d="M915.1 84.0254H908.1V78.5293H907V84.0254H900V84.8105H907V90.3066H908.1V84.8105H915.1V84.0254Z" fill="#AB659C" fill-opacity="0.35"/>
<path d="M915.1 123.29H908.1V117.793H907V123.29H900V124.075H907V129.572H908.1V124.075H915.1V123.29Z" fill="#AB659C" fill-opacity="0.35"/>
<path d="M915.1 162.555H908.1V157.059H907V162.555H900V163.34H907V168.836H908.1V163.34H915.1V162.555Z" fill="#AB659C" fill-opacity="0.35"/>
<path d="M915.1 201.818H908.1V196.322H907V201.818H900V202.604H907V208.1H908.1V202.604H915.1V201.818Z" fill="#AB659C" fill-opacity="0.35"/>
<path d="M915.1 241.084H908.1V235.588H907V241.084H900V241.869H907V247.365H908.1V241.869H915.1V241.084Z" fill="#AB659C" fill-opacity="0.35"/>
<path d="M915.1 280.348H908.1V274.852H907V280.348H900V281.133H907V286.629H908.1V281.133H915.1V280.348Z" fill="#AB659C" fill-opacity="0.35"/>
<path d="M915.1 319.613H908.1V314.117H907V319.613H900V320.398H907V325.895H908.1V320.398H915.1V319.613Z" fill="#AB659C" fill-opacity="0.35"/>
<path d="M915.1 358.876H908.1V353.379H907V358.876H900V359.661H907V365.158H908.1V359.661H915.1V358.876Z" fill="#AB659C" fill-opacity="0.35"/>
<path d="M915.1 398.143H908.1V392.646H907V398.143H900V398.928H907V404.424H908.1V398.928H915.1V398.143Z" fill="#AB659C" fill-opacity="0.35"/>
<path d="M915.1 437.406H908.1V431.91H907V437.406H900V438.191H907V443.688H908.1V438.191H915.1V437.406Z" fill="#AB659C" fill-opacity="0.35"/>
<path d="M915.1 476.67H908.1V471.172H907V476.67H900V477.455H907V482.953H908.1V477.455H915.1V476.67Z" fill="#AB659C" fill-opacity="0.35"/>
<path d="M915.1 515.935H908.1V510.438H907V515.935H900V516.72H907V522.217H908.1V516.72H915.1V515.935Z" fill="#AB659C" fill-opacity="0.35"/>
<path d="M915.1 555.198H908.1V549.701H907V555.198H900V555.983H907V561.48H908.1V555.983H915.1V555.198Z" fill="#AB659C" fill-opacity="0.35"/>
<path d="M915.1 594.464H908.1V588.967H907V594.464H900V595.249H907V600.746H908.1V595.249H915.1V594.464Z" fill="#AB659C" fill-opacity="0.35"/>
<path d="M865.1 5.49609H858.1V0H857V5.49609H850V6.28125H857V11.7773H858.1V6.28125H865.1V5.49609Z" fill="#AB659C" fill-opacity="0.35"/>
<path d="M865.1 44.7617H858.1V39.2656H857V44.7617H850V45.5469H857V51.043H858.1V45.5469H865.1V44.7617Z" fill="#AB659C" fill-opacity="0.35"/>
<path d="M865.1 84.0254H858.1V78.5293H857V84.0254H850V84.8105H857V90.3066H858.1V84.8105H865.1V84.0254Z" fill="#AB659C" fill-opacity="0.35"/>
<path d="M865.1 123.29H858.1V117.793H857V123.29H850V124.075H857V129.572H858.1V124.075H865.1V123.29Z" fill="#AB659C" fill-opacity="0.35"/>
<path d="M865.1 162.555H858.1V157.059H857V162.555H850V163.34H857V168.836H858.1V163.34H865.1V162.555Z" fill="#AB659C" fill-opacity="0.35"/>
<path d="M865.1 201.818H858.1V196.322H857V201.818H850V202.604H857V208.1H858.1V202.604H865.1V201.818Z" fill="#AB659C" fill-opacity="0.35"/>
<path d="M865.1 241.084H858.1V235.588H857V241.084H850V241.869H857V247.365H858.1V241.869H865.1V241.084Z" fill="#AB659C" fill-opacity="0.35"/>
<path d="M865.1 280.348H858.1V274.852H857V280.348H850V281.133H857V286.629H858.1V281.133H865.1V280.348Z" fill="#AB659C" fill-opacity="0.35"/>
<path d="M865.1 319.613H858.1V314.117H857V319.613H850V320.398H857V325.895H858.1V320.398H865.1V319.613Z" fill="#AB659C" fill-opacity="0.35"/>
<path d="M865.1 358.876H858.1V353.379H857V358.876H850V359.661H857V365.158H858.1V359.661H865.1V358.876Z" fill="#AB659C" fill-opacity="0.35"/>
<path d="M865.1 398.143H858.1V392.646H857V398.143H850V398.928H857V404.424H858.1V398.928H865.1V398.143Z" fill="#AB659C" fill-opacity="0.35"/>
<path d="M865.1 437.406H858.1V431.91H857V437.406H850V438.191H857V443.688H858.1V438.191H865.1V437.406Z" fill="#AB659C" fill-opacity="0.35"/>
<path d="M865.1 476.67H858.1V471.172H857V476.67H850V477.455H857V482.953H858.1V477.455H865.1V476.67Z" fill="#AB659C" fill-opacity="0.35"/>
<path d="M865.1 515.935H858.1V510.438H857V515.935H850V516.72H857V522.217H858.1V516.72H865.1V515.935Z" fill="#AB659C" fill-opacity="0.35"/>
<path d="M865.1 555.198H858.1V549.701H857V555.198H850V555.983H857V561.48H858.1V555.983H865.1V555.198Z" fill="#AB659C" fill-opacity="0.35"/>
<path d="M865.1 594.464H858.1V588.967H857V594.464H850V595.249H857V600.746H858.1V595.249H865.1V594.464Z" fill="#AB659C" fill-opacity="0.35"/>
<path d="M815.1 5.49609H808.1V0H807V5.49609H800V6.28125H807V11.7773H808.1V6.28125H815.1V5.49609Z" fill="#AB659C" fill-opacity="0.35"/>
<path d="M815.1 44.7617H808.1V39.2656H807V44.7617H800V45.5469H807V51.043H808.1V45.5469H815.1V44.7617Z" fill="#AB659C" fill-opacity="0.35"/>
<path d="M815.1 84.0254H808.1V78.5293H807V84.0254H800V84.8105H807V90.3066H808.1V84.8105H815.1V84.0254Z" fill="#AB659C" fill-opacity="0.35"/>
<path d="M815.1 123.29H808.1V117.793H807V123.29H800V124.075H807V129.572H808.1V124.075H815.1V123.29Z" fill="#AB659C" fill-opacity="0.35"/>
<path d="M815.1 162.555H808.1V157.059H807V162.555H800V163.34H807V168.836H808.1V163.34H815.1V162.555Z" fill="#AB659C" fill-opacity="0.35"/>
<path d="M815.1 201.818H808.1V196.322H807V201.818H800V202.604H807V208.1H808.1V202.604H815.1V201.818Z" fill="#AB659C" fill-opacity="0.35"/>
<path d="M815.1 241.084H808.1V235.588H807V241.084H800V241.869H807V247.365H808.1V241.869H815.1V241.084Z" fill="#AB659C" fill-opacity="0.35"/>
<path d="M815.1 280.348H808.1V274.852H807V280.348H800V281.133H807V286.629H808.1V281.133H815.1V280.348Z" fill="#AB659C" fill-opacity="0.35"/>
<path d="M815.1 319.613H808.1V314.117H807V319.613H800V320.398H807V325.895H808.1V320.398H815.1V319.613Z" fill="#AB659C" fill-opacity="0.35"/>
<path d="M815.1 358.876H808.1V353.379H807V358.876H800V359.661H807V365.158H808.1V359.661H815.1V358.876Z" fill="#AB659C" fill-opacity="0.35"/>
<path d="M815.1 398.143H808.1V392.646H807V398.143H800V398.928H807V404.424H808.1V398.928H815.1V398.143Z" fill="#AB659C" fill-opacity="0.35"/>
<path d="M815.1 437.406H808.1V431.91H807V437.406H800V438.191H807V443.688H808.1V438.191H815.1V437.406Z" fill="#AB659C" fill-opacity="0.35"/>
<path d="M815.1 476.67H808.1V471.172H807V476.67H800V477.455H807V482.953H808.1V477.455H815.1V476.67Z" fill="#AB659C" fill-opacity="0.35"/>
<path d="M815.1 515.935H808.1V510.438H807V515.935H800V516.72H807V522.217H808.1V516.72H815.1V515.935Z" fill="#AB659C" fill-opacity="0.35"/>
<path d="M815.1 555.198H808.1V549.701H807V555.198H800V555.983H807V561.48H808.1V555.983H815.1V555.198Z" fill="#AB659C" fill-opacity="0.35"/>
<path d="M815.1 594.464H808.1V588.967H807V594.464H800V595.249H807V600.746H808.1V595.249H815.1V594.464Z" fill="#AB659C" fill-opacity="0.35"/>
<path d="M765.1 5.49609H758.1V0H757V5.49609H750V6.28125H757V11.7773H758.1V6.28125H765.1V5.49609Z" fill="#AB659C" fill-opacity="0.35"/>
<path d="M765.1 44.7617H758.1V39.2656H757V44.7617H750V45.5469H757V51.043H758.1V45.5469H765.1V44.7617Z" fill="#AB659C" fill-opacity="0.35"/>
<path d="M765.1 84.0254H758.1V78.5293H757V84.0254H750V84.8105H757V90.3066H758.1V84.8105H765.1V84.0254Z" fill="#AB659C" fill-opacity="0.35"/>
<path d="M765.1 123.29H758.1V117.793H757V123.29H750V124.075H757V129.572H758.1V124.075H765.1V123.29Z" fill="#AB659C" fill-opacity="0.35"/>
<path d="M765.1 162.555H758.1V157.059H757V162.555H750V163.34H757V168.836H758.1V163.34H765.1V162.555Z" fill="#AB659C" fill-opacity="0.35"/>
<path d="M765.1 201.818H758.1V196.322H757V201.818H750V202.604H757V208.1H758.1V202.604H765.1V201.818Z" fill="#AB659C" fill-opacity="0.35"/>
<path d="M765.1 241.084H758.1V235.588H757V241.084H750V241.869H757V247.365H758.1V241.869H765.1V241.084Z" fill="#AB659C" fill-opacity="0.35"/>
<path d="M765.1 280.348H758.1V274.852H757V280.348H750V281.133H757V286.629H758.1V281.133H765.1V280.348Z" fill="#AB659C" fill-opacity="0.35"/>
<path d="M765.1 319.613H758.1V314.117H757V319.613H750V320.398H757V325.895H758.1V320.398H765.1V319.613Z" fill="#AB659C" fill-opacity="0.35"/>
<path d="M765.1 358.876H758.1V353.379H757V358.876H750V359.661H757V365.158H758.1V359.661H765.1V358.876Z" fill="#AB659C" fill-opacity="0.35"/>
<path d="M765.1 398.143H758.1V392.646H757V398.143H750V398.928H757V404.424H758.1V398.928H765.1V398.143Z" fill="#AB659C" fill-opacity="0.35"/>
<path d="M765.1 437.406H758.1V431.91H757V437.406H750V438.191H757V443.688H758.1V438.191H765.1V437.406Z" fill="#AB659C" fill-opacity="0.35"/>
<path d="M765.1 476.67H758.1V471.172H757V476.67H750V477.455H757V482.953H758.1V477.455H765.1V476.67Z" fill="#AB659C" fill-opacity="0.35"/>
<path d="M765.1 515.935H758.1V510.438H757V515.935H750V516.72H757V522.217H758.1V516.72H765.1V515.935Z" fill="#AB659C" fill-opacity="0.35"/>
<path d="M765.1 555.198H758.1V549.701H757V555.198H750V555.983H757V561.48H758.1V555.983H765.1V555.198Z" fill="#AB659C" fill-opacity="0.35"/>
<path d="M765.1 594.464H758.1V588.967H757V594.464H750V595.249H757V600.746H758.1V595.249H765.1V594.464Z" fill="#AB659C" fill-opacity="0.35"/>
<path d="M715.1 5.49609H708.1V0H707V5.49609H700V6.28125H707V11.7773H708.1V6.28125H715.1V5.49609Z" fill="#AB659C" fill-opacity="0.35"/>
<path d="M715.1 44.7617H708.1V39.2656H707V44.7617H700V45.5469H707V51.043H708.1V45.5469H715.1V44.7617Z" fill="#AB659C" fill-opacity="0.35"/>
<path d="M715.1 84.0254H708.1V78.5293H707V84.0254H700V84.8105H707V90.3066H708.1V84.8105H715.1V84.0254Z" fill="#AB659C" fill-opacity="0.35"/>
<path d="M715.1 123.29H708.1V117.793H707V123.29H700V124.075H707V129.572H708.1V124.075H715.1V123.29Z" fill="#AB659C" fill-opacity="0.35"/>
<path d="M715.1 162.555H708.1V157.059H707V162.555H700V163.34H707V168.836H708.1V163.34H715.1V162.555Z" fill="#AB659C" fill-opacity="0.35"/>
<path d="M715.1 201.818H708.1V196.322H707V201.818H700V202.604H707V208.1H708.1V202.604H715.1V201.818Z" fill="#AB659C" fill-opacity="0.35"/>
<path d="M715.1 241.084H708.1V235.588H707V241.084H700V241.869H707V247.365H708.1V241.869H715.1V241.084Z" fill="#AB659C" fill-opacity="0.35"/>
<path d="M715.1 280.348H708.1V274.852H707V280.348H700V281.133H707V286.629H708.1V281.133H715.1V280.348Z" fill="#AB659C" fill-opacity="0.35"/>
<path d="M715.1 319.613H708.1V314.117H707V319.613H700V320.398H707V325.895H708.1V320.398H715.1V319.613Z" fill="#AB659C" fill-opacity="0.35"/>
<path d="M715.1 358.876H708.1V353.379H707V358.876H700V359.661H707V365.158H708.1V359.661H715.1V358.876Z" fill="#AB659C" fill-opacity="0.35"/>
<path d="M715.1 398.143H708.1V392.646H707V398.143H700V398.928H707V404.424H708.1V398.928H715.1V398.143Z" fill="#AB659C" fill-opacity="0.35"/>
<path d="M715.1 437.406H708.1V431.91H707V437.406H700V438.191H707V443.688H708.1V438.191H715.1V437.406Z" fill="#AB659C" fill-opacity="0.35"/>
<path d="M715.1 476.67H708.1V471.172H707V476.67H700V477.455H707V482.953H708.1V477.455H715.1V476.67Z" fill="#AB659C" fill-opacity="0.35"/>
<path d="M715.1 515.935H708.1V510.438H707V515.935H700V516.72H707V522.217H708.1V516.72H715.1V515.935Z" fill="#AB659C" fill-opacity="0.35"/>
<path d="M715.1 555.198H708.1V549.701H707V555.198H700V555.983H707V561.48H708.1V555.983H715.1V555.198Z" fill="#AB659C" fill-opacity="0.35"/>
<path d="M715.1 594.464H708.1V588.967H707V594.464H700V595.249H707V600.746H708.1V595.249H715.1V594.464Z" fill="#AB659C" fill-opacity="0.35"/>
<path d="M665.1 5.49609H658.1V0H657V5.49609H650V6.28125H657V11.7773H658.1V6.28125H665.1V5.49609Z" fill="#AB659C" fill-opacity="0.35"/>
<path d="M665.1 44.7617H658.1V39.2656H657V44.7617H650V45.5469H657V51.043H658.1V45.5469H665.1V44.7617Z" fill="#AB659C" fill-opacity="0.35"/>
<path d="M665.1 84.0254H658.1V78.5293H657V84.0254H650V84.8105H657V90.3066H658.1V84.8105H665.1V84.0254Z" fill="#AB659C" fill-opacity="0.35"/>
<path d="M665.1 123.29H658.1V117.793H657V123.29H650V124.075H657V129.572H658.1V124.075H665.1V123.29Z" fill="#AB659C" fill-opacity="0.35"/>
<path d="M665.1 162.555H658.1V157.059H657V162.555H650V163.34H657V168.836H658.1V163.34H665.1V162.555Z" fill="#AB659C" fill-opacity="0.35"/>
<path d="M665.1 201.818H658.1V196.322H657V201.818H650V202.604H657V208.1H658.1V202.604H665.1V201.818Z" fill="#AB659C" fill-opacity="0.35"/>
<path d="M665.1 241.084H658.1V235.588H657V241.084H650V241.869H657V247.365H658.1V241.869H665.1V241.084Z" fill="#AB659C" fill-opacity="0.35"/>
<path d="M665.1 280.348H658.1V274.852H657V280.348H650V281.133H657V286.629H658.1V281.133H665.1V280.348Z" fill="#AB659C" fill-opacity="0.35"/>
<path d="M665.1 319.613H658.1V314.117H657V319.613H650V320.398H657V325.895H658.1V320.398H665.1V319.613Z" fill="#AB659C" fill-opacity="0.35"/>
<path d="M665.1 358.876H658.1V353.379H657V358.876H650V359.661H657V365.158H658.1V359.661H665.1V358.876Z" fill="#AB659C" fill-opacity="0.35"/>
<path d="M665.1 398.143H658.1V392.646H657V398.143H650V398.928H657V404.424H658.1V398.928H665.1V398.143Z" fill="#AB659C" fill-opacity="0.35"/>
<path d="M665.1 437.406H658.1V431.91H657V437.406H650V438.191H657V443.688H658.1V438.191H665.1V437.406Z" fill="#AB659C" fill-opacity="0.35"/>
<path d="M665.1 476.67H658.1V471.172H657V476.67H650V477.455H657V482.953H658.1V477.455H665.1V476.67Z" fill="#AB659C" fill-opacity="0.35"/>
<path d="M665.1 515.935H658.1V510.438H657V515.935H650V516.72H657V522.217H658.1V516.72H665.1V515.935Z" fill="#AB659C" fill-opacity="0.35"/>
<path d="M665.1 555.198H658.1V549.701H657V555.198H650V555.983H657V561.48H658.1V555.983H665.1V555.198Z" fill="#AB659C" fill-opacity="0.35"/>
<path d="M665.1 594.464H658.1V588.967H657V594.464H650V595.249H657V600.746H658.1V595.249H665.1V594.464Z" fill="#AB659C" fill-opacity="0.35"/>
<path d="M615.1 5.49609H608.1V0H607V5.49609H600V6.28125H607V11.7773H608.1V6.28125H615.1V5.49609Z" fill="#AB659C" fill-opacity="0.35"/>
<path d="M615.1 44.7617H608.1V39.2656H607V44.7617H600V45.5469H607V51.043H608.1V45.5469H615.1V44.7617Z" fill="#AB659C" fill-opacity="0.35"/>
<path d="M615.1 84.0254H608.1V78.5293H607V84.0254H600V84.8105H607V90.3066H608.1V84.8105H615.1V84.0254Z" fill="#AB659C" fill-opacity="0.35"/>
<path d="M615.1 123.29H608.1V117.793H607V123.29H600V124.075H607V129.572H608.1V124.075H615.1V123.29Z" fill="#AB659C" fill-opacity="0.35"/>
<path d="M615.1 162.555H608.1V157.059H607V162.555H600V163.34H607V168.836H608.1V163.34H615.1V162.555Z" fill="#AB659C" fill-opacity="0.35"/>
<path d="M615.1 201.818H608.1V196.322H607V201.818H600V202.604H607V208.1H608.1V202.604H615.1V201.818Z" fill="#AB659C" fill-opacity="0.35"/>
<path d="M615.1 241.084H608.1V235.588H607V241.084H600V241.869H607V247.365H608.1V241.869H615.1V241.084Z" fill="#AB659C" fill-opacity="0.35"/>
<path d="M615.1 280.348H608.1V274.852H607V280.348H600V281.133H607V286.629H608.1V281.133H615.1V280.348Z" fill="#AB659C" fill-opacity="0.35"/>
<path d="M615.1 319.613H608.1V314.117H607V319.613H600V320.398H607V325.895H608.1V320.398H615.1V319.613Z" fill="#AB659C" fill-opacity="0.35"/>
<path d="M615.1 358.876H608.1V353.379H607V358.876H600V359.661H607V365.158H608.1V359.661H615.1V358.876Z" fill="#AB659C" fill-opacity="0.35"/>
<path d="M615.1 398.143H608.1V392.646H607V398.143H600V398.928H607V404.424H608.1V398.928H615.1V398.143Z" fill="#AB659C" fill-opacity="0.35"/>
<path d="M615.1 437.406H608.1V431.91H607V437.406H600V438.191H607V443.688H608.1V438.191H615.1V437.406Z" fill="#AB659C" fill-opacity="0.35"/>
<path d="M615.1 476.67H608.1V471.172H607V476.67H600V477.455H607V482.953H608.1V477.455H615.1V476.67Z" fill="#AB659C" fill-opacity="0.35"/>
<path d="M615.1 515.935H608.1V510.438H607V515.935H600V516.72H607V522.217H608.1V516.72H615.1V515.935Z" fill="#AB659C" fill-opacity="0.35"/>
<path d="M615.1 555.198H608.1V549.701H607V555.198H600V555.983H607V561.48H608.1V555.983H615.1V555.198Z" fill="#AB659C" fill-opacity="0.35"/>
<path d="M615.1 594.464H608.1V588.967H607V594.464H600V595.249H607V600.746H608.1V595.249H615.1V594.464Z" fill="#AB659C" fill-opacity="0.35"/>
<path d="M565.1 5.49609H558.1V0H557V5.49609H550V6.28125H557V11.7773H558.1V6.28125H565.1V5.49609Z" fill="#AB659C" fill-opacity="0.35"/>
<path d="M565.1 44.7617H558.1V39.2656H557V44.7617H550V45.5469H557V51.043H558.1V45.5469H565.1V44.7617Z" fill="#AB659C" fill-opacity="0.35"/>
<path d="M565.1 84.0254H558.1V78.5293H557V84.0254H550V84.8105H557V90.3066H558.1V84.8105H565.1V84.0254Z" fill="#AB659C" fill-opacity="0.35"/>
<path d="M565.1 123.29H558.1V117.793H557V123.29H550V124.075H557V129.572H558.1V124.075H565.1V123.29Z" fill="#AB659C" fill-opacity="0.35"/>
<path d="M565.1 162.555H558.1V157.059H557V162.555H550V163.34H557V168.836H558.1V163.34H565.1V162.555Z" fill="#AB659C" fill-opacity="0.35"/>
<path d="M565.1 201.818H558.1V196.322H557V201.818H550V202.604H557V208.1H558.1V202.604H565.1V201.818Z" fill="#AB659C" fill-opacity="0.35"/>
<path d="M565.1 241.084H558.1V235.588H557V241.084H550V241.869H557V247.365H558.1V241.869H565.1V241.084Z" fill="#AB659C" fill-opacity="0.35"/>
<path d="M565.1 280.348H558.1V274.852H557V280.348H550V281.133H557V286.629H558.1V281.133H565.1V280.348Z" fill="#AB659C" fill-opacity="0.35"/>
<path d="M565.1 319.613H558.1V314.117H557V319.613H550V320.398H557V325.895H558.1V320.398H565.1V319.613Z" fill="#AB659C" fill-opacity="0.35"/>
<path d="M565.1 358.876H558.1V353.379H557V358.876H550V359.661H557V365.158H558.1V359.661H565.1V358.876Z" fill="#AB659C" fill-opacity="0.35"/>
<path d="M565.1 398.143H558.1V392.646H557V398.143H550V398.928H557V404.424H558.1V398.928H565.1V398.143Z" fill="#AB659C" fill-opacity="0.35"/>
<path d="M565.1 437.406H558.1V431.91H557V437.406H550V438.191H557V443.688H558.1V438.191H565.1V437.406Z" fill="#AB659C" fill-opacity="0.35"/>
<path d="M565.1 476.67H558.1V471.172H557V476.67H550V477.455H557V482.953H558.1V477.455H565.1V476.67Z" fill="#AB659C" fill-opacity="0.35"/>
<path d="M565.1 515.935H558.1V510.438H557V515.935H550V516.72H557V522.217H558.1V516.72H565.1V515.935Z" fill="#AB659C" fill-opacity="0.35"/>
<path d="M565.1 555.198H558.1V549.701H557V555.198H550V555.983H557V561.48H558.1V555.983H565.1V555.198Z" fill="#AB659C" fill-opacity="0.35"/>
<path d="M565.1 594.464H558.1V588.967H557V594.464H550V595.249H557V600.746H558.1V595.249H565.1V594.464Z" fill="#AB659C" fill-opacity="0.35"/>
<path d="M515.1 5.49609H508.1V0H507V5.49609H500V6.28125H507V11.7773H508.1V6.28125H515.1V5.49609Z" fill="#AB659C" fill-opacity="0.35"/>
<path d="M515.1 44.7617H508.1V39.2656H507V44.7617H500V45.5469H507V51.043H508.1V45.5469H515.1V44.7617Z" fill="#AB659C" fill-opacity="0.35"/>
<path d="M515.1 84.0254H508.1V78.5293H507V84.0254H500V84.8105H507V90.3066H508.1V84.8105H515.1V84.0254Z" fill="#AB659C" fill-opacity="0.35"/>
<path d="M515.1 123.29H508.1V117.793H507V123.29H500V124.075H507V129.572H508.1V124.075H515.1V123.29Z" fill="#AB659C" fill-opacity="0.35"/>
<path d="M515.1 162.555H508.1V157.059H507V162.555H500V163.34H507V168.836H508.1V163.34H515.1V162.555Z" fill="#AB659C" fill-opacity="0.35"/>
<path d="M515.1 201.818H508.1V196.322H507V201.818H500V202.604H507V208.1H508.1V202.604H515.1V201.818Z" fill="#AB659C" fill-opacity="0.35"/>
<path d="M515.1 241.084H508.1V235.588H507V241.084H500V241.869H507V247.365H508.1V241.869H515.1V241.084Z" fill="#AB659C" fill-opacity="0.35"/>
<path d="M515.1 280.348H508.1V274.852H507V280.348H500V281.133H507V286.629H508.1V281.133H515.1V280.348Z" fill="#AB659C" fill-opacity="0.35"/>
<path d="M515.1 319.613H508.1V314.117H507V319.613H500V320.398H507V325.895H508.1V320.398H515.1V319.613Z" fill="#AB659C" fill-opacity="0.35"/>
<path d="M515.1 358.876H508.1V353.379H507V358.876H500V359.661H507V365.158H508.1V359.661H515.1V358.876Z" fill="#AB659C" fill-opacity="0.35"/>
<path d="M515.1 398.143H508.1V392.646H507V398.143H500V398.928H507V404.424H508.1V398.928H515.1V398.143Z" fill="#AB659C" fill-opacity="0.35"/>
<path d="M515.1 437.406H508.1V431.91H507V437.406H500V438.191H507V443.688H508.1V438.191H515.1V437.406Z" fill="#AB659C" fill-opacity="0.35"/>
<path d="M515.1 476.67H508.1V471.172H507V476.67H500V477.455H507V482.953H508.1V477.455H515.1V476.67Z" fill="#AB659C" fill-opacity="0.35"/>
<path d="M515.1 515.935H508.1V510.438H507V515.935H500V516.72H507V522.217H508.1V516.72H515.1V515.935Z" fill="#AB659C" fill-opacity="0.35"/>
<path d="M515.1 555.198H508.1V549.701H507V555.198H500V555.983H507V561.48H508.1V555.983H515.1V555.198Z" fill="#AB659C" fill-opacity="0.35"/>
<path d="M515.1 594.464H508.1V588.967H507V594.464H500V595.249H507V600.746H508.1V595.249H515.1V594.464Z" fill="#AB659C" fill-opacity="0.35"/>
<path d="M465.1 5.49609H458.1V0H457V5.49609H450V6.28125H457V11.7773H458.1V6.28125H465.1V5.49609Z" fill="#AB659C" fill-opacity="0.35"/>
<path d="M465.1 44.7617H458.1V39.2656H457V44.7617H450V45.5469H457V51.043H458.1V45.5469H465.1V44.7617Z" fill="#AB659C" fill-opacity="0.35"/>
<path d="M465.1 84.0254H458.1V78.5293H457V84.0254H450V84.8105H457V90.3066H458.1V84.8105H465.1V84.0254Z" fill="#AB659C" fill-opacity="0.35"/>
<path d="M465.1 123.29H458.1V117.793H457V123.29H450V124.075H457V129.572H458.1V124.075H465.1V123.29Z" fill="#AB659C" fill-opacity="0.35"/>
<path d="M465.1 162.555H458.1V157.059H457V162.555H450V163.34H457V168.836H458.1V163.34H465.1V162.555Z" fill="#AB659C" fill-opacity="0.35"/>
<path d="M465.1 201.818H458.1V196.322H457V201.818H450V202.604H457V208.1H458.1V202.604H465.1V201.818Z" fill="#AB659C" fill-opacity="0.35"/>
<path d="M465.1 241.084H458.1V235.588H457V241.084H450V241.869H457V247.365H458.1V241.869H465.1V241.084Z" fill="#AB659C" fill-opacity="0.35"/>
<path d="M465.1 280.348H458.1V274.852H457V280.348H450V281.133H457V286.629H458.1V281.133H465.1V280.348Z" fill="#AB659C" fill-opacity="0.35"/>
<path d="M465.1 319.613H458.1V314.117H457V319.613H450V320.398H457V325.895H458.1V320.398H465.1V319.613Z" fill="#AB659C" fill-opacity="0.35"/>
<path d="M465.1 358.876H458.1V353.379H457V358.876H450V359.661H457V365.158H458.1V359.661H465.1V358.876Z" fill="#AB659C" fill-opacity="0.35"/>
<path d="M465.1 398.143H458.1V392.646H457V398.143H450V398.928H457V404.424H458.1V398.928H465.1V398.143Z" fill="#AB659C" fill-opacity="0.35"/>
<path d="M465.1 437.406H458.1V431.91H457V437.406H450V438.191H457V443.688H458.1V438.191H465.1V437.406Z" fill="#AB659C" fill-opacity="0.35"/>
<path d="M465.1 476.67H458.1V471.172H457V476.67H450V477.455H457V482.953H458.1V477.455H465.1V476.67Z" fill="#AB659C" fill-opacity="0.35"/>
<path d="M465.1 515.935H458.1V510.438H457V515.935H450V516.72H457V522.217H458.1V516.72H465.1V515.935Z" fill="#AB659C" fill-opacity="0.35"/>
<path d="M465.1 555.198H458.1V549.701H457V555.198H450V555.983H457V561.48H458.1V555.983H465.1V555.198Z" fill="#AB659C" fill-opacity="0.35"/>
<path d="M465.1 594.464H458.1V588.967H457V594.464H450V595.249H457V600.746H458.1V595.249H465.1V594.464Z" fill="#AB659C" fill-opacity="0.35"/>
<path d="M415.1 5.49609H408.1V0H407V5.49609H400V6.28125H407V11.7773H408.1V6.28125H415.1V5.49609Z" fill="#AB659C" fill-opacity="0.35"/>
<path d="M415.1 44.7617H408.1V39.2656H407V44.7617H400V45.5469H407V51.043H408.1V45.5469H415.1V44.7617Z" fill="#AB659C" fill-opacity="0.35"/>
<path d="M415.1 84.0254H408.1V78.5293H407V84.0254H400V84.8105H407V90.3066H408.1V84.8105H415.1V84.0254Z" fill="#AB659C" fill-opacity="0.35"/>
<path d="M415.1 123.29H408.1V117.793H407V123.29H400V124.075H407V129.572H408.1V124.075H415.1V123.29Z" fill="#AB659C" fill-opacity="0.35"/>
<path d="M415.1 162.555H408.1V157.059H407V162.555H400V163.34H407V168.836H408.1V163.34H415.1V162.555Z" fill="#AB659C" fill-opacity="0.35"/>
<path d="M415.1 201.818H408.1V196.322H407V201.818H400V202.604H407V208.1H408.1V202.604H415.1V201.818Z" fill="#AB659C" fill-opacity="0.35"/>
<path d="M415.1 241.084H408.1V235.588H407V241.084H400V241.869H407V247.365H408.1V241.869H415.1V241.084Z" fill="#AB659C" fill-opacity="0.35"/>
<path d="M415.1 280.348H408.1V274.852H407V280.348H400V281.133H407V286.629H408.1V281.133H415.1V280.348Z" fill="#AB659C" fill-opacity="0.35"/>
<path d="M415.1 319.613H408.1V314.117H407V319.613H400V320.398H407V325.895H408.1V320.398H415.1V319.613Z" fill="#AB659C" fill-opacity="0.35"/>
<path d="M415.1 358.876H408.1V353.379H407V358.876H400V359.661H407V365.158H408.1V359.661H415.1V358.876Z" fill="#AB659C" fill-opacity="0.35"/>
<path d="M415.1 398.143H408.1V392.646H407V398.143H400V398.928H407V404.424H408.1V398.928H415.1V398.143Z" fill="#AB659C" fill-opacity="0.35"/>
<path d="M415.1 437.406H408.1V431.91H407V437.406H400V438.191H407V443.688H408.1V438.191H415.1V437.406Z" fill="#AB659C" fill-opacity="0.35"/>
<path d="M415.1 476.67H408.1V471.172H407V476.67H400V477.455H407V482.953H408.1V477.455H415.1V476.67Z" fill="#AB659C" fill-opacity="0.35"/>
<path d="M415.1 515.935H408.1V510.438H407V515.935H400V516.72H407V522.217H408.1V516.72H415.1V515.935Z" fill="#AB659C" fill-opacity="0.35"/>
<path d="M415.1 555.198H408.1V549.701H407V555.198H400V555.983H407V561.48H408.1V555.983H415.1V555.198Z" fill="#AB659C" fill-opacity="0.35"/>
<path d="M415.1 594.464H408.1V588.967H407V594.464H400V595.249H407V600.746H408.1V595.249H415.1V594.464Z" fill="#AB659C" fill-opacity="0.35"/>
<path d="M365.1 5.49609H358.1V0H357V5.49609H350V6.28125H357V11.7773H358.1V6.28125H365.1V5.49609Z" fill="#AB659C" fill-opacity="0.35"/>
<path d="M365.1 44.7617H358.1V39.2656H357V44.7617H350V45.5469H357V51.043H358.1V45.5469H365.1V44.7617Z" fill="#AB659C" fill-opacity="0.35"/>
<path d="M365.1 84.0254H358.1V78.5293H357V84.0254H350V84.8105H357V90.3066H358.1V84.8105H365.1V84.0254Z" fill="#AB659C" fill-opacity="0.35"/>
<path d="M365.1 123.29H358.1V117.793H357V123.29H350V124.075H357V129.572H358.1V124.075H365.1V123.29Z" fill="#AB659C" fill-opacity="0.35"/>
<path d="M365.1 162.555H358.1V157.059H357V162.555H350V163.34H357V168.836H358.1V163.34H365.1V162.555Z" fill="#AB659C" fill-opacity="0.35"/>
<path d="M365.1 201.818H358.1V196.322H357V201.818H350V202.604H357V208.1H358.1V202.604H365.1V201.818Z" fill="#AB659C" fill-opacity="0.35"/>
<path d="M365.1 241.084H358.1V235.588H357V241.084H350V241.869H357V247.365H358.1V241.869H365.1V241.084Z" fill="#AB659C" fill-opacity="0.35"/>
<path d="M365.1 280.348H358.1V274.852H357V280.348H350V281.133H357V286.629H358.1V281.133H365.1V280.348Z" fill="#AB659C" fill-opacity="0.35"/>
<path d="M365.1 319.613H358.1V314.117H357V319.613H350V320.398H357V325.895H358.1V320.398H365.1V319.613Z" fill="#AB659C" fill-opacity="0.35"/>
<path d="M365.1 358.876H358.1V353.379H357V358.876H350V359.661H357V365.158H358.1V359.661H365.1V358.876Z" fill="#AB659C" fill-opacity="0.35"/>
<path d="M365.1 398.143H358.1V392.646H357V398.143H350V398.928H357V404.424H358.1V398.928H365.1V398.143Z" fill="#AB659C" fill-opacity="0.35"/>
<path d="M365.1 437.406H358.1V431.91H357V437.406H350V438.191H357V443.688H358.1V438.191H365.1V437.406Z" fill="#AB659C" fill-opacity="0.35"/>
<path d="M365.1 476.67H358.1V471.172H357V476.67H350V477.455H357V482.953H358.1V477.455H365.1V476.67Z" fill="#AB659C" fill-opacity="0.35"/>
<path d="M365.1 515.935H358.1V510.438H357V515.935H350V516.72H357V522.217H358.1V516.72H365.1V515.935Z" fill="#AB659C" fill-opacity="0.35"/>
<path d="M365.1 555.198H358.1V549.701H357V555.198H350V555.983H357V561.48H358.1V555.983H365.1V555.198Z" fill="#AB659C" fill-opacity="0.35"/>
<path d="M365.1 594.464H358.1V588.967H357V594.464H350V595.249H357V600.746H358.1V595.249H365.1V594.464Z" fill="#AB659C" fill-opacity="0.35"/>
<path d="M315.1 5.49609H308.1V0H307V5.49609H300V6.28125H307V11.7773H308.1V6.28125H315.1V5.49609Z" fill="#AB659C" fill-opacity="0.35"/>
<path d="M315.1 44.7617H308.1V39.2656H307V44.7617H300V45.5469H307V51.043H308.1V45.5469H315.1V44.7617Z" fill="#AB659C" fill-opacity="0.35"/>
<path d="M315.1 84.0254H308.1V78.5293H307V84.0254H300V84.8105H307V90.3066H308.1V84.8105H315.1V84.0254Z" fill="#AB659C" fill-opacity="0.35"/>
<path d="M315.1 123.29H308.1V117.793H307V123.29H300V124.075H307V129.572H308.1V124.075H315.1V123.29Z" fill="#AB659C" fill-opacity="0.35"/>
<path d="M315.1 162.555H308.1V157.059H307V162.555H300V163.34H307V168.836H308.1V163.34H315.1V162.555Z" fill="#AB659C" fill-opacity="0.35"/>
<path d="M315.1 201.818H308.1V196.322H307V201.818H300V202.604H307V208.1H308.1V202.604H315.1V201.818Z" fill="#AB659C" fill-opacity="0.35"/>
<path d="M315.1 241.084H308.1V235.588H307V241.084H300V241.869H307V247.365H308.1V241.869H315.1V241.084Z" fill="#AB659C" fill-opacity="0.35"/>
<path d="M315.1 280.348H308.1V274.852H307V280.348H300V281.133H307V286.629H308.1V281.133H315.1V280.348Z" fill="#AB659C" fill-opacity="0.35"/>
<path d="M315.1 319.613H308.1V314.117H307V319.613H300V320.398H307V325.895H308.1V320.398H315.1V319.613Z" fill="#AB659C" fill-opacity="0.35"/>
<path d="M315.1 358.876H308.1V353.379H307V358.876H300V359.661H307V365.158H308.1V359.661H315.1V358.876Z" fill="#AB659C" fill-opacity="0.35"/>
<path d="M315.1 398.143H308.1V392.646H307V398.143H300V398.928H307V404.424H308.1V398.928H315.1V398.143Z" fill="#AB659C" fill-opacity="0.35"/>
<path d="M315.1 437.406H308.1V431.91H307V437.406H300V438.191H307V443.688H308.1V438.191H315.1V437.406Z" fill="#AB659C" fill-opacity="0.35"/>
<path d="M315.1 476.67H308.1V471.172H307V476.67H300V477.455H307V482.953H308.1V477.455H315.1V476.67Z" fill="#AB659C" fill-opacity="0.35"/>
<path d="M315.1 515.935H308.1V510.438H307V515.935H300V516.72H307V522.217H308.1V516.72H315.1V515.935Z" fill="#AB659C" fill-opacity="0.35"/>
<path d="M315.1 555.198H308.1V549.701H307V555.198H300V555.983H307V561.48H308.1V555.983H315.1V555.198Z" fill="#AB659C" fill-opacity="0.35"/>
<path d="M315.1 594.464H308.1V588.967H307V594.464H300V595.249H307V600.746H308.1V595.249H315.1V594.464Z" fill="#AB659C" fill-opacity="0.35"/>
<path d="M265.1 5.49609H258.1V0H257V5.49609H250V6.28125H257V11.7773H258.1V6.28125H265.1V5.49609Z" fill="#AB659C" fill-opacity="0.35"/>
<path d="M265.1 44.7617H258.1V39.2656H257V44.7617H250V45.5469H257V51.043H258.1V45.5469H265.1V44.7617Z" fill="#AB659C" fill-opacity="0.35"/>
<path d="M265.1 84.0254H258.1V78.5293H257V84.0254H250V84.8105H257V90.3066H258.1V84.8105H265.1V84.0254Z" fill="#AB659C" fill-opacity="0.35"/>
<path d="M265.1 123.29H258.1V117.793H257V123.29H250V124.075H257V129.572H258.1V124.075H265.1V123.29Z" fill="#AB659C" fill-opacity="0.35"/>
<path d="M265.1 162.555H258.1V157.059H257V162.555H250V163.34H257V168.836H258.1V163.34H265.1V162.555Z" fill="#AB659C" fill-opacity="0.35"/>
<path d="M265.1 201.818H258.1V196.322H257V201.818H250V202.604H257V208.1H258.1V202.604H265.1V201.818Z" fill="#AB659C" fill-opacity="0.35"/>
<path d="M265.1 241.084H258.1V235.588H257V241.084H250V241.869H257V247.365H258.1V241.869H265.1V241.084Z" fill="#AB659C" fill-opacity="0.35"/>
<path d="M265.1 280.348H258.1V274.852H257V280.348H250V281.133H257V286.629H258.1V281.133H265.1V280.348Z" fill="#AB659C" fill-opacity="0.35"/>
<path d="M265.1 319.613H258.1V314.117H257V319.613H250V320.398H257V325.895H258.1V320.398H265.1V319.613Z" fill="#AB659C" fill-opacity="0.35"/>
<path d="M265.1 358.876H258.1V353.379H257V358.876H250V359.661H257V365.158H258.1V359.661H265.1V358.876Z" fill="#AB659C" fill-opacity="0.35"/>
<path d="M265.1 398.143H258.1V392.646H257V398.143H250V398.928H257V404.424H258.1V398.928H265.1V398.143Z" fill="#AB659C" fill-opacity="0.35"/>
<path d="M265.1 437.406H258.1V431.91H257V437.406H250V438.191H257V443.688H258.1V438.191H265.1V437.406Z" fill="#AB659C" fill-opacity="0.35"/>
<path d="M265.1 476.67H258.1V471.172H257V476.67H250V477.455H257V482.953H258.1V477.455H265.1V476.67Z" fill="#AB659C" fill-opacity="0.35"/>
<path d="M265.1 515.935H258.1V510.438H257V515.935H250V516.72H257V522.217H258.1V516.72H265.1V515.935Z" fill="#AB659C" fill-opacity="0.35"/>
<path d="M265.1 555.198H258.1V549.701H257V555.198H250V555.983H257V561.48H258.1V555.983H265.1V555.198Z" fill="#AB659C" fill-opacity="0.35"/>
<path d="M265.1 594.464H258.1V588.967H257V594.464H250V595.249H257V600.746H258.1V595.249H265.1V594.464Z" fill="#AB659C" fill-opacity="0.35"/>
<path d="M215.1 5.49609H208.1V0H207V5.49609H200V6.28125H207V11.7773H208.1V6.28125H215.1V5.49609Z" fill="#AB659C" fill-opacity="0.35"/>
<path d="M215.1 44.7617H208.1V39.2656H207V44.7617H200V45.5469H207V51.043H208.1V45.5469H215.1V44.7617Z" fill="#AB659C" fill-opacity="0.35"/>
<path d="M215.1 84.0254H208.1V78.5293H207V84.0254H200V84.8105H207V90.3066H208.1V84.8105H215.1V84.0254Z" fill="#AB659C" fill-opacity="0.35"/>
<path d="M215.1 123.29H208.1V117.793H207V123.29H200V124.075H207V129.572H208.1V124.075H215.1V123.29Z" fill="#AB659C" fill-opacity="0.35"/>
<path d="M215.1 162.555H208.1V157.059H207V162.555H200V163.34H207V168.836H208.1V163.34H215.1V162.555Z" fill="#AB659C" fill-opacity="0.35"/>
<path d="M215.1 201.818H208.1V196.322H207V201.818H200V202.604H207V208.1H208.1V202.604H215.1V201.818Z" fill="#AB659C" fill-opacity="0.35"/>
<path d="M215.1 241.084H208.1V235.588H207V241.084H200V241.869H207V247.365H208.1V241.869H215.1V241.084Z" fill="#AB659C" fill-opacity="0.35"/>
<path d="M215.1 280.348H208.1V274.852H207V280.348H200V281.133H207V286.629H208.1V281.133H215.1V280.348Z" fill="#AB659C" fill-opacity="0.35"/>
<path d="M215.1 319.613H208.1V314.117H207V319.613H200V320.398H207V325.895H208.1V320.398H215.1V319.613Z" fill="#AB659C" fill-opacity="0.35"/>
<path d="M215.1 358.876H208.1V353.379H207V358.876H200V359.661H207V365.158H208.1V359.661H215.1V358.876Z" fill="#AB659C" fill-opacity="0.35"/>
<path d="M215.1 398.143H208.1V392.646H207V398.143H200V398.928H207V404.424H208.1V398.928H215.1V398.143Z" fill="#AB659C" fill-opacity="0.35"/>
<path d="M215.1 437.406H208.1V431.91H207V437.406H200V438.191H207V443.688H208.1V438.191H215.1V437.406Z" fill="#AB659C" fill-opacity="0.35"/>
<path d="M215.1 476.67H208.1V471.172H207V476.67H200V477.455H207V482.953H208.1V477.455H215.1V476.67Z" fill="#AB659C" fill-opacity="0.35"/>
<path d="M215.1 515.935H208.1V510.438H207V515.935H200V516.72H207V522.217H208.1V516.72H215.1V515.935Z" fill="#AB659C" fill-opacity="0.35"/>
<path d="M215.1 555.198H208.1V549.701H207V555.198H200V555.983H207V561.48H208.1V555.983H215.1V555.198Z" fill="#AB659C" fill-opacity="0.35"/>
<path d="M215.1 594.464H208.1V588.967H207V594.464H200V595.249H207V600.746H208.1V595.249H215.1V594.464Z" fill="#AB659C" fill-opacity="0.35"/>
<path d="M165.1 5.49609H158.1V0H157V5.49609H150V6.28125H157V11.7773H158.1V6.28125H165.1V5.49609Z" fill="#AB659C" fill-opacity="0.35"/>
<path d="M165.1 44.7617H158.1V39.2656H157V44.7617H150V45.5469H157V51.043H158.1V45.5469H165.1V44.7617Z" fill="#AB659C" fill-opacity="0.35"/>
<path d="M165.1 84.0254H158.1V78.5293H157V84.0254H150V84.8105H157V90.3066H158.1V84.8105H165.1V84.0254Z" fill="#AB659C" fill-opacity="0.35"/>
<path d="M165.1 123.29H158.1V117.793H157V123.29H150V124.075H157V129.572H158.1V124.075H165.1V123.29Z" fill="#AB659C" fill-opacity="0.35"/>
<path d="M165.1 162.555H158.1V157.059H157V162.555H150V163.34H157V168.836H158.1V163.34H165.1V162.555Z" fill="#AB659C" fill-opacity="0.35"/>
<path d="M165.1 201.818H158.1V196.322H157V201.818H150V202.604H157V208.1H158.1V202.604H165.1V201.818Z" fill="#AB659C" fill-opacity="0.35"/>
<path d="M165.1 241.084H158.1V235.588H157V241.084H150V241.869H157V247.365H158.1V241.869H165.1V241.084Z" fill="#AB659C" fill-opacity="0.35"/>
<path d="M165.1 280.348H158.1V274.852H157V280.348H150V281.133H157V286.629H158.1V281.133H165.1V280.348Z" fill="#AB659C" fill-opacity="0.35"/>
<path d="M165.1 319.613H158.1V314.117H157V319.613H150V320.398H157V325.895H158.1V320.398H165.1V319.613Z" fill="#AB659C" fill-opacity="0.35"/>
<path d="M165.1 358.876H158.1V353.379H157V358.876H150V359.661H157V365.158H158.1V359.661H165.1V358.876Z" fill="#AB659C" fill-opacity="0.35"/>
<path d="M165.1 398.143H158.1V392.646H157V398.143H150V398.928H157V404.424H158.1V398.928H165.1V398.143Z" fill="#AB659C" fill-opacity="0.35"/>
<path d="M165.1 437.406H158.1V431.91H157V437.406H150V438.191H157V443.688H158.1V438.191H165.1V437.406Z" fill="#AB659C" fill-opacity="0.35"/>
<path d="M165.1 476.67H158.1V471.172H157V476.67H150V477.455H157V482.953H158.1V477.455H165.1V476.67Z" fill="#AB659C" fill-opacity="0.35"/>
<path d="M165.1 515.935H158.1V510.438H157V515.935H150V516.72H157V522.217H158.1V516.72H165.1V515.935Z" fill="#AB659C" fill-opacity="0.35"/>
<path d="M165.1 555.198H158.1V549.701H157V555.198H150V555.983H157V561.48H158.1V555.983H165.1V555.198Z" fill="#AB659C" fill-opacity="0.35"/>
<path d="M165.1 594.464H158.1V588.967H157V594.464H150V595.249H157V600.746H158.1V595.249H165.1V594.464Z" fill="#AB659C" fill-opacity="0.35"/>
<path d="M115.1 5.49609H108.1V0H107V5.49609H100V6.28125H107V11.7773H108.1V6.28125H115.1V5.49609Z" fill="#AB659C" fill-opacity="0.35"/>
<path d="M115.1 44.7617H108.1V39.2656H107V44.7617H100V45.5469H107V51.043H108.1V45.5469H115.1V44.7617Z" fill="#AB659C" fill-opacity="0.35"/>
<path d="M115.1 84.0254H108.1V78.5293H107V84.0254H100V84.8105H107V90.3066H108.1V84.8105H115.1V84.0254Z" fill="#AB659C" fill-opacity="0.35"/>
<path d="M115.1 123.29H108.1V117.793H107V123.29H100V124.075H107V129.572H108.1V124.075H115.1V123.29Z" fill="#AB659C" fill-opacity="0.35"/>
<path d="M115.1 162.555H108.1V157.059H107V162.555H100V163.34H107V168.836H108.1V163.34H115.1V162.555Z" fill="#AB659C" fill-opacity="0.35"/>
<path d="M115.1 201.818H108.1V196.322H107V201.818H100V202.604H107V208.1H108.1V202.604H115.1V201.818Z" fill="#AB659C" fill-opacity="0.35"/>
<path d="M115.1 241.084H108.1V235.588H107V241.084H100V241.869H107V247.365H108.1V241.869H115.1V241.084Z" fill="#AB659C" fill-opacity="0.35"/>
<path d="M115.1 280.348H108.1V274.852H107V280.348H100V281.133H107V286.629H108.1V281.133H115.1V280.348Z" fill="#AB659C" fill-opacity="0.35"/>
<path d="M115.1 319.613H108.1V314.117H107V319.613H100V320.398H107V325.895H108.1V320.398H115.1V319.613Z" fill="#AB659C" fill-opacity="0.35"/>
<path d="M115.1 358.876H108.1V353.379H107V358.876H100V359.661H107V365.158H108.1V359.661H115.1V358.876Z" fill="#AB659C" fill-opacity="0.35"/>
<path d="M115.1 398.143H108.1V392.646H107V398.143H100V398.928H107V404.424H108.1V398.928H115.1V398.143Z" fill="#AB659C" fill-opacity="0.35"/>
<path d="M115.1 437.406H108.1V431.91H107V437.406H100V438.191H107V443.688H108.1V438.191H115.1V437.406Z" fill="#AB659C" fill-opacity="0.35"/>
<path d="M115.1 476.67H108.1V471.172H107V476.67H100V477.455H107V482.953H108.1V477.455H115.1V476.67Z" fill="#AB659C" fill-opacity="0.35"/>
<path d="M115.1 515.935H108.1V510.438H107V515.935H100V516.72H107V522.217H108.1V516.72H115.1V515.935Z" fill="#AB659C" fill-opacity="0.35"/>
<path d="M115.1 555.198H108.1V549.701H107V555.198H100V555.983H107V561.48H108.1V555.983H115.1V555.198Z" fill="#AB659C" fill-opacity="0.35"/>
<path d="M115.1 594.464H108.1V588.967H107V594.464H100V595.249H107V600.746H108.1V595.249H115.1V594.464Z" fill="#AB659C" fill-opacity="0.35"/>
<path d="M65.1001 5.49609H58.1001V0H57V5.49609H50V6.28125H57V11.7773H58.1001V6.28125H65.1001V5.49609Z" fill="#AB659C" fill-opacity="0.35"/>
<path d="M65.1001 44.7617H58.1001V39.2656H57V44.7617H50V45.5469H57V51.043H58.1001V45.5469H65.1001V44.7617Z" fill="#AB659C" fill-opacity="0.35"/>
<path d="M65.1001 84.0254H58.1001V78.5293H57V84.0254H50V84.8105H57V90.3066H58.1001V84.8105H65.1001V84.0254Z" fill="#AB659C" fill-opacity="0.35"/>
<path d="M65.1001 123.29H58.1001V117.793H57V123.29H50V124.075H57V129.572H58.1001V124.075H65.1001V123.29Z" fill="#AB659C" fill-opacity="0.35"/>
<path d="M65.1001 162.555H58.1001V157.059H57V162.555H50V163.34H57V168.836H58.1001V163.34H65.1001V162.555Z" fill="#AB659C" fill-opacity="0.35"/>
<path d="M65.1001 201.818H58.1001V196.322H57V201.818H50V202.604H57V208.1H58.1001V202.604H65.1001V201.818Z" fill="#AB659C" fill-opacity="0.35"/>
<path d="M65.1001 241.084H58.1001V235.588H57V241.084H50V241.869H57V247.365H58.1001V241.869H65.1001V241.084Z" fill="#AB659C" fill-opacity="0.35"/>
<path d="M65.1001 280.348H58.1001V274.852H57V280.348H50V281.133H57V286.629H58.1001V281.133H65.1001V280.348Z" fill="#AB659C" fill-opacity="0.35"/>
<path d="M65.1001 319.613H58.1001V314.117H57V319.613H50V320.398H57V325.895H58.1001V320.398H65.1001V319.613Z" fill="#AB659C" fill-opacity="0.35"/>
<path d="M65.1001 358.876H58.1001V353.379H57V358.876H50V359.661H57V365.158H58.1001V359.661H65.1001V358.876Z" fill="#AB659C" fill-opacity="0.35"/>
<path d="M65.1001 398.143H58.1001V392.646H57V398.143H50V398.928H57V404.424H58.1001V398.928H65.1001V398.143Z" fill="#AB659C" fill-opacity="0.35"/>
<path d="M65.1001 437.406H58.1001V431.91H57V437.406H50V438.191H57V443.688H58.1001V438.191H65.1001V437.406Z" fill="#AB659C" fill-opacity="0.35"/>
<path d="M65.1001 476.67H58.1001V471.172H57V476.67H50V477.455H57V482.953H58.1001V477.455H65.1001V476.67Z" fill="#AB659C" fill-opacity="0.35"/>
<path d="M65.1001 515.935H58.1001V510.438H57V515.935H50V516.72H57V522.217H58.1001V516.72H65.1001V515.935Z" fill="#AB659C" fill-opacity="0.35"/>
<path d="M65.1001 555.198H58.1001V549.701H57V555.198H50V555.983H57V561.48H58.1001V555.983H65.1001V555.198Z" fill="#AB659C" fill-opacity="0.35"/>
<path d="M65.1001 594.464H58.1001V588.967H57V594.464H50V595.249H57V600.746H58.1001V595.249H65.1001V594.464Z" fill="#AB659C" fill-opacity="0.35"/>
<path d="M15.1001 5.49609H8.1001V0H7V5.49609H0V6.28125H7V11.7773H8.1001V6.28125H15.1001V5.49609Z" fill="#AB659C" fill-opacity="0.35"/>
<path d="M15.1001 44.7617H8.1001V39.2656H7V44.7617H0V45.5469H7V51.043H8.1001V45.5469H15.1001V44.7617Z" fill="#AB659C" fill-opacity="0.35"/>
<path d="M15.1001 84.0254H8.1001V78.5293H7V84.0254H0V84.8105H7V90.3066H8.1001V84.8105H15.1001V84.0254Z" fill="#AB659C" fill-opacity="0.35"/>
<path d="M15.1001 123.29H8.1001V117.793H7V123.29H0V124.075H7V129.572H8.1001V124.075H15.1001V123.29Z" fill="#AB659C" fill-opacity="0.35"/>
<path d="M15.1001 162.555H8.1001V157.059H7V162.555H0V163.34H7V168.836H8.1001V163.34H15.1001V162.555Z" fill="#AB659C" fill-opacity="0.35"/>
<path d="M15.1001 201.818H8.1001V196.322H7V201.818H0V202.604H7V208.1H8.1001V202.604H15.1001V201.818Z" fill="#AB659C" fill-opacity="0.35"/>
<path d="M15.1001 241.084H8.1001V235.588H7V241.084H0V241.869H7V247.365H8.1001V241.869H15.1001V241.084Z" fill="#AB659C" fill-opacity="0.35"/>
<path d="M15.1001 280.348H8.1001V274.852H7V280.348H0V281.133H7V286.629H8.1001V281.133H15.1001V280.348Z" fill="#AB659C" fill-opacity="0.35"/>
<path d="M15.1001 319.613H8.1001V314.117H7V319.613H0V320.398H7V325.895H8.1001V320.398H15.1001V319.613Z" fill="#AB659C" fill-opacity="0.35"/>
<path d="M15.1001 358.876H8.1001V353.379H7V358.876H0V359.661H7V365.158H8.1001V359.661H15.1001V358.876Z" fill="#AB659C" fill-opacity="0.35"/>
<path d="M15.1001 398.143H8.1001V392.646H7V398.143H0V398.928H7V404.424H8.1001V398.928H15.1001V398.143Z" fill="#AB659C" fill-opacity="0.35"/>
<path d="M15.1001 437.406H8.1001V431.91H7V437.406H0V438.191H7V443.688H8.1001V438.191H15.1001V437.406Z" fill="#AB659C" fill-opacity="0.35"/>
<path d="M15.1001 476.67H8.1001V471.172H7V476.67H0V477.455H7V482.953H8.1001V477.455H15.1001V476.67Z" fill="#AB659C" fill-opacity="0.35"/>
<path d="M15.1001 515.935H8.1001V510.438H7V515.935H0V516.72H7V522.217H8.1001V516.72H15.1001V515.935Z" fill="#AB659C" fill-opacity="0.35"/>
<path d="M15.1001 555.198H8.1001V549.701H7V555.198H0V555.983H7V561.48H8.1001V555.983H15.1001V555.198Z" fill="#AB659C" fill-opacity="0.35"/>
<path d="M15.1001 594.464H8.1001V588.967H7V594.464H0V595.249H7V600.746H8.1001V595.249H15.1001V594.464Z" fill="#AB659C" fill-opacity="0.35"/>
</svg>
