<svg width="1416" height="601" fill="none" xmlns="http://www.w3.org/2000/svg"><path d="M1415.1 5.496h-7V0h-1.1v5.496h-7v.785h7v5.496h1.1V6.281h7v-.785ZM1415.1 44.762h-7v-5.496h-1.1v5.496h-7v.785h7v5.496h1.1v-5.496h7v-.785ZM1415.1 84.025h-7V78.53h-1.1v5.496h-7v.785h7v5.497h1.1V84.81h7v-.786ZM1415.1 123.29h-7v-5.497h-1.1v5.497h-7v.785h7v5.497h1.1v-5.497h7v-.785ZM1415.1 162.555h-7v-5.496h-1.1v5.496h-7v.785h7v5.496h1.1v-5.496h7v-.785ZM1415.1 201.818h-7v-5.496h-1.1v5.496h-7v.786h7v5.496h1.1v-5.496h7v-.786ZM1415.1 241.084h-7v-5.496h-1.1v5.496h-7v.785h7v5.496h1.1v-5.496h7v-.785ZM1415.1 280.348h-7v-5.496h-1.1v5.496h-7v.785h7v5.496h1.1v-5.496h7v-.785ZM1415.1 319.613h-7v-5.496h-1.1v5.496h-7v.785h7v5.497h1.1v-5.497h7v-.785ZM1415.1 358.876h-7v-5.497h-1.1v5.497h-7v.785h7v5.497h1.1v-5.497h7v-.785ZM1415.1 398.143h-7v-5.497h-1.1v5.497h-7v.785h7v5.496h1.1v-5.496h7v-.785ZM1415.1 437.406h-7v-5.496h-1.1v5.496h-7v.785h7v5.497h1.1v-5.497h7v-.785ZM1415.1 476.67h-7v-5.498h-1.1v5.498h-7v.785h7v5.498h1.1v-5.498h7v-.785ZM1415.1 515.935h-7v-5.497h-1.1v5.497h-7v.785h7v5.497h1.1v-5.497h7v-.785ZM1415.1 555.198h-7v-5.497h-1.1v5.497h-7v.785h7v5.497h1.1v-5.497h7v-.785ZM1415.1 594.464h-7v-5.497h-1.1v5.497h-7v.785h7v5.497h1.1v-5.497h7v-.785ZM1365.1 5.496h-7V0h-1.1v5.496h-7v.785h7v5.496h1.1V6.281h7v-.785ZM1365.1 44.762h-7v-5.496h-1.1v5.496h-7v.785h7v5.496h1.1v-5.496h7v-.785ZM1365.1 84.025h-7V78.53h-1.1v5.496h-7v.785h7v5.497h1.1V84.81h7v-.786ZM1365.1 123.29h-7v-5.497h-1.1v5.497h-7v.785h7v5.497h1.1v-5.497h7v-.785ZM1365.1 162.555h-7v-5.496h-1.1v5.496h-7v.785h7v5.496h1.1v-5.496h7v-.785ZM1365.1 201.818h-7v-5.496h-1.1v5.496h-7v.786h7v5.496h1.1v-5.496h7v-.786ZM1365.1 241.084h-7v-5.496h-1.1v5.496h-7v.785h7v5.496h1.1v-5.496h7v-.785ZM1365.1 280.348h-7v-5.496h-1.1v5.496h-7v.785h7v5.496h1.1v-5.496h7v-.785ZM1365.1 319.613h-7v-5.496h-1.1v5.496h-7v.785h7v5.497h1.1v-5.497h7v-.785ZM1365.1 358.876h-7v-5.497h-1.1v5.497h-7v.785h7v5.497h1.1v-5.497h7v-.785ZM1365.1 398.143h-7v-5.497h-1.1v5.497h-7v.785h7v5.496h1.1v-5.496h7v-.785ZM1365.1 437.406h-7v-5.496h-1.1v5.496h-7v.785h7v5.497h1.1v-5.497h7v-.785ZM1365.1 476.67h-7v-5.498h-1.1v5.498h-7v.785h7v5.498h1.1v-5.498h7v-.785ZM1365.1 515.935h-7v-5.497h-1.1v5.497h-7v.785h7v5.497h1.1v-5.497h7v-.785ZM1365.1 555.198h-7v-5.497h-1.1v5.497h-7v.785h7v5.497h1.1v-5.497h7v-.785ZM1365.1 594.464h-7v-5.497h-1.1v5.497h-7v.785h7v5.497h1.1v-5.497h7v-.785ZM1315.1 5.496h-7V0h-1.1v5.496h-7v.785h7v5.496h1.1V6.281h7v-.785ZM1315.1 44.762h-7v-5.496h-1.1v5.496h-7v.785h7v5.496h1.1v-5.496h7v-.785ZM1315.1 84.025h-7V78.53h-1.1v5.496h-7v.785h7v5.497h1.1V84.81h7v-.786ZM1315.1 123.29h-7v-5.497h-1.1v5.497h-7v.785h7v5.497h1.1v-5.497h7v-.785ZM1315.1 162.555h-7v-5.496h-1.1v5.496h-7v.785h7v5.496h1.1v-5.496h7v-.785ZM1315.1 201.818h-7v-5.496h-1.1v5.496h-7v.786h7v5.496h1.1v-5.496h7v-.786ZM1315.1 241.084h-7v-5.496h-1.1v5.496h-7v.785h7v5.496h1.1v-5.496h7v-.785ZM1315.1 280.348h-7v-5.496h-1.1v5.496h-7v.785h7v5.496h1.1v-5.496h7v-.785ZM1315.1 319.613h-7v-5.496h-1.1v5.496h-7v.785h7v5.497h1.1v-5.497h7v-.785ZM1315.1 358.876h-7v-5.497h-1.1v5.497h-7v.785h7v5.497h1.1v-5.497h7v-.785ZM1315.1 398.143h-7v-5.497h-1.1v5.497h-7v.785h7v5.496h1.1v-5.496h7v-.785ZM1315.1 437.406h-7v-5.496h-1.1v5.496h-7v.785h7v5.497h1.1v-5.497h7v-.785ZM1315.1 476.67h-7v-5.498h-1.1v5.498h-7v.785h7v5.498h1.1v-5.498h7v-.785ZM1315.1 515.935h-7v-5.497h-1.1v5.497h-7v.785h7v5.497h1.1v-5.497h7v-.785ZM1315.1 555.198h-7v-5.497h-1.1v5.497h-7v.785h7v5.497h1.1v-5.497h7v-.785ZM1315.1 594.464h-7v-5.497h-1.1v5.497h-7v.785h7v5.497h1.1v-5.497h7v-.785ZM1265.1 5.496h-7V0h-1.1v5.496h-7v.785h7v5.496h1.1V6.281h7v-.785ZM1265.1 44.762h-7v-5.496h-1.1v5.496h-7v.785h7v5.496h1.1v-5.496h7v-.785ZM1265.1 84.025h-7V78.53h-1.1v5.496h-7v.785h7v5.497h1.1V84.81h7v-.786ZM1265.1 123.29h-7v-5.497h-1.1v5.497h-7v.785h7v5.497h1.1v-5.497h7v-.785ZM1265.1 162.555h-7v-5.496h-1.1v5.496h-7v.785h7v5.496h1.1v-5.496h7v-.785ZM1265.1 201.818h-7v-5.496h-1.1v5.496h-7v.786h7v5.496h1.1v-5.496h7v-.786ZM1265.1 241.084h-7v-5.496h-1.1v5.496h-7v.785h7v5.496h1.1v-5.496h7v-.785ZM1265.1 280.348h-7v-5.496h-1.1v5.496h-7v.785h7v5.496h1.1v-5.496h7v-.785ZM1265.1 319.613h-7v-5.496h-1.1v5.496h-7v.785h7v5.497h1.1v-5.497h7v-.785ZM1265.1 358.876h-7v-5.497h-1.1v5.497h-7v.785h7v5.497h1.1v-5.497h7v-.785ZM1265.1 398.143h-7v-5.497h-1.1v5.497h-7v.785h7v5.496h1.1v-5.496h7v-.785ZM1265.1 437.406h-7v-5.496h-1.1v5.496h-7v.785h7v5.497h1.1v-5.497h7v-.785ZM1265.1 476.67h-7v-5.498h-1.1v5.498h-7v.785h7v5.498h1.1v-5.498h7v-.785ZM1265.1 515.935h-7v-5.497h-1.1v5.497h-7v.785h7v5.497h1.1v-5.497h7v-.785ZM1265.1 555.198h-7v-5.497h-1.1v5.497h-7v.785h7v5.497h1.1v-5.497h7v-.785ZM1265.1 594.464h-7v-5.497h-1.1v5.497h-7v.785h7v5.497h1.1v-5.497h7v-.785ZM1215.1 5.496h-7V0h-1.1v5.496h-7v.785h7v5.496h1.1V6.281h7v-.785ZM1215.1 44.762h-7v-5.496h-1.1v5.496h-7v.785h7v5.496h1.1v-5.496h7v-.785ZM1215.1 84.025h-7V78.53h-1.1v5.496h-7v.785h7v5.497h1.1V84.81h7v-.786ZM1215.1 123.29h-7v-5.497h-1.1v5.497h-7v.785h7v5.497h1.1v-5.497h7v-.785ZM1215.1 162.555h-7v-5.496h-1.1v5.496h-7v.785h7v5.496h1.1v-5.496h7v-.785ZM1215.1 201.818h-7v-5.496h-1.1v5.496h-7v.786h7v5.496h1.1v-5.496h7v-.786ZM1215.1 241.084h-7v-5.496h-1.1v5.496h-7v.785h7v5.496h1.1v-5.496h7v-.785ZM1215.1 280.348h-7v-5.496h-1.1v5.496h-7v.785h7v5.496h1.1v-5.496h7v-.785ZM1215.1 319.613h-7v-5.496h-1.1v5.496h-7v.785h7v5.497h1.1v-5.497h7v-.785ZM1215.1 358.876h-7v-5.497h-1.1v5.497h-7v.785h7v5.497h1.1v-5.497h7v-.785ZM1215.1 398.143h-7v-5.497h-1.1v5.497h-7v.785h7v5.496h1.1v-5.496h7v-.785ZM1215.1 437.406h-7v-5.496h-1.1v5.496h-7v.785h7v5.497h1.1v-5.497h7v-.785ZM1215.1 476.67h-7v-5.498h-1.1v5.498h-7v.785h7v5.498h1.1v-5.498h7v-.785ZM1215.1 515.935h-7v-5.497h-1.1v5.497h-7v.785h7v5.497h1.1v-5.497h7v-.785ZM1215.1 555.198h-7v-5.497h-1.1v5.497h-7v.785h7v5.497h1.1v-5.497h7v-.785ZM1215.1 594.464h-7v-5.497h-1.1v5.497h-7v.785h7v5.497h1.1v-5.497h7v-.785ZM1165.1 5.496h-7V0h-1.1v5.496h-7v.785h7v5.496h1.1V6.281h7v-.785ZM1165.1 44.762h-7v-5.496h-1.1v5.496h-7v.785h7v5.496h1.1v-5.496h7v-.785ZM1165.1 84.025h-7V78.53h-1.1v5.496h-7v.785h7v5.497h1.1V84.81h7v-.786ZM1165.1 123.29h-7v-5.497h-1.1v5.497h-7v.785h7v5.497h1.1v-5.497h7v-.785ZM1165.1 162.555h-7v-5.496h-1.1v5.496h-7v.785h7v5.496h1.1v-5.496h7v-.785ZM1165.1 201.818h-7v-5.496h-1.1v5.496h-7v.786h7v5.496h1.1v-5.496h7v-.786ZM1165.1 241.084h-7v-5.496h-1.1v5.496h-7v.785h7v5.496h1.1v-5.496h7v-.785ZM1165.1 280.348h-7v-5.496h-1.1v5.496h-7v.785h7v5.496h1.1v-5.496h7v-.785ZM1165.1 319.613h-7v-5.496h-1.1v5.496h-7v.785h7v5.497h1.1v-5.497h7v-.785ZM1165.1 358.876h-7v-5.497h-1.1v5.497h-7v.785h7v5.497h1.1v-5.497h7v-.785ZM1165.1 398.143h-7v-5.497h-1.1v5.497h-7v.785h7v5.496h1.1v-5.496h7v-.785ZM1165.1 437.406h-7v-5.496h-1.1v5.496h-7v.785h7v5.497h1.1v-5.497h7v-.785ZM1165.1 476.67h-7v-5.498h-1.1v5.498h-7v.785h7v5.498h1.1v-5.498h7v-.785ZM1165.1 515.935h-7v-5.497h-1.1v5.497h-7v.785h7v5.497h1.1v-5.497h7v-.785ZM1165.1 555.198h-7v-5.497h-1.1v5.497h-7v.785h7v5.497h1.1v-5.497h7v-.785ZM1165.1 594.464h-7v-5.497h-1.1v5.497h-7v.785h7v5.497h1.1v-5.497h7v-.785ZM1115.1 5.496h-7V0h-1.1v5.496h-7v.785h7v5.496h1.1V6.281h7v-.785ZM1115.1 44.762h-7v-5.496h-1.1v5.496h-7v.785h7v5.496h1.1v-5.496h7v-.785ZM1115.1 84.025h-7V78.53h-1.1v5.496h-7v.785h7v5.497h1.1V84.81h7v-.786ZM1115.1 123.29h-7v-5.497h-1.1v5.497h-7v.785h7v5.497h1.1v-5.497h7v-.785ZM1115.1 162.555h-7v-5.496h-1.1v5.496h-7v.785h7v5.496h1.1v-5.496h7v-.785ZM1115.1 201.818h-7v-5.496h-1.1v5.496h-7v.786h7v5.496h1.1v-5.496h7v-.786ZM1115.1 241.084h-7v-5.496h-1.1v5.496h-7v.785h7v5.496h1.1v-5.496h7v-.785ZM1115.1 280.348h-7v-5.496h-1.1v5.496h-7v.785h7v5.496h1.1v-5.496h7v-.785ZM1115.1 319.613h-7v-5.496h-1.1v5.496h-7v.785h7v5.497h1.1v-5.497h7v-.785ZM1115.1 358.876h-7v-5.497h-1.1v5.497h-7v.785h7v5.497h1.1v-5.497h7v-.785ZM1115.1 398.143h-7v-5.497h-1.1v5.497h-7v.785h7v5.496h1.1v-5.496h7v-.785ZM1115.1 437.406h-7v-5.496h-1.1v5.496h-7v.785h7v5.497h1.1v-5.497h7v-.785ZM1115.1 476.67h-7v-5.498h-1.1v5.498h-7v.785h7v5.498h1.1v-5.498h7v-.785ZM1115.1 515.935h-7v-5.497h-1.1v5.497h-7v.785h7v5.497h1.1v-5.497h7v-.785ZM1115.1 555.198h-7v-5.497h-1.1v5.497h-7v.785h7v5.497h1.1v-5.497h7v-.785ZM1115.1 594.464h-7v-5.497h-1.1v5.497h-7v.785h7v5.497h1.1v-5.497h7v-.785ZM1065.1 5.496h-7V0h-1.1v5.496h-7v.785h7v5.496h1.1V6.281h7v-.785ZM1065.1 44.762h-7v-5.496h-1.1v5.496h-7v.785h7v5.496h1.1v-5.496h7v-.785ZM1065.1 84.025h-7V78.53h-1.1v5.496h-7v.785h7v5.497h1.1V84.81h7v-.786ZM1065.1 123.29h-7v-5.497h-1.1v5.497h-7v.785h7v5.497h1.1v-5.497h7v-.785ZM1065.1 162.555h-7v-5.496h-1.1v5.496h-7v.785h7v5.496h1.1v-5.496h7v-.785ZM1065.1 201.818h-7v-5.496h-1.1v5.496h-7v.786h7v5.496h1.1v-5.496h7v-.786ZM1065.1 241.084h-7v-5.496h-1.1v5.496h-7v.785h7v5.496h1.1v-5.496h7v-.785ZM1065.1 280.348h-7v-5.496h-1.1v5.496h-7v.785h7v5.496h1.1v-5.496h7v-.785ZM1065.1 319.613h-7v-5.496h-1.1v5.496h-7v.785h7v5.497h1.1v-5.497h7v-.785ZM1065.1 358.876h-7v-5.497h-1.1v5.497h-7v.785h7v5.497h1.1v-5.497h7v-.785ZM1065.1 398.143h-7v-5.497h-1.1v5.497h-7v.785h7v5.496h1.1v-5.496h7v-.785ZM1065.1 437.406h-7v-5.496h-1.1v5.496h-7v.785h7v5.497h1.1v-5.497h7v-.785ZM1065.1 476.67h-7v-5.498h-1.1v5.498h-7v.785h7v5.498h1.1v-5.498h7v-.785ZM1065.1 515.935h-7v-5.497h-1.1v5.497h-7v.785h7v5.497h1.1v-5.497h7v-.785ZM1065.1 555.198h-7v-5.497h-1.1v5.497h-7v.785h7v5.497h1.1v-5.497h7v-.785ZM1065.1 594.464h-7v-5.497h-1.1v5.497h-7v.785h7v5.497h1.1v-5.497h7v-.785ZM1015.1 5.496h-7V0h-1.1v5.496h-7v.785h7v5.496h1.1V6.281h7v-.785ZM1015.1 44.762h-7v-5.496h-1.1v5.496h-7v.785h7v5.496h1.1v-5.496h7v-.785ZM1015.1 84.025h-7V78.53h-1.1v5.496h-7v.785h7v5.497h1.1V84.81h7v-.786ZM1015.1 123.29h-7v-5.497h-1.1v5.497h-7v.785h7v5.497h1.1v-5.497h7v-.785ZM1015.1 162.555h-7v-5.496h-1.1v5.496h-7v.785h7v5.496h1.1v-5.496h7v-.785ZM1015.1 201.818h-7v-5.496h-1.1v5.496h-7v.786h7v5.496h1.1v-5.496h7v-.786ZM1015.1 241.084h-7v-5.496h-1.1v5.496h-7v.785h7v5.496h1.1v-5.496h7v-.785ZM1015.1 280.348h-7v-5.496h-1.1v5.496h-7v.785h7v5.496h1.1v-5.496h7v-.785ZM1015.1 319.613h-7v-5.496h-1.1v5.496h-7v.785h7v5.497h1.1v-5.497h7v-.785ZM1015.1 358.876h-7v-5.497h-1.1v5.497h-7v.785h7v5.497h1.1v-5.497h7v-.785ZM1015.1 398.143h-7v-5.497h-1.1v5.497h-7v.785h7v5.496h1.1v-5.496h7v-.785ZM1015.1 437.406h-7v-5.496h-1.1v5.496h-7v.785h7v5.497h1.1v-5.497h7v-.785ZM1015.1 476.67h-7v-5.498h-1.1v5.498h-7v.785h7v5.498h1.1v-5.498h7v-.785ZM1015.1 515.935h-7v-5.497h-1.1v5.497h-7v.785h7v5.497h1.1v-5.497h7v-.785ZM1015.1 555.198h-7v-5.497h-1.1v5.497h-7v.785h7v5.497h1.1v-5.497h7v-.785ZM1015.1 594.464h-7v-5.497h-1.1v5.497h-7v.785h7v5.497h1.1v-5.497h7v-.785ZM965.1 5.496h-7V0H957v5.496h-7v.785h7v5.496h1.1V6.281h7v-.785ZM965.1 44.762h-7v-5.496H957v5.496h-7v.785h7v5.496h1.1v-5.496h7v-.785ZM965.1 84.025h-7V78.53H957v5.496h-7v.785h7v5.497h1.1V84.81h7v-.786ZM965.1 123.29h-7v-5.497H957v5.497h-7v.785h7v5.497h1.1v-5.497h7v-.785ZM965.1 162.555h-7v-5.496H957v5.496h-7v.785h7v5.496h1.1v-5.496h7v-.785ZM965.1 201.818h-7v-5.496H957v5.496h-7v.786h7v5.496h1.1v-5.496h7v-.786ZM965.1 241.084h-7v-5.496H957v5.496h-7v.785h7v5.496h1.1v-5.496h7v-.785ZM965.1 280.348h-7v-5.496H957v5.496h-7v.785h7v5.496h1.1v-5.496h7v-.785ZM965.1 319.613h-7v-5.496H957v5.496h-7v.785h7v5.497h1.1v-5.497h7v-.785ZM965.1 358.876h-7v-5.497H957v5.497h-7v.785h7v5.497h1.1v-5.497h7v-.785ZM965.1 398.143h-7v-5.497H957v5.497h-7v.785h7v5.496h1.1v-5.496h7v-.785ZM965.1 437.406h-7v-5.496H957v5.496h-7v.785h7v5.497h1.1v-5.497h7v-.785ZM965.1 476.67h-7v-5.498H957v5.498h-7v.785h7v5.498h1.1v-5.498h7v-.785ZM965.1 515.935h-7v-5.497H957v5.497h-7v.785h7v5.497h1.1v-5.497h7v-.785ZM965.1 555.198h-7v-5.497H957v5.497h-7v.785h7v5.497h1.1v-5.497h7v-.785ZM965.1 594.464h-7v-5.497H957v5.497h-7v.785h7v5.497h1.1v-5.497h7v-.785ZM915.1 5.496h-7V0H907v5.496h-7v.785h7v5.496h1.1V6.281h7v-.785ZM915.1 44.762h-7v-5.496H907v5.496h-7v.785h7v5.496h1.1v-5.496h7v-.785ZM915.1 84.025h-7V78.53H907v5.496h-7v.785h7v5.497h1.1V84.81h7v-.786ZM915.1 123.29h-7v-5.497H907v5.497h-7v.785h7v5.497h1.1v-5.497h7v-.785ZM915.1 162.555h-7v-5.496H907v5.496h-7v.785h7v5.496h1.1v-5.496h7v-.785ZM915.1 201.818h-7v-5.496H907v5.496h-7v.786h7v5.496h1.1v-5.496h7v-.786ZM915.1 241.084h-7v-5.496H907v5.496h-7v.785h7v5.496h1.1v-5.496h7v-.785ZM915.1 280.348h-7v-5.496H907v5.496h-7v.785h7v5.496h1.1v-5.496h7v-.785ZM915.1 319.613h-7v-5.496H907v5.496h-7v.785h7v5.497h1.1v-5.497h7v-.785ZM915.1 358.876h-7v-5.497H907v5.497h-7v.785h7v5.497h1.1v-5.497h7v-.785ZM915.1 398.143h-7v-5.497H907v5.497h-7v.785h7v5.496h1.1v-5.496h7v-.785ZM915.1 437.406h-7v-5.496H907v5.496h-7v.785h7v5.497h1.1v-5.497h7v-.785ZM915.1 476.67h-7v-5.498H907v5.498h-7v.785h7v5.498h1.1v-5.498h7v-.785ZM915.1 515.935h-7v-5.497H907v5.497h-7v.785h7v5.497h1.1v-5.497h7v-.785ZM915.1 555.198h-7v-5.497H907v5.497h-7v.785h7v5.497h1.1v-5.497h7v-.785ZM915.1 594.464h-7v-5.497H907v5.497h-7v.785h7v5.497h1.1v-5.497h7v-.785ZM865.1 5.496h-7V0H857v5.496h-7v.785h7v5.496h1.1V6.281h7v-.785ZM865.1 44.762h-7v-5.496H857v5.496h-7v.785h7v5.496h1.1v-5.496h7v-.785ZM865.1 84.025h-7V78.53H857v5.496h-7v.785h7v5.497h1.1V84.81h7v-.786ZM865.1 123.29h-7v-5.497H857v5.497h-7v.785h7v5.497h1.1v-5.497h7v-.785ZM865.1 162.555h-7v-5.496H857v5.496h-7v.785h7v5.496h1.1v-5.496h7v-.785ZM865.1 201.818h-7v-5.496H857v5.496h-7v.786h7v5.496h1.1v-5.496h7v-.786ZM865.1 241.084h-7v-5.496H857v5.496h-7v.785h7v5.496h1.1v-5.496h7v-.785ZM865.1 280.348h-7v-5.496H857v5.496h-7v.785h7v5.496h1.1v-5.496h7v-.785ZM865.1 319.613h-7v-5.496H857v5.496h-7v.785h7v5.497h1.1v-5.497h7v-.785ZM865.1 358.876h-7v-5.497H857v5.497h-7v.785h7v5.497h1.1v-5.497h7v-.785ZM865.1 398.143h-7v-5.497H857v5.497h-7v.785h7v5.496h1.1v-5.496h7v-.785ZM865.1 437.406h-7v-5.496H857v5.496h-7v.785h7v5.497h1.1v-5.497h7v-.785ZM865.1 476.67h-7v-5.498H857v5.498h-7v.785h7v5.498h1.1v-5.498h7v-.785ZM865.1 515.935h-7v-5.497H857v5.497h-7v.785h7v5.497h1.1v-5.497h7v-.785ZM865.1 555.198h-7v-5.497H857v5.497h-7v.785h7v5.497h1.1v-5.497h7v-.785ZM865.1 594.464h-7v-5.497H857v5.497h-7v.785h7v5.497h1.1v-5.497h7v-.785ZM815.1 5.496h-7V0H807v5.496h-7v.785h7v5.496h1.1V6.281h7v-.785ZM815.1 44.762h-7v-5.496H807v5.496h-7v.785h7v5.496h1.1v-5.496h7v-.785ZM815.1 84.025h-7V78.53H807v5.496h-7v.785h7v5.497h1.1V84.81h7v-.786ZM815.1 123.29h-7v-5.497H807v5.497h-7v.785h7v5.497h1.1v-5.497h7v-.785ZM815.1 162.555h-7v-5.496H807v5.496h-7v.785h7v5.496h1.1v-5.496h7v-.785ZM815.1 201.818h-7v-5.496H807v5.496h-7v.786h7v5.496h1.1v-5.496h7v-.786ZM815.1 241.084h-7v-5.496H807v5.496h-7v.785h7v5.496h1.1v-5.496h7v-.785ZM815.1 280.348h-7v-5.496H807v5.496h-7v.785h7v5.496h1.1v-5.496h7v-.785ZM815.1 319.613h-7v-5.496H807v5.496h-7v.785h7v5.497h1.1v-5.497h7v-.785ZM815.1 358.876h-7v-5.497H807v5.497h-7v.785h7v5.497h1.1v-5.497h7v-.785ZM815.1 398.143h-7v-5.497H807v5.497h-7v.785h7v5.496h1.1v-5.496h7v-.785ZM815.1 437.406h-7v-5.496H807v5.496h-7v.785h7v5.497h1.1v-5.497h7v-.785ZM815.1 476.67h-7v-5.498H807v5.498h-7v.785h7v5.498h1.1v-5.498h7v-.785ZM815.1 515.935h-7v-5.497H807v5.497h-7v.785h7v5.497h1.1v-5.497h7v-.785ZM815.1 555.198h-7v-5.497H807v5.497h-7v.785h7v5.497h1.1v-5.497h7v-.785ZM815.1 594.464h-7v-5.497H807v5.497h-7v.785h7v5.497h1.1v-5.497h7v-.785ZM765.1 5.496h-7V0H757v5.496h-7v.785h7v5.496h1.1V6.281h7v-.785ZM765.1 44.762h-7v-5.496H757v5.496h-7v.785h7v5.496h1.1v-5.496h7v-.785ZM765.1 84.025h-7V78.53H757v5.496h-7v.785h7v5.497h1.1V84.81h7v-.786ZM765.1 123.29h-7v-5.497H757v5.497h-7v.785h7v5.497h1.1v-5.497h7v-.785ZM765.1 162.555h-7v-5.496H757v5.496h-7v.785h7v5.496h1.1v-5.496h7v-.785ZM765.1 201.818h-7v-5.496H757v5.496h-7v.786h7v5.496h1.1v-5.496h7v-.786ZM765.1 241.084h-7v-5.496H757v5.496h-7v.785h7v5.496h1.1v-5.496h7v-.785ZM765.1 280.348h-7v-5.496H757v5.496h-7v.785h7v5.496h1.1v-5.496h7v-.785ZM765.1 319.613h-7v-5.496H757v5.496h-7v.785h7v5.497h1.1v-5.497h7v-.785ZM765.1 358.876h-7v-5.497H757v5.497h-7v.785h7v5.497h1.1v-5.497h7v-.785ZM765.1 398.143h-7v-5.497H757v5.497h-7v.785h7v5.496h1.1v-5.496h7v-.785ZM765.1 437.406h-7v-5.496H757v5.496h-7v.785h7v5.497h1.1v-5.497h7v-.785ZM765.1 476.67h-7v-5.498H757v5.498h-7v.785h7v5.498h1.1v-5.498h7v-.785ZM765.1 515.935h-7v-5.497H757v5.497h-7v.785h7v5.497h1.1v-5.497h7v-.785ZM765.1 555.198h-7v-5.497H757v5.497h-7v.785h7v5.497h1.1v-5.497h7v-.785ZM765.1 594.464h-7v-5.497H757v5.497h-7v.785h7v5.497h1.1v-5.497h7v-.785ZM715.1 5.496h-7V0H707v5.496h-7v.785h7v5.496h1.1V6.281h7v-.785ZM715.1 44.762h-7v-5.496H707v5.496h-7v.785h7v5.496h1.1v-5.496h7v-.785ZM715.1 84.025h-7V78.53H707v5.496h-7v.785h7v5.497h1.1V84.81h7v-.786ZM715.1 123.29h-7v-5.497H707v5.497h-7v.785h7v5.497h1.1v-5.497h7v-.785ZM715.1 162.555h-7v-5.496H707v5.496h-7v.785h7v5.496h1.1v-5.496h7v-.785ZM715.1 201.818h-7v-5.496H707v5.496h-7v.786h7v5.496h1.1v-5.496h7v-.786ZM715.1 241.084h-7v-5.496H707v5.496h-7v.785h7v5.496h1.1v-5.496h7v-.785ZM715.1 280.348h-7v-5.496H707v5.496h-7v.785h7v5.496h1.1v-5.496h7v-.785ZM715.1 319.613h-7v-5.496H707v5.496h-7v.785h7v5.497h1.1v-5.497h7v-.785ZM715.1 358.876h-7v-5.497H707v5.497h-7v.785h7v5.497h1.1v-5.497h7v-.785ZM715.1 398.143h-7v-5.497H707v5.497h-7v.785h7v5.496h1.1v-5.496h7v-.785ZM715.1 437.406h-7v-5.496H707v5.496h-7v.785h7v5.497h1.1v-5.497h7v-.785ZM715.1 476.67h-7v-5.498H707v5.498h-7v.785h7v5.498h1.1v-5.498h7v-.785ZM715.1 515.935h-7v-5.497H707v5.497h-7v.785h7v5.497h1.1v-5.497h7v-.785ZM715.1 555.198h-7v-5.497H707v5.497h-7v.785h7v5.497h1.1v-5.497h7v-.785ZM715.1 594.464h-7v-5.497H707v5.497h-7v.785h7v5.497h1.1v-5.497h7v-.785ZM665.1 5.496h-7V0H657v5.496h-7v.785h7v5.496h1.1V6.281h7v-.785ZM665.1 44.762h-7v-5.496H657v5.496h-7v.785h7v5.496h1.1v-5.496h7v-.785ZM665.1 84.025h-7V78.53H657v5.496h-7v.785h7v5.497h1.1V84.81h7v-.786ZM665.1 123.29h-7v-5.497H657v5.497h-7v.785h7v5.497h1.1v-5.497h7v-.785ZM665.1 162.555h-7v-5.496H657v5.496h-7v.785h7v5.496h1.1v-5.496h7v-.785ZM665.1 201.818h-7v-5.496H657v5.496h-7v.786h7v5.496h1.1v-5.496h7v-.786ZM665.1 241.084h-7v-5.496H657v5.496h-7v.785h7v5.496h1.1v-5.496h7v-.785ZM665.1 280.348h-7v-5.496H657v5.496h-7v.785h7v5.496h1.1v-5.496h7v-.785ZM665.1 319.613h-7v-5.496H657v5.496h-7v.785h7v5.497h1.1v-5.497h7v-.785ZM665.1 358.876h-7v-5.497H657v5.497h-7v.785h7v5.497h1.1v-5.497h7v-.785ZM665.1 398.143h-7v-5.497H657v5.497h-7v.785h7v5.496h1.1v-5.496h7v-.785ZM665.1 437.406h-7v-5.496H657v5.496h-7v.785h7v5.497h1.1v-5.497h7v-.785ZM665.1 476.67h-7v-5.498H657v5.498h-7v.785h7v5.498h1.1v-5.498h7v-.785ZM665.1 515.935h-7v-5.497H657v5.497h-7v.785h7v5.497h1.1v-5.497h7v-.785ZM665.1 555.198h-7v-5.497H657v5.497h-7v.785h7v5.497h1.1v-5.497h7v-.785ZM665.1 594.464h-7v-5.497H657v5.497h-7v.785h7v5.497h1.1v-5.497h7v-.785ZM615.1 5.496h-7V0H607v5.496h-7v.785h7v5.496h1.1V6.281h7v-.785ZM615.1 44.762h-7v-5.496H607v5.496h-7v.785h7v5.496h1.1v-5.496h7v-.785ZM615.1 84.025h-7V78.53H607v5.496h-7v.785h7v5.497h1.1V84.81h7v-.786ZM615.1 123.29h-7v-5.497H607v5.497h-7v.785h7v5.497h1.1v-5.497h7v-.785ZM615.1 162.555h-7v-5.496H607v5.496h-7v.785h7v5.496h1.1v-5.496h7v-.785ZM615.1 201.818h-7v-5.496H607v5.496h-7v.786h7v5.496h1.1v-5.496h7v-.786ZM615.1 241.084h-7v-5.496H607v5.496h-7v.785h7v5.496h1.1v-5.496h7v-.785ZM615.1 280.348h-7v-5.496H607v5.496h-7v.785h7v5.496h1.1v-5.496h7v-.785ZM615.1 319.613h-7v-5.496H607v5.496h-7v.785h7v5.497h1.1v-5.497h7v-.785ZM615.1 358.876h-7v-5.497H607v5.497h-7v.785h7v5.497h1.1v-5.497h7v-.785ZM615.1 398.143h-7v-5.497H607v5.497h-7v.785h7v5.496h1.1v-5.496h7v-.785ZM615.1 437.406h-7v-5.496H607v5.496h-7v.785h7v5.497h1.1v-5.497h7v-.785ZM615.1 476.67h-7v-5.498H607v5.498h-7v.785h7v5.498h1.1v-5.498h7v-.785ZM615.1 515.935h-7v-5.497H607v5.497h-7v.785h7v5.497h1.1v-5.497h7v-.785ZM615.1 555.198h-7v-5.497H607v5.497h-7v.785h7v5.497h1.1v-5.497h7v-.785ZM615.1 594.464h-7v-5.497H607v5.497h-7v.785h7v5.497h1.1v-5.497h7v-.785ZM565.1 5.496h-7V0H557v5.496h-7v.785h7v5.496h1.1V6.281h7v-.785ZM565.1 44.762h-7v-5.496H557v5.496h-7v.785h7v5.496h1.1v-5.496h7v-.785ZM565.1 84.025h-7V78.53H557v5.496h-7v.785h7v5.497h1.1V84.81h7v-.786ZM565.1 123.29h-7v-5.497H557v5.497h-7v.785h7v5.497h1.1v-5.497h7v-.785ZM565.1 162.555h-7v-5.496H557v5.496h-7v.785h7v5.496h1.1v-5.496h7v-.785ZM565.1 201.818h-7v-5.496H557v5.496h-7v.786h7v5.496h1.1v-5.496h7v-.786ZM565.1 241.084h-7v-5.496H557v5.496h-7v.785h7v5.496h1.1v-5.496h7v-.785ZM565.1 280.348h-7v-5.496H557v5.496h-7v.785h7v5.496h1.1v-5.496h7v-.785ZM565.1 319.613h-7v-5.496H557v5.496h-7v.785h7v5.497h1.1v-5.497h7v-.785ZM565.1 358.876h-7v-5.497H557v5.497h-7v.785h7v5.497h1.1v-5.497h7v-.785ZM565.1 398.143h-7v-5.497H557v5.497h-7v.785h7v5.496h1.1v-5.496h7v-.785ZM565.1 437.406h-7v-5.496H557v5.496h-7v.785h7v5.497h1.1v-5.497h7v-.785ZM565.1 476.67h-7v-5.498H557v5.498h-7v.785h7v5.498h1.1v-5.498h7v-.785ZM565.1 515.935h-7v-5.497H557v5.497h-7v.785h7v5.497h1.1v-5.497h7v-.785ZM565.1 555.198h-7v-5.497H557v5.497h-7v.785h7v5.497h1.1v-5.497h7v-.785ZM565.1 594.464h-7v-5.497H557v5.497h-7v.785h7v5.497h1.1v-5.497h7v-.785ZM515.1 5.496h-7V0H507v5.496h-7v.785h7v5.496h1.1V6.281h7v-.785ZM515.1 44.762h-7v-5.496H507v5.496h-7v.785h7v5.496h1.1v-5.496h7v-.785ZM515.1 84.025h-7V78.53H507v5.496h-7v.785h7v5.497h1.1V84.81h7v-.786ZM515.1 123.29h-7v-5.497H507v5.497h-7v.785h7v5.497h1.1v-5.497h7v-.785ZM515.1 162.555h-7v-5.496H507v5.496h-7v.785h7v5.496h1.1v-5.496h7v-.785ZM515.1 201.818h-7v-5.496H507v5.496h-7v.786h7v5.496h1.1v-5.496h7v-.786ZM515.1 241.084h-7v-5.496H507v5.496h-7v.785h7v5.496h1.1v-5.496h7v-.785ZM515.1 280.348h-7v-5.496H507v5.496h-7v.785h7v5.496h1.1v-5.496h7v-.785ZM515.1 319.613h-7v-5.496H507v5.496h-7v.785h7v5.497h1.1v-5.497h7v-.785ZM515.1 358.876h-7v-5.497H507v5.497h-7v.785h7v5.497h1.1v-5.497h7v-.785ZM515.1 398.143h-7v-5.497H507v5.497h-7v.785h7v5.496h1.1v-5.496h7v-.785ZM515.1 437.406h-7v-5.496H507v5.496h-7v.785h7v5.497h1.1v-5.497h7v-.785ZM515.1 476.67h-7v-5.498H507v5.498h-7v.785h7v5.498h1.1v-5.498h7v-.785ZM515.1 515.935h-7v-5.497H507v5.497h-7v.785h7v5.497h1.1v-5.497h7v-.785ZM515.1 555.198h-7v-5.497H507v5.497h-7v.785h7v5.497h1.1v-5.497h7v-.785ZM515.1 594.464h-7v-5.497H507v5.497h-7v.785h7v5.497h1.1v-5.497h7v-.785ZM465.1 5.496h-7V0H457v5.496h-7v.785h7v5.496h1.1V6.281h7v-.785ZM465.1 44.762h-7v-5.496H457v5.496h-7v.785h7v5.496h1.1v-5.496h7v-.785ZM465.1 84.025h-7V78.53H457v5.496h-7v.785h7v5.497h1.1V84.81h7v-.786ZM465.1 123.29h-7v-5.497H457v5.497h-7v.785h7v5.497h1.1v-5.497h7v-.785ZM465.1 162.555h-7v-5.496H457v5.496h-7v.785h7v5.496h1.1v-5.496h7v-.785ZM465.1 201.818h-7v-5.496H457v5.496h-7v.786h7v5.496h1.1v-5.496h7v-.786ZM465.1 241.084h-7v-5.496H457v5.496h-7v.785h7v5.496h1.1v-5.496h7v-.785ZM465.1 280.348h-7v-5.496H457v5.496h-7v.785h7v5.496h1.1v-5.496h7v-.785ZM465.1 319.613h-7v-5.496H457v5.496h-7v.785h7v5.497h1.1v-5.497h7v-.785ZM465.1 358.876h-7v-5.497H457v5.497h-7v.785h7v5.497h1.1v-5.497h7v-.785ZM465.1 398.143h-7v-5.497H457v5.497h-7v.785h7v5.496h1.1v-5.496h7v-.785ZM465.1 437.406h-7v-5.496H457v5.496h-7v.785h7v5.497h1.1v-5.497h7v-.785ZM465.1 476.67h-7v-5.498H457v5.498h-7v.785h7v5.498h1.1v-5.498h7v-.785ZM465.1 515.935h-7v-5.497H457v5.497h-7v.785h7v5.497h1.1v-5.497h7v-.785ZM465.1 555.198h-7v-5.497H457v5.497h-7v.785h7v5.497h1.1v-5.497h7v-.785ZM465.1 594.464h-7v-5.497H457v5.497h-7v.785h7v5.497h1.1v-5.497h7v-.785ZM415.1 5.496h-7V0H407v5.496h-7v.785h7v5.496h1.1V6.281h7v-.785ZM415.1 44.762h-7v-5.496H407v5.496h-7v.785h7v5.496h1.1v-5.496h7v-.785ZM415.1 84.025h-7V78.53H407v5.496h-7v.785h7v5.497h1.1V84.81h7v-.786ZM415.1 123.29h-7v-5.497H407v5.497h-7v.785h7v5.497h1.1v-5.497h7v-.785ZM415.1 162.555h-7v-5.496H407v5.496h-7v.785h7v5.496h1.1v-5.496h7v-.785ZM415.1 201.818h-7v-5.496H407v5.496h-7v.786h7v5.496h1.1v-5.496h7v-.786ZM415.1 241.084h-7v-5.496H407v5.496h-7v.785h7v5.496h1.1v-5.496h7v-.785ZM415.1 280.348h-7v-5.496H407v5.496h-7v.785h7v5.496h1.1v-5.496h7v-.785ZM415.1 319.613h-7v-5.496H407v5.496h-7v.785h7v5.497h1.1v-5.497h7v-.785ZM415.1 358.876h-7v-5.497H407v5.497h-7v.785h7v5.497h1.1v-5.497h7v-.785ZM415.1 398.143h-7v-5.497H407v5.497h-7v.785h7v5.496h1.1v-5.496h7v-.785ZM415.1 437.406h-7v-5.496H407v5.496h-7v.785h7v5.497h1.1v-5.497h7v-.785ZM415.1 476.67h-7v-5.498H407v5.498h-7v.785h7v5.498h1.1v-5.498h7v-.785ZM415.1 515.935h-7v-5.497H407v5.497h-7v.785h7v5.497h1.1v-5.497h7v-.785ZM415.1 555.198h-7v-5.497H407v5.497h-7v.785h7v5.497h1.1v-5.497h7v-.785ZM415.1 594.464h-7v-5.497H407v5.497h-7v.785h7v5.497h1.1v-5.497h7v-.785ZM365.1 5.496h-7V0H357v5.496h-7v.785h7v5.496h1.1V6.281h7v-.785ZM365.1 44.762h-7v-5.496H357v5.496h-7v.785h7v5.496h1.1v-5.496h7v-.785ZM365.1 84.025h-7V78.53H357v5.496h-7v.785h7v5.497h1.1V84.81h7v-.786ZM365.1 123.29h-7v-5.497H357v5.497h-7v.785h7v5.497h1.1v-5.497h7v-.785ZM365.1 162.555h-7v-5.496H357v5.496h-7v.785h7v5.496h1.1v-5.496h7v-.785ZM365.1 201.818h-7v-5.496H357v5.496h-7v.786h7v5.496h1.1v-5.496h7v-.786ZM365.1 241.084h-7v-5.496H357v5.496h-7v.785h7v5.496h1.1v-5.496h7v-.785ZM365.1 280.348h-7v-5.496H357v5.496h-7v.785h7v5.496h1.1v-5.496h7v-.785ZM365.1 319.613h-7v-5.496H357v5.496h-7v.785h7v5.497h1.1v-5.497h7v-.785ZM365.1 358.876h-7v-5.497H357v5.497h-7v.785h7v5.497h1.1v-5.497h7v-.785ZM365.1 398.143h-7v-5.497H357v5.497h-7v.785h7v5.496h1.1v-5.496h7v-.785ZM365.1 437.406h-7v-5.496H357v5.496h-7v.785h7v5.497h1.1v-5.497h7v-.785ZM365.1 476.67h-7v-5.498H357v5.498h-7v.785h7v5.498h1.1v-5.498h7v-.785ZM365.1 515.935h-7v-5.497H357v5.497h-7v.785h7v5.497h1.1v-5.497h7v-.785ZM365.1 555.198h-7v-5.497H357v5.497h-7v.785h7v5.497h1.1v-5.497h7v-.785ZM365.1 594.464h-7v-5.497H357v5.497h-7v.785h7v5.497h1.1v-5.497h7v-.785ZM315.1 5.496h-7V0H307v5.496h-7v.785h7v5.496h1.1V6.281h7v-.785ZM315.1 44.762h-7v-5.496H307v5.496h-7v.785h7v5.496h1.1v-5.496h7v-.785ZM315.1 84.025h-7V78.53H307v5.496h-7v.785h7v5.497h1.1V84.81h7v-.786ZM315.1 123.29h-7v-5.497H307v5.497h-7v.785h7v5.497h1.1v-5.497h7v-.785ZM315.1 162.555h-7v-5.496H307v5.496h-7v.785h7v5.496h1.1v-5.496h7v-.785ZM315.1 201.818h-7v-5.496H307v5.496h-7v.786h7v5.496h1.1v-5.496h7v-.786ZM315.1 241.084h-7v-5.496H307v5.496h-7v.785h7v5.496h1.1v-5.496h7v-.785ZM315.1 280.348h-7v-5.496H307v5.496h-7v.785h7v5.496h1.1v-5.496h7v-.785ZM315.1 319.613h-7v-5.496H307v5.496h-7v.785h7v5.497h1.1v-5.497h7v-.785ZM315.1 358.876h-7v-5.497H307v5.497h-7v.785h7v5.497h1.1v-5.497h7v-.785ZM315.1 398.143h-7v-5.497H307v5.497h-7v.785h7v5.496h1.1v-5.496h7v-.785ZM315.1 437.406h-7v-5.496H307v5.496h-7v.785h7v5.497h1.1v-5.497h7v-.785ZM315.1 476.67h-7v-5.498H307v5.498h-7v.785h7v5.498h1.1v-5.498h7v-.785ZM315.1 515.935h-7v-5.497H307v5.497h-7v.785h7v5.497h1.1v-5.497h7v-.785ZM315.1 555.198h-7v-5.497H307v5.497h-7v.785h7v5.497h1.1v-5.497h7v-.785ZM315.1 594.464h-7v-5.497H307v5.497h-7v.785h7v5.497h1.1v-5.497h7v-.785ZM265.1 5.496h-7V0H257v5.496h-7v.785h7v5.496h1.1V6.281h7v-.785ZM265.1 44.762h-7v-5.496H257v5.496h-7v.785h7v5.496h1.1v-5.496h7v-.785ZM265.1 84.025h-7V78.53H257v5.496h-7v.785h7v5.497h1.1V84.81h7v-.786ZM265.1 123.29h-7v-5.497H257v5.497h-7v.785h7v5.497h1.1v-5.497h7v-.785ZM265.1 162.555h-7v-5.496H257v5.496h-7v.785h7v5.496h1.1v-5.496h7v-.785ZM265.1 201.818h-7v-5.496H257v5.496h-7v.786h7v5.496h1.1v-5.496h7v-.786ZM265.1 241.084h-7v-5.496H257v5.496h-7v.785h7v5.496h1.1v-5.496h7v-.785ZM265.1 280.348h-7v-5.496H257v5.496h-7v.785h7v5.496h1.1v-5.496h7v-.785ZM265.1 319.613h-7v-5.496H257v5.496h-7v.785h7v5.497h1.1v-5.497h7v-.785ZM265.1 358.876h-7v-5.497H257v5.497h-7v.785h7v5.497h1.1v-5.497h7v-.785ZM265.1 398.143h-7v-5.497H257v5.497h-7v.785h7v5.496h1.1v-5.496h7v-.785ZM265.1 437.406h-7v-5.496H257v5.496h-7v.785h7v5.497h1.1v-5.497h7v-.785ZM265.1 476.67h-7v-5.498H257v5.498h-7v.785h7v5.498h1.1v-5.498h7v-.785ZM265.1 515.935h-7v-5.497H257v5.497h-7v.785h7v5.497h1.1v-5.497h7v-.785ZM265.1 555.198h-7v-5.497H257v5.497h-7v.785h7v5.497h1.1v-5.497h7v-.785ZM265.1 594.464h-7v-5.497H257v5.497h-7v.785h7v5.497h1.1v-5.497h7v-.785ZM215.1 5.496h-7V0H207v5.496h-7v.785h7v5.496h1.1V6.281h7v-.785ZM215.1 44.762h-7v-5.496H207v5.496h-7v.785h7v5.496h1.1v-5.496h7v-.785ZM215.1 84.025h-7V78.53H207v5.496h-7v.785h7v5.497h1.1V84.81h7v-.786ZM215.1 123.29h-7v-5.497H207v5.497h-7v.785h7v5.497h1.1v-5.497h7v-.785ZM215.1 162.555h-7v-5.496H207v5.496h-7v.785h7v5.496h1.1v-5.496h7v-.785ZM215.1 201.818h-7v-5.496H207v5.496h-7v.786h7v5.496h1.1v-5.496h7v-.786ZM215.1 241.084h-7v-5.496H207v5.496h-7v.785h7v5.496h1.1v-5.496h7v-.785ZM215.1 280.348h-7v-5.496H207v5.496h-7v.785h7v5.496h1.1v-5.496h7v-.785ZM215.1 319.613h-7v-5.496H207v5.496h-7v.785h7v5.497h1.1v-5.497h7v-.785ZM215.1 358.876h-7v-5.497H207v5.497h-7v.785h7v5.497h1.1v-5.497h7v-.785ZM215.1 398.143h-7v-5.497H207v5.497h-7v.785h7v5.496h1.1v-5.496h7v-.785ZM215.1 437.406h-7v-5.496H207v5.496h-7v.785h7v5.497h1.1v-5.497h7v-.785ZM215.1 476.67h-7v-5.498H207v5.498h-7v.785h7v5.498h1.1v-5.498h7v-.785ZM215.1 515.935h-7v-5.497H207v5.497h-7v.785h7v5.497h1.1v-5.497h7v-.785ZM215.1 555.198h-7v-5.497H207v5.497h-7v.785h7v5.497h1.1v-5.497h7v-.785ZM215.1 594.464h-7v-5.497H207v5.497h-7v.785h7v5.497h1.1v-5.497h7v-.785ZM165.1 5.496h-7V0H157v5.496h-7v.785h7v5.496h1.1V6.281h7v-.785ZM165.1 44.762h-7v-5.496H157v5.496h-7v.785h7v5.496h1.1v-5.496h7v-.785ZM165.1 84.025h-7V78.53H157v5.496h-7v.785h7v5.497h1.1V84.81h7v-.786ZM165.1 123.29h-7v-5.497H157v5.497h-7v.785h7v5.497h1.1v-5.497h7v-.785ZM165.1 162.555h-7v-5.496H157v5.496h-7v.785h7v5.496h1.1v-5.496h7v-.785ZM165.1 201.818h-7v-5.496H157v5.496h-7v.786h7v5.496h1.1v-5.496h7v-.786ZM165.1 241.084h-7v-5.496H157v5.496h-7v.785h7v5.496h1.1v-5.496h7v-.785ZM165.1 280.348h-7v-5.496H157v5.496h-7v.785h7v5.496h1.1v-5.496h7v-.785ZM165.1 319.613h-7v-5.496H157v5.496h-7v.785h7v5.497h1.1v-5.497h7v-.785ZM165.1 358.876h-7v-5.497H157v5.497h-7v.785h7v5.497h1.1v-5.497h7v-.785ZM165.1 398.143h-7v-5.497H157v5.497h-7v.785h7v5.496h1.1v-5.496h7v-.785ZM165.1 437.406h-7v-5.496H157v5.496h-7v.785h7v5.497h1.1v-5.497h7v-.785ZM165.1 476.67h-7v-5.498H157v5.498h-7v.785h7v5.498h1.1v-5.498h7v-.785ZM165.1 515.935h-7v-5.497H157v5.497h-7v.785h7v5.497h1.1v-5.497h7v-.785ZM165.1 555.198h-7v-5.497H157v5.497h-7v.785h7v5.497h1.1v-5.497h7v-.785ZM165.1 594.464h-7v-5.497H157v5.497h-7v.785h7v5.497h1.1v-5.497h7v-.785ZM115.1 5.496h-7V0H107v5.496h-7v.785h7v5.496h1.1V6.281h7v-.785ZM115.1 44.762h-7v-5.496H107v5.496h-7v.785h7v5.496h1.1v-5.496h7v-.785ZM115.1 84.025h-7V78.53H107v5.496h-7v.785h7v5.497h1.1V84.81h7v-.786ZM115.1 123.29h-7v-5.497H107v5.497h-7v.785h7v5.497h1.1v-5.497h7v-.785ZM115.1 162.555h-7v-5.496H107v5.496h-7v.785h7v5.496h1.1v-5.496h7v-.785ZM115.1 201.818h-7v-5.496H107v5.496h-7v.786h7v5.496h1.1v-5.496h7v-.786ZM115.1 241.084h-7v-5.496H107v5.496h-7v.785h7v5.496h1.1v-5.496h7v-.785ZM115.1 280.348h-7v-5.496H107v5.496h-7v.785h7v5.496h1.1v-5.496h7v-.785ZM115.1 319.613h-7v-5.496H107v5.496h-7v.785h7v5.497h1.1v-5.497h7v-.785ZM115.1 358.876h-7v-5.497H107v5.497h-7v.785h7v5.497h1.1v-5.497h7v-.785ZM115.1 398.143h-7v-5.497H107v5.497h-7v.785h7v5.496h1.1v-5.496h7v-.785ZM115.1 437.406h-7v-5.496H107v5.496h-7v.785h7v5.497h1.1v-5.497h7v-.785ZM115.1 476.67h-7v-5.498H107v5.498h-7v.785h7v5.498h1.1v-5.498h7v-.785ZM115.1 515.935h-7v-5.497H107v5.497h-7v.785h7v5.497h1.1v-5.497h7v-.785ZM115.1 555.198h-7v-5.497H107v5.497h-7v.785h7v5.497h1.1v-5.497h7v-.785ZM115.1 594.464h-7v-5.497H107v5.497h-7v.785h7v5.497h1.1v-5.497h7v-.785ZM65.1 5.496h-7V0H57v5.496h-7v.785h7v5.496h1.1V6.281h7v-.785ZM65.1 44.762h-7v-5.496H57v5.496h-7v.785h7v5.496h1.1v-5.496h7v-.785ZM65.1 84.025h-7V78.53H57v5.496h-7v.785h7v5.497h1.1V84.81h7v-.786ZM65.1 123.29h-7v-5.497H57v5.497h-7v.785h7v5.497h1.1v-5.497h7v-.785ZM65.1 162.555h-7v-5.496H57v5.496h-7v.785h7v5.496h1.1v-5.496h7v-.785ZM65.1 201.818h-7v-5.496H57v5.496h-7v.786h7v5.496h1.1v-5.496h7v-.786ZM65.1 241.084h-7v-5.496H57v5.496h-7v.785h7v5.496h1.1v-5.496h7v-.785ZM65.1 280.348h-7v-5.496H57v5.496h-7v.785h7v5.496h1.1v-5.496h7v-.785ZM65.1 319.613h-7v-5.496H57v5.496h-7v.785h7v5.497h1.1v-5.497h7v-.785ZM65.1 358.876h-7v-5.497H57v5.497h-7v.785h7v5.497h1.1v-5.497h7v-.785ZM65.1 398.143h-7v-5.497H57v5.497h-7v.785h7v5.496h1.1v-5.496h7v-.785ZM65.1 437.406h-7v-5.496H57v5.496h-7v.785h7v5.497h1.1v-5.497h7v-.785ZM65.1 476.67h-7v-5.498H57v5.498h-7v.785h7v5.498h1.1v-5.498h7v-.785ZM65.1 515.935h-7v-5.497H57v5.497h-7v.785h7v5.497h1.1v-5.497h7v-.785ZM65.1 555.198h-7v-5.497H57v5.497h-7v.785h7v5.497h1.1v-5.497h7v-.785ZM65.1 594.464h-7v-5.497H57v5.497h-7v.785h7v5.497h1.1v-5.497h7v-.785ZM15.1 5.496h-7V0H7v5.496H0v.785h7v5.496h1.1V6.281h7v-.785ZM15.1 44.762h-7v-5.496H7v5.496H0v.785h7v5.496h1.1v-5.496h7v-.785ZM15.1 84.025h-7V78.53H7v5.496H0v.785h7v5.497h1.1V84.81h7v-.786ZM15.1 123.29h-7v-5.497H7v5.497H0v.785h7v5.497h1.1v-5.497h7v-.785ZM15.1 162.555h-7v-5.496H7v5.496H0v.785h7v5.496h1.1v-5.496h7v-.785ZM15.1 201.818h-7v-5.496H7v5.496H0v.786h7v5.496h1.1v-5.496h7v-.786ZM15.1 241.084h-7v-5.496H7v5.496H0v.785h7v5.496h1.1v-5.496h7v-.785ZM15.1 280.348h-7v-5.496H7v5.496H0v.785h7v5.496h1.1v-5.496h7v-.785ZM15.1 319.613h-7v-5.496H7v5.496H0v.785h7v5.497h1.1v-5.497h7v-.785ZM15.1 358.876h-7v-5.497H7v5.497H0v.785h7v5.497h1.1v-5.497h7v-.785ZM15.1 398.143h-7v-5.497H7v5.497H0v.785h7v5.496h1.1v-5.496h7v-.785ZM15.1 437.406h-7v-5.496H7v5.496H0v.785h7v5.497h1.1v-5.497h7v-.785ZM15.1 476.67h-7v-5.498H7v5.498H0v.785h7v5.498h1.1v-5.498h7v-.785ZM15.1 515.935h-7v-5.497H7v5.497H0v.785h7v5.497h1.1v-5.497h7v-.785ZM15.1 555.198h-7v-5.497H7v5.497H0v.785h7v5.497h1.1v-5.497h7v-.785ZM15.1 594.464h-7v-5.497H7v5.497H0v.785h7v5.497h1.1v-5.497h7v-.785Z" fill="#AB659C" fill-opacity=".35"/></svg>