<svg width="197" height="349" viewBox="0 0 197 349" fill="none" xmlns="http://www.w3.org/2000/svg">
<path d="M83.5 348.175C129.616 348.175 167 309.063 167 260.816C167 212.57 129.616 173.458 83.5 173.458C37.3842 173.458 0 212.57 0 260.816C0 309.063 37.3842 348.175 83.5 348.175Z" fill="#F1F58F"/>
<g opacity="0.15" clip-path="url(#clip0_207_42)">
<path d="M119.134 7.67642C119.209 9.9487 120.453 20.3465 119.699 24.9342C118.944 29.522 113.035 38.2623 113.406 42.5198C113.777 46.7774 122.312 52.0316 122.515 57.2701C122.718 62.5086 114.201 77.1057 114.945 82.3056C115.69 87.5056 128.251 89.1848 128.168 96.7633C128.084 104.342 114.285 130.74 114.311 139.864C114.338 148.988 128.824 159.172 128.371 166.061C127.917 172.949 111.429 186.777 110.866 192.183C110.302 197.589 122.352 205.153 124.094 207.12" stroke="#B0AB94" stroke-width="3" stroke-linecap="round"/>
</g>
<defs>
<clipPath id="clip0_207_42">
<rect width="213.877" height="153" fill="white" transform="translate(194.17) rotate(89.2651)"/>
</clipPath>
</defs>
</svg>
