<svg width="366" height="161" viewBox="0 0 366 161" fill="none" xmlns="http://www.w3.org/2000/svg">
<g opacity="0.75">
<path d="M0 147H2.19614C29.3258 147 51.7867 125.92 53.5057 98.8446L55.4008 68.9974C56.0543 58.7038 64.5937 50.6895 74.908 50.6895V50.6895C85.2224 50.6895 93.7617 58.7038 94.4152 68.9974L96.3103 98.8446C98.0294 125.92 120.49 147 147.62 147H148.955C176.084 147 198.545 125.92 200.264 98.8446L202.159 68.9974C202.813 58.7038 211.352 50.6895 221.667 50.6895V50.6895C231.981 50.6895 240.52 58.7038 241.174 68.9974L243.075 98.9413C244.791 125.962 267.206 147 294.281 147V147C321.357 147 343.772 125.962 345.488 98.9414L347.486 67.4718C348.085 58.0359 355.913 50.6895 365.368 50.6895V50.6895" stroke="#FFDCA7" stroke-width="26.5475"/>
<path d="M0 134.77V134.77C24.4846 134.77 44.3333 114.922 44.3333 90.437V69.0347C44.3333 52.1487 58.0221 38.46 74.908 38.46V38.46C91.794 38.46 105.483 52.1487 105.483 69.0347V91.9657C105.483 115.606 124.647 134.77 148.287 134.77V134.77C171.928 134.77 191.092 115.606 191.092 91.9657V69.0347C191.092 52.1487 204.781 38.46 221.667 38.46V38.46C238.553 38.46 252.241 52.1487 252.241 69.0347V92.7301C252.241 115.948 271.063 134.77 294.281 134.77V134.77C317.5 134.77 336.322 115.948 336.322 92.7301V67.5059C336.322 51.4643 349.326 38.46 365.368 38.46V38.46" stroke="#E28123" stroke-width="26.5475"/>
<path d="M0 122.541V122.541C17.7302 122.541 32.1034 108.168 32.1034 90.4373V69.035C32.1034 45.3947 51.2677 26.2305 74.908 26.2305V26.2305C98.5483 26.2305 117.713 45.3947 117.713 69.035V91.9661C117.713 108.852 131.401 122.541 148.287 122.541V122.541C165.173 122.541 178.862 108.852 178.862 91.9661V69.035C178.862 45.3947 198.026 26.2305 221.667 26.2305V26.2305C245.307 26.2305 264.471 45.3947 264.471 69.035V92.7304C264.471 109.194 277.818 122.541 294.281 122.541V122.541C310.745 122.541 324.092 109.194 324.092 92.7304V67.5063C324.092 44.7103 342.572 26.2305 365.368 26.2305V26.2305" stroke="#BF4D11" stroke-width="26.5475"/>
<path d="M0 110.31V110.31C11.1739 110.31 20.4248 101.628 21.1328 90.4767L22.931 62.1552C24.6501 35.08 47.1109 14 74.2406 14H75.5754C102.705 14 125.166 35.08 126.885 62.1551L128.78 92.0023C129.434 102.296 137.973 110.31 148.287 110.31V110.31C158.602 110.31 167.141 102.296 167.795 92.0023L169.69 62.1552C171.409 35.08 193.869 14 220.999 14H222.334C249.464 14 271.924 35.08 273.644 62.1551L275.587 92.7652C276.213 102.63 284.397 110.31 294.281 110.31V110.31C304.166 110.31 312.35 102.63 312.976 92.7652L314.974 61.2956C316.662 34.7037 338.722 14 365.368 14V14" stroke="#5B3715" stroke-width="26.5475"/>
</g>
</svg>
