<svg width="311" height="6" viewBox="0 0 311 6" fill="none" xmlns="http://www.w3.org/2000/svg">
<path d="M338.227 0.571289L327.664 5.457L317.102 0.571289L306.54 5.457L295.978 0.571289L285.415 5.457L274.853 0.571289L264.291 5.457L253.728 0.571289L243.166 5.457L232.604 0.571289L222.042 5.457L211.479 0.571289L200.917 5.457L190.355 0.571289L179.793 5.457L169.23 0.571289L158.668 5.457L148.106 0.571289L137.544 5.457L126.981 0.571289L116.419 5.457L105.857 0.571289L95.2945 5.457L84.7322 0.571289L74.17 5.457L63.6077 0.571289L53.0455 5.457L42.4832 0.571289L31.9209 5.457L21.3587 0.571289L10.7964 5.457L0.234131 0.571289" stroke="#FF8E75" stroke-width="3" stroke-miterlimit="10"/>
</svg>
